%TF.GenerationSoftware,KiCad,Pcbnew,(7.0.0)*%
%TF.CreationDate,2023-10-20T06:38:37+02:00*%
%TF.ProjectId,SEM_ProjektoroSCH-Rev2,53454d5f-5072-46f6-9a65-6b746f726f53,2.3*%
%TF.SameCoordinates,Original*%
%TF.FileFunction,Paste,Top*%
%TF.FilePolarity,Positive*%
%FSLAX46Y46*%
G04 Gerber Fmt 4.6, Leading zero omitted, Abs format (unit mm)*
G04 Created by KiCad (PCBNEW (7.0.0)) date 2023-10-20 06:38:37*
%MOMM*%
%LPD*%
G01*
G04 APERTURE LIST*
G04 Aperture macros list*
%AMRoundRect*
0 Rectangle with rounded corners*
0 $1 Rounding radius*
0 $2 $3 $4 $5 $6 $7 $8 $9 X,Y pos of 4 corners*
0 Add a 4 corners polygon primitive as box body*
4,1,4,$2,$3,$4,$5,$6,$7,$8,$9,$2,$3,0*
0 Add four circle primitives for the rounded corners*
1,1,$1+$1,$2,$3*
1,1,$1+$1,$4,$5*
1,1,$1+$1,$6,$7*
1,1,$1+$1,$8,$9*
0 Add four rect primitives between the rounded corners*
20,1,$1+$1,$2,$3,$4,$5,0*
20,1,$1+$1,$4,$5,$6,$7,0*
20,1,$1+$1,$6,$7,$8,$9,0*
20,1,$1+$1,$8,$9,$2,$3,0*%
G04 Aperture macros list end*
%ADD10RoundRect,0.250000X-0.450000X0.350000X-0.450000X-0.350000X0.450000X-0.350000X0.450000X0.350000X0*%
%ADD11R,2.000000X7.875000*%
%ADD12RoundRect,0.250000X-0.475000X0.337500X-0.475000X-0.337500X0.475000X-0.337500X0.475000X0.337500X0*%
%ADD13R,1.600000X0.550000*%
%ADD14R,0.550000X1.600000*%
%ADD15RoundRect,0.250000X0.475000X-0.337500X0.475000X0.337500X-0.475000X0.337500X-0.475000X-0.337500X0*%
%ADD16RoundRect,0.150000X-0.150000X0.850000X-0.150000X-0.850000X0.150000X-0.850000X0.150000X0.850000X0*%
%ADD17R,1.300000X1.550000*%
G04 APERTURE END LIST*
D10*
%TO.C,R8*%
X147955000Y-104045000D03*
X147955000Y-106045000D03*
%TD*%
%TO.C,R7*%
X140335000Y-104045000D03*
X140335000Y-106045000D03*
%TD*%
%TO.C,R2*%
X147955000Y-84455000D03*
X147955000Y-86455000D03*
%TD*%
D11*
%TO.C,Y1*%
X158749999Y-87819999D03*
X158749999Y-99694999D03*
%TD*%
D10*
%TO.C,R4*%
X150495000Y-84455000D03*
X150495000Y-86455000D03*
%TD*%
D12*
%TO.C,C1*%
X144145000Y-110087500D03*
X144145000Y-112162500D03*
%TD*%
D13*
%TO.C,U2*%
X150299999Y-99124999D03*
X150299999Y-98324999D03*
X150299999Y-97524999D03*
X150299999Y-96724999D03*
X150299999Y-95924999D03*
X150299999Y-95124999D03*
X150299999Y-94324999D03*
X150299999Y-93524999D03*
D14*
X148849999Y-92074999D03*
X148049999Y-92074999D03*
X147249999Y-92074999D03*
X146449999Y-92074999D03*
X145649999Y-92074999D03*
X144849999Y-92074999D03*
X144049999Y-92074999D03*
X143249999Y-92074999D03*
D13*
X141799999Y-93524999D03*
X141799999Y-94324999D03*
X141799999Y-95124999D03*
X141799999Y-95924999D03*
X141799999Y-96724999D03*
X141799999Y-97524999D03*
X141799999Y-98324999D03*
X141799999Y-99124999D03*
D14*
X143249999Y-100574999D03*
X144049999Y-100574999D03*
X144849999Y-100574999D03*
X145649999Y-100574999D03*
X146449999Y-100574999D03*
X147249999Y-100574999D03*
X148049999Y-100574999D03*
X148849999Y-100574999D03*
%TD*%
D12*
%TO.C,C8*%
X150495000Y-104007500D03*
X150495000Y-106082500D03*
%TD*%
D10*
%TO.C,R1*%
X145415000Y-84455000D03*
X145415000Y-86455000D03*
%TD*%
D15*
%TO.C,C10*%
X154940000Y-91630000D03*
X154940000Y-89555000D03*
%TD*%
%TO.C,C7*%
X135255000Y-106088000D03*
X135255000Y-104013000D03*
%TD*%
D10*
%TO.C,R5*%
X142875000Y-104045000D03*
X142875000Y-106045000D03*
%TD*%
%TO.C,R6*%
X145415000Y-104045000D03*
X145415000Y-106045000D03*
%TD*%
D12*
%TO.C,C3*%
X141605000Y-110087500D03*
X141605000Y-112162500D03*
%TD*%
%TO.C,C4*%
X139065000Y-110087500D03*
X139065000Y-112162500D03*
%TD*%
D15*
%TO.C,C5*%
X137795000Y-106088000D03*
X137795000Y-104013000D03*
%TD*%
D12*
%TO.C,C9*%
X154940000Y-95440000D03*
X154940000Y-97515000D03*
%TD*%
D15*
%TO.C,C6*%
X149225000Y-112162500D03*
X149225000Y-110087500D03*
%TD*%
D10*
%TO.C,R3*%
X142875000Y-84455000D03*
X142875000Y-86455000D03*
%TD*%
D16*
%TO.C,U1*%
X146685000Y-116840000D03*
X145415000Y-116840000D03*
X144145000Y-116840000D03*
X142875000Y-116840000D03*
X141605000Y-116840000D03*
X140335000Y-116840000D03*
X139065000Y-116840000D03*
X137795000Y-116840000D03*
X137795000Y-121840000D03*
X139065000Y-121840000D03*
X140335000Y-121840000D03*
X141605000Y-121840000D03*
X142875000Y-121840000D03*
X144145000Y-121840000D03*
X145415000Y-121840000D03*
X146685000Y-121840000D03*
%TD*%
D10*
%TO.C,R9*%
X153035000Y-104045000D03*
X153035000Y-106045000D03*
%TD*%
D12*
%TO.C,C2*%
X146685000Y-110087500D03*
X146685000Y-112162500D03*
%TD*%
D17*
%TO.C,SW5*%
X159094999Y-123659999D03*
X159094999Y-131609999D03*
X154594999Y-123659999D03*
X154594999Y-131609999D03*
%TD*%
M02*
