%TF.GenerationSoftware,KiCad,Pcbnew,(7.0.0)*%
%TF.CreationDate,2023-10-20T06:38:37+02:00*%
%TF.ProjectId,SEM_ProjektoroSCH-Rev2,53454d5f-5072-46f6-9a65-6b746f726f53,2.3*%
%TF.SameCoordinates,Original*%
%TF.FileFunction,Legend,Top*%
%TF.FilePolarity,Positive*%
%FSLAX46Y46*%
G04 Gerber Fmt 4.6, Leading zero omitted, Abs format (unit mm)*
G04 Created by KiCad (PCBNEW (7.0.0)) date 2023-10-20 06:38:37*
%MOMM*%
%LPD*%
G01*
G04 APERTURE LIST*
%ADD10C,0.150000*%
%ADD11C,0.125000*%
%ADD12C,0.120000*%
G04 APERTURE END LIST*
D10*
%TO.C,R8*%
X147788333Y-108952380D02*
X147455000Y-108476190D01*
X147216905Y-108952380D02*
X147216905Y-107952380D01*
X147216905Y-107952380D02*
X147597857Y-107952380D01*
X147597857Y-107952380D02*
X147693095Y-108000000D01*
X147693095Y-108000000D02*
X147740714Y-108047619D01*
X147740714Y-108047619D02*
X147788333Y-108142857D01*
X147788333Y-108142857D02*
X147788333Y-108285714D01*
X147788333Y-108285714D02*
X147740714Y-108380952D01*
X147740714Y-108380952D02*
X147693095Y-108428571D01*
X147693095Y-108428571D02*
X147597857Y-108476190D01*
X147597857Y-108476190D02*
X147216905Y-108476190D01*
X148359762Y-108380952D02*
X148264524Y-108333333D01*
X148264524Y-108333333D02*
X148216905Y-108285714D01*
X148216905Y-108285714D02*
X148169286Y-108190476D01*
X148169286Y-108190476D02*
X148169286Y-108142857D01*
X148169286Y-108142857D02*
X148216905Y-108047619D01*
X148216905Y-108047619D02*
X148264524Y-108000000D01*
X148264524Y-108000000D02*
X148359762Y-107952380D01*
X148359762Y-107952380D02*
X148550238Y-107952380D01*
X148550238Y-107952380D02*
X148645476Y-108000000D01*
X148645476Y-108000000D02*
X148693095Y-108047619D01*
X148693095Y-108047619D02*
X148740714Y-108142857D01*
X148740714Y-108142857D02*
X148740714Y-108190476D01*
X148740714Y-108190476D02*
X148693095Y-108285714D01*
X148693095Y-108285714D02*
X148645476Y-108333333D01*
X148645476Y-108333333D02*
X148550238Y-108380952D01*
X148550238Y-108380952D02*
X148359762Y-108380952D01*
X148359762Y-108380952D02*
X148264524Y-108428571D01*
X148264524Y-108428571D02*
X148216905Y-108476190D01*
X148216905Y-108476190D02*
X148169286Y-108571428D01*
X148169286Y-108571428D02*
X148169286Y-108761904D01*
X148169286Y-108761904D02*
X148216905Y-108857142D01*
X148216905Y-108857142D02*
X148264524Y-108904761D01*
X148264524Y-108904761D02*
X148359762Y-108952380D01*
X148359762Y-108952380D02*
X148550238Y-108952380D01*
X148550238Y-108952380D02*
X148645476Y-108904761D01*
X148645476Y-108904761D02*
X148693095Y-108857142D01*
X148693095Y-108857142D02*
X148740714Y-108761904D01*
X148740714Y-108761904D02*
X148740714Y-108571428D01*
X148740714Y-108571428D02*
X148693095Y-108476190D01*
X148693095Y-108476190D02*
X148645476Y-108428571D01*
X148645476Y-108428571D02*
X148550238Y-108380952D01*
%TO.C,R7*%
X140168333Y-108952380D02*
X139835000Y-108476190D01*
X139596905Y-108952380D02*
X139596905Y-107952380D01*
X139596905Y-107952380D02*
X139977857Y-107952380D01*
X139977857Y-107952380D02*
X140073095Y-108000000D01*
X140073095Y-108000000D02*
X140120714Y-108047619D01*
X140120714Y-108047619D02*
X140168333Y-108142857D01*
X140168333Y-108142857D02*
X140168333Y-108285714D01*
X140168333Y-108285714D02*
X140120714Y-108380952D01*
X140120714Y-108380952D02*
X140073095Y-108428571D01*
X140073095Y-108428571D02*
X139977857Y-108476190D01*
X139977857Y-108476190D02*
X139596905Y-108476190D01*
X140501667Y-107952380D02*
X141168333Y-107952380D01*
X141168333Y-107952380D02*
X140739762Y-108952380D01*
%TO.C,R2*%
X148322380Y-88431666D02*
X147846190Y-88764999D01*
X148322380Y-89003094D02*
X147322380Y-89003094D01*
X147322380Y-89003094D02*
X147322380Y-88622142D01*
X147322380Y-88622142D02*
X147370000Y-88526904D01*
X147370000Y-88526904D02*
X147417619Y-88479285D01*
X147417619Y-88479285D02*
X147512857Y-88431666D01*
X147512857Y-88431666D02*
X147655714Y-88431666D01*
X147655714Y-88431666D02*
X147750952Y-88479285D01*
X147750952Y-88479285D02*
X147798571Y-88526904D01*
X147798571Y-88526904D02*
X147846190Y-88622142D01*
X147846190Y-88622142D02*
X147846190Y-89003094D01*
X147417619Y-88050713D02*
X147370000Y-88003094D01*
X147370000Y-88003094D02*
X147322380Y-87907856D01*
X147322380Y-87907856D02*
X147322380Y-87669761D01*
X147322380Y-87669761D02*
X147370000Y-87574523D01*
X147370000Y-87574523D02*
X147417619Y-87526904D01*
X147417619Y-87526904D02*
X147512857Y-87479285D01*
X147512857Y-87479285D02*
X147608095Y-87479285D01*
X147608095Y-87479285D02*
X147750952Y-87526904D01*
X147750952Y-87526904D02*
X148322380Y-88098332D01*
X148322380Y-88098332D02*
X148322380Y-87479285D01*
%TO.C,Y1*%
X154196190Y-94233690D02*
X154672380Y-94233690D01*
X153672380Y-94567023D02*
X154196190Y-94233690D01*
X154196190Y-94233690D02*
X153672380Y-93900357D01*
X154672380Y-93043214D02*
X154672380Y-93614642D01*
X154672380Y-93328928D02*
X153672380Y-93328928D01*
X153672380Y-93328928D02*
X153815238Y-93424166D01*
X153815238Y-93424166D02*
X153910476Y-93519404D01*
X153910476Y-93519404D02*
X153958095Y-93614642D01*
%TO.C,R4*%
X150862380Y-88431666D02*
X150386190Y-88764999D01*
X150862380Y-89003094D02*
X149862380Y-89003094D01*
X149862380Y-89003094D02*
X149862380Y-88622142D01*
X149862380Y-88622142D02*
X149910000Y-88526904D01*
X149910000Y-88526904D02*
X149957619Y-88479285D01*
X149957619Y-88479285D02*
X150052857Y-88431666D01*
X150052857Y-88431666D02*
X150195714Y-88431666D01*
X150195714Y-88431666D02*
X150290952Y-88479285D01*
X150290952Y-88479285D02*
X150338571Y-88526904D01*
X150338571Y-88526904D02*
X150386190Y-88622142D01*
X150386190Y-88622142D02*
X150386190Y-89003094D01*
X150195714Y-87574523D02*
X150862380Y-87574523D01*
X149814761Y-87812618D02*
X150529047Y-88050713D01*
X150529047Y-88050713D02*
X150529047Y-87431666D01*
%TO.C,C1*%
X143978333Y-114339642D02*
X143930714Y-114387261D01*
X143930714Y-114387261D02*
X143787857Y-114434880D01*
X143787857Y-114434880D02*
X143692619Y-114434880D01*
X143692619Y-114434880D02*
X143549762Y-114387261D01*
X143549762Y-114387261D02*
X143454524Y-114292023D01*
X143454524Y-114292023D02*
X143406905Y-114196785D01*
X143406905Y-114196785D02*
X143359286Y-114006309D01*
X143359286Y-114006309D02*
X143359286Y-113863452D01*
X143359286Y-113863452D02*
X143406905Y-113672976D01*
X143406905Y-113672976D02*
X143454524Y-113577738D01*
X143454524Y-113577738D02*
X143549762Y-113482500D01*
X143549762Y-113482500D02*
X143692619Y-113434880D01*
X143692619Y-113434880D02*
X143787857Y-113434880D01*
X143787857Y-113434880D02*
X143930714Y-113482500D01*
X143930714Y-113482500D02*
X143978333Y-113530119D01*
X144930714Y-114434880D02*
X144359286Y-114434880D01*
X144645000Y-114434880D02*
X144645000Y-113434880D01*
X144645000Y-113434880D02*
X144549762Y-113577738D01*
X144549762Y-113577738D02*
X144454524Y-113672976D01*
X144454524Y-113672976D02*
X144359286Y-113720595D01*
%TO.C,U2*%
X149733095Y-100332380D02*
X149733095Y-101141904D01*
X149733095Y-101141904D02*
X149780714Y-101237142D01*
X149780714Y-101237142D02*
X149828333Y-101284761D01*
X149828333Y-101284761D02*
X149923571Y-101332380D01*
X149923571Y-101332380D02*
X150114047Y-101332380D01*
X150114047Y-101332380D02*
X150209285Y-101284761D01*
X150209285Y-101284761D02*
X150256904Y-101237142D01*
X150256904Y-101237142D02*
X150304523Y-101141904D01*
X150304523Y-101141904D02*
X150304523Y-100332380D01*
X150733095Y-100427619D02*
X150780714Y-100380000D01*
X150780714Y-100380000D02*
X150875952Y-100332380D01*
X150875952Y-100332380D02*
X151114047Y-100332380D01*
X151114047Y-100332380D02*
X151209285Y-100380000D01*
X151209285Y-100380000D02*
X151256904Y-100427619D01*
X151256904Y-100427619D02*
X151304523Y-100522857D01*
X151304523Y-100522857D02*
X151304523Y-100618095D01*
X151304523Y-100618095D02*
X151256904Y-100760952D01*
X151256904Y-100760952D02*
X150685476Y-101332380D01*
X150685476Y-101332380D02*
X151304523Y-101332380D01*
%TO.C,RS-TX*%
X136892380Y-122927857D02*
X136416190Y-123261190D01*
X136892380Y-123499285D02*
X135892380Y-123499285D01*
X135892380Y-123499285D02*
X135892380Y-123118333D01*
X135892380Y-123118333D02*
X135940000Y-123023095D01*
X135940000Y-123023095D02*
X135987619Y-122975476D01*
X135987619Y-122975476D02*
X136082857Y-122927857D01*
X136082857Y-122927857D02*
X136225714Y-122927857D01*
X136225714Y-122927857D02*
X136320952Y-122975476D01*
X136320952Y-122975476D02*
X136368571Y-123023095D01*
X136368571Y-123023095D02*
X136416190Y-123118333D01*
X136416190Y-123118333D02*
X136416190Y-123499285D01*
X136844761Y-122546904D02*
X136892380Y-122404047D01*
X136892380Y-122404047D02*
X136892380Y-122165952D01*
X136892380Y-122165952D02*
X136844761Y-122070714D01*
X136844761Y-122070714D02*
X136797142Y-122023095D01*
X136797142Y-122023095D02*
X136701904Y-121975476D01*
X136701904Y-121975476D02*
X136606666Y-121975476D01*
X136606666Y-121975476D02*
X136511428Y-122023095D01*
X136511428Y-122023095D02*
X136463809Y-122070714D01*
X136463809Y-122070714D02*
X136416190Y-122165952D01*
X136416190Y-122165952D02*
X136368571Y-122356428D01*
X136368571Y-122356428D02*
X136320952Y-122451666D01*
X136320952Y-122451666D02*
X136273333Y-122499285D01*
X136273333Y-122499285D02*
X136178095Y-122546904D01*
X136178095Y-122546904D02*
X136082857Y-122546904D01*
X136082857Y-122546904D02*
X135987619Y-122499285D01*
X135987619Y-122499285D02*
X135940000Y-122451666D01*
X135940000Y-122451666D02*
X135892380Y-122356428D01*
X135892380Y-122356428D02*
X135892380Y-122118333D01*
X135892380Y-122118333D02*
X135940000Y-121975476D01*
X136511428Y-121546904D02*
X136511428Y-120785000D01*
X135892380Y-120451666D02*
X135892380Y-119880238D01*
X136892380Y-120165952D02*
X135892380Y-120165952D01*
X135892380Y-119642142D02*
X136892380Y-118975476D01*
X135892380Y-118975476D02*
X136892380Y-119642142D01*
D11*
%TO.C,RS-RX*%
X136892380Y-117966904D02*
X136416190Y-118300237D01*
X136892380Y-118538332D02*
X135892380Y-118538332D01*
X135892380Y-118538332D02*
X135892380Y-118157380D01*
X135892380Y-118157380D02*
X135940000Y-118062142D01*
X135940000Y-118062142D02*
X135987619Y-118014523D01*
X135987619Y-118014523D02*
X136082857Y-117966904D01*
X136082857Y-117966904D02*
X136225714Y-117966904D01*
X136225714Y-117966904D02*
X136320952Y-118014523D01*
X136320952Y-118014523D02*
X136368571Y-118062142D01*
X136368571Y-118062142D02*
X136416190Y-118157380D01*
X136416190Y-118157380D02*
X136416190Y-118538332D01*
X136844761Y-117585951D02*
X136892380Y-117443094D01*
X136892380Y-117443094D02*
X136892380Y-117204999D01*
X136892380Y-117204999D02*
X136844761Y-117109761D01*
X136844761Y-117109761D02*
X136797142Y-117062142D01*
X136797142Y-117062142D02*
X136701904Y-117014523D01*
X136701904Y-117014523D02*
X136606666Y-117014523D01*
X136606666Y-117014523D02*
X136511428Y-117062142D01*
X136511428Y-117062142D02*
X136463809Y-117109761D01*
X136463809Y-117109761D02*
X136416190Y-117204999D01*
X136416190Y-117204999D02*
X136368571Y-117395475D01*
X136368571Y-117395475D02*
X136320952Y-117490713D01*
X136320952Y-117490713D02*
X136273333Y-117538332D01*
X136273333Y-117538332D02*
X136178095Y-117585951D01*
X136178095Y-117585951D02*
X136082857Y-117585951D01*
X136082857Y-117585951D02*
X135987619Y-117538332D01*
X135987619Y-117538332D02*
X135940000Y-117490713D01*
X135940000Y-117490713D02*
X135892380Y-117395475D01*
X135892380Y-117395475D02*
X135892380Y-117157380D01*
X135892380Y-117157380D02*
X135940000Y-117014523D01*
X136511428Y-116585951D02*
X136511428Y-115824047D01*
X136892380Y-114776428D02*
X136416190Y-115109761D01*
X136892380Y-115347856D02*
X135892380Y-115347856D01*
X135892380Y-115347856D02*
X135892380Y-114966904D01*
X135892380Y-114966904D02*
X135940000Y-114871666D01*
X135940000Y-114871666D02*
X135987619Y-114824047D01*
X135987619Y-114824047D02*
X136082857Y-114776428D01*
X136082857Y-114776428D02*
X136225714Y-114776428D01*
X136225714Y-114776428D02*
X136320952Y-114824047D01*
X136320952Y-114824047D02*
X136368571Y-114871666D01*
X136368571Y-114871666D02*
X136416190Y-114966904D01*
X136416190Y-114966904D02*
X136416190Y-115347856D01*
X135892380Y-114443094D02*
X136892380Y-113776428D01*
X135892380Y-113776428D02*
X136892380Y-114443094D01*
D10*
%TO.C,C8*%
X150328333Y-108857142D02*
X150280714Y-108904761D01*
X150280714Y-108904761D02*
X150137857Y-108952380D01*
X150137857Y-108952380D02*
X150042619Y-108952380D01*
X150042619Y-108952380D02*
X149899762Y-108904761D01*
X149899762Y-108904761D02*
X149804524Y-108809523D01*
X149804524Y-108809523D02*
X149756905Y-108714285D01*
X149756905Y-108714285D02*
X149709286Y-108523809D01*
X149709286Y-108523809D02*
X149709286Y-108380952D01*
X149709286Y-108380952D02*
X149756905Y-108190476D01*
X149756905Y-108190476D02*
X149804524Y-108095238D01*
X149804524Y-108095238D02*
X149899762Y-108000000D01*
X149899762Y-108000000D02*
X150042619Y-107952380D01*
X150042619Y-107952380D02*
X150137857Y-107952380D01*
X150137857Y-107952380D02*
X150280714Y-108000000D01*
X150280714Y-108000000D02*
X150328333Y-108047619D01*
X150899762Y-108380952D02*
X150804524Y-108333333D01*
X150804524Y-108333333D02*
X150756905Y-108285714D01*
X150756905Y-108285714D02*
X150709286Y-108190476D01*
X150709286Y-108190476D02*
X150709286Y-108142857D01*
X150709286Y-108142857D02*
X150756905Y-108047619D01*
X150756905Y-108047619D02*
X150804524Y-108000000D01*
X150804524Y-108000000D02*
X150899762Y-107952380D01*
X150899762Y-107952380D02*
X151090238Y-107952380D01*
X151090238Y-107952380D02*
X151185476Y-108000000D01*
X151185476Y-108000000D02*
X151233095Y-108047619D01*
X151233095Y-108047619D02*
X151280714Y-108142857D01*
X151280714Y-108142857D02*
X151280714Y-108190476D01*
X151280714Y-108190476D02*
X151233095Y-108285714D01*
X151233095Y-108285714D02*
X151185476Y-108333333D01*
X151185476Y-108333333D02*
X151090238Y-108380952D01*
X151090238Y-108380952D02*
X150899762Y-108380952D01*
X150899762Y-108380952D02*
X150804524Y-108428571D01*
X150804524Y-108428571D02*
X150756905Y-108476190D01*
X150756905Y-108476190D02*
X150709286Y-108571428D01*
X150709286Y-108571428D02*
X150709286Y-108761904D01*
X150709286Y-108761904D02*
X150756905Y-108857142D01*
X150756905Y-108857142D02*
X150804524Y-108904761D01*
X150804524Y-108904761D02*
X150899762Y-108952380D01*
X150899762Y-108952380D02*
X151090238Y-108952380D01*
X151090238Y-108952380D02*
X151185476Y-108904761D01*
X151185476Y-108904761D02*
X151233095Y-108857142D01*
X151233095Y-108857142D02*
X151280714Y-108761904D01*
X151280714Y-108761904D02*
X151280714Y-108571428D01*
X151280714Y-108571428D02*
X151233095Y-108476190D01*
X151233095Y-108476190D02*
X151185476Y-108428571D01*
X151185476Y-108428571D02*
X151090238Y-108380952D01*
%TO.C,R1*%
X145782380Y-88431666D02*
X145306190Y-88764999D01*
X145782380Y-89003094D02*
X144782380Y-89003094D01*
X144782380Y-89003094D02*
X144782380Y-88622142D01*
X144782380Y-88622142D02*
X144830000Y-88526904D01*
X144830000Y-88526904D02*
X144877619Y-88479285D01*
X144877619Y-88479285D02*
X144972857Y-88431666D01*
X144972857Y-88431666D02*
X145115714Y-88431666D01*
X145115714Y-88431666D02*
X145210952Y-88479285D01*
X145210952Y-88479285D02*
X145258571Y-88526904D01*
X145258571Y-88526904D02*
X145306190Y-88622142D01*
X145306190Y-88622142D02*
X145306190Y-89003094D01*
X145782380Y-87479285D02*
X145782380Y-88050713D01*
X145782380Y-87764999D02*
X144782380Y-87764999D01*
X144782380Y-87764999D02*
X144925238Y-87860237D01*
X144925238Y-87860237D02*
X145020476Y-87955475D01*
X145020476Y-87955475D02*
X145068095Y-88050713D01*
%TO.C,C10*%
X155212142Y-87657857D02*
X155259761Y-87705476D01*
X155259761Y-87705476D02*
X155307380Y-87848333D01*
X155307380Y-87848333D02*
X155307380Y-87943571D01*
X155307380Y-87943571D02*
X155259761Y-88086428D01*
X155259761Y-88086428D02*
X155164523Y-88181666D01*
X155164523Y-88181666D02*
X155069285Y-88229285D01*
X155069285Y-88229285D02*
X154878809Y-88276904D01*
X154878809Y-88276904D02*
X154735952Y-88276904D01*
X154735952Y-88276904D02*
X154545476Y-88229285D01*
X154545476Y-88229285D02*
X154450238Y-88181666D01*
X154450238Y-88181666D02*
X154355000Y-88086428D01*
X154355000Y-88086428D02*
X154307380Y-87943571D01*
X154307380Y-87943571D02*
X154307380Y-87848333D01*
X154307380Y-87848333D02*
X154355000Y-87705476D01*
X154355000Y-87705476D02*
X154402619Y-87657857D01*
X155307380Y-86705476D02*
X155307380Y-87276904D01*
X155307380Y-86991190D02*
X154307380Y-86991190D01*
X154307380Y-86991190D02*
X154450238Y-87086428D01*
X154450238Y-87086428D02*
X154545476Y-87181666D01*
X154545476Y-87181666D02*
X154593095Y-87276904D01*
X154307380Y-86086428D02*
X154307380Y-85991190D01*
X154307380Y-85991190D02*
X154355000Y-85895952D01*
X154355000Y-85895952D02*
X154402619Y-85848333D01*
X154402619Y-85848333D02*
X154497857Y-85800714D01*
X154497857Y-85800714D02*
X154688333Y-85753095D01*
X154688333Y-85753095D02*
X154926428Y-85753095D01*
X154926428Y-85753095D02*
X155116904Y-85800714D01*
X155116904Y-85800714D02*
X155212142Y-85848333D01*
X155212142Y-85848333D02*
X155259761Y-85895952D01*
X155259761Y-85895952D02*
X155307380Y-85991190D01*
X155307380Y-85991190D02*
X155307380Y-86086428D01*
X155307380Y-86086428D02*
X155259761Y-86181666D01*
X155259761Y-86181666D02*
X155212142Y-86229285D01*
X155212142Y-86229285D02*
X155116904Y-86276904D01*
X155116904Y-86276904D02*
X154926428Y-86324523D01*
X154926428Y-86324523D02*
X154688333Y-86324523D01*
X154688333Y-86324523D02*
X154497857Y-86276904D01*
X154497857Y-86276904D02*
X154402619Y-86229285D01*
X154402619Y-86229285D02*
X154355000Y-86181666D01*
X154355000Y-86181666D02*
X154307380Y-86086428D01*
%TO.C,C7*%
X135088333Y-108857142D02*
X135040714Y-108904761D01*
X135040714Y-108904761D02*
X134897857Y-108952380D01*
X134897857Y-108952380D02*
X134802619Y-108952380D01*
X134802619Y-108952380D02*
X134659762Y-108904761D01*
X134659762Y-108904761D02*
X134564524Y-108809523D01*
X134564524Y-108809523D02*
X134516905Y-108714285D01*
X134516905Y-108714285D02*
X134469286Y-108523809D01*
X134469286Y-108523809D02*
X134469286Y-108380952D01*
X134469286Y-108380952D02*
X134516905Y-108190476D01*
X134516905Y-108190476D02*
X134564524Y-108095238D01*
X134564524Y-108095238D02*
X134659762Y-108000000D01*
X134659762Y-108000000D02*
X134802619Y-107952380D01*
X134802619Y-107952380D02*
X134897857Y-107952380D01*
X134897857Y-107952380D02*
X135040714Y-108000000D01*
X135040714Y-108000000D02*
X135088333Y-108047619D01*
X135421667Y-107952380D02*
X136088333Y-107952380D01*
X136088333Y-107952380D02*
X135659762Y-108952380D01*
%TO.C,R5*%
X142708333Y-108952380D02*
X142375000Y-108476190D01*
X142136905Y-108952380D02*
X142136905Y-107952380D01*
X142136905Y-107952380D02*
X142517857Y-107952380D01*
X142517857Y-107952380D02*
X142613095Y-108000000D01*
X142613095Y-108000000D02*
X142660714Y-108047619D01*
X142660714Y-108047619D02*
X142708333Y-108142857D01*
X142708333Y-108142857D02*
X142708333Y-108285714D01*
X142708333Y-108285714D02*
X142660714Y-108380952D01*
X142660714Y-108380952D02*
X142613095Y-108428571D01*
X142613095Y-108428571D02*
X142517857Y-108476190D01*
X142517857Y-108476190D02*
X142136905Y-108476190D01*
X143613095Y-107952380D02*
X143136905Y-107952380D01*
X143136905Y-107952380D02*
X143089286Y-108428571D01*
X143089286Y-108428571D02*
X143136905Y-108380952D01*
X143136905Y-108380952D02*
X143232143Y-108333333D01*
X143232143Y-108333333D02*
X143470238Y-108333333D01*
X143470238Y-108333333D02*
X143565476Y-108380952D01*
X143565476Y-108380952D02*
X143613095Y-108428571D01*
X143613095Y-108428571D02*
X143660714Y-108523809D01*
X143660714Y-108523809D02*
X143660714Y-108761904D01*
X143660714Y-108761904D02*
X143613095Y-108857142D01*
X143613095Y-108857142D02*
X143565476Y-108904761D01*
X143565476Y-108904761D02*
X143470238Y-108952380D01*
X143470238Y-108952380D02*
X143232143Y-108952380D01*
X143232143Y-108952380D02*
X143136905Y-108904761D01*
X143136905Y-108904761D02*
X143089286Y-108857142D01*
%TO.C,R6*%
X145248333Y-108952380D02*
X144915000Y-108476190D01*
X144676905Y-108952380D02*
X144676905Y-107952380D01*
X144676905Y-107952380D02*
X145057857Y-107952380D01*
X145057857Y-107952380D02*
X145153095Y-108000000D01*
X145153095Y-108000000D02*
X145200714Y-108047619D01*
X145200714Y-108047619D02*
X145248333Y-108142857D01*
X145248333Y-108142857D02*
X145248333Y-108285714D01*
X145248333Y-108285714D02*
X145200714Y-108380952D01*
X145200714Y-108380952D02*
X145153095Y-108428571D01*
X145153095Y-108428571D02*
X145057857Y-108476190D01*
X145057857Y-108476190D02*
X144676905Y-108476190D01*
X146105476Y-107952380D02*
X145915000Y-107952380D01*
X145915000Y-107952380D02*
X145819762Y-108000000D01*
X145819762Y-108000000D02*
X145772143Y-108047619D01*
X145772143Y-108047619D02*
X145676905Y-108190476D01*
X145676905Y-108190476D02*
X145629286Y-108380952D01*
X145629286Y-108380952D02*
X145629286Y-108761904D01*
X145629286Y-108761904D02*
X145676905Y-108857142D01*
X145676905Y-108857142D02*
X145724524Y-108904761D01*
X145724524Y-108904761D02*
X145819762Y-108952380D01*
X145819762Y-108952380D02*
X146010238Y-108952380D01*
X146010238Y-108952380D02*
X146105476Y-108904761D01*
X146105476Y-108904761D02*
X146153095Y-108857142D01*
X146153095Y-108857142D02*
X146200714Y-108761904D01*
X146200714Y-108761904D02*
X146200714Y-108523809D01*
X146200714Y-108523809D02*
X146153095Y-108428571D01*
X146153095Y-108428571D02*
X146105476Y-108380952D01*
X146105476Y-108380952D02*
X146010238Y-108333333D01*
X146010238Y-108333333D02*
X145819762Y-108333333D01*
X145819762Y-108333333D02*
X145724524Y-108380952D01*
X145724524Y-108380952D02*
X145676905Y-108428571D01*
X145676905Y-108428571D02*
X145629286Y-108523809D01*
%TO.C,C3*%
X141438333Y-114339642D02*
X141390714Y-114387261D01*
X141390714Y-114387261D02*
X141247857Y-114434880D01*
X141247857Y-114434880D02*
X141152619Y-114434880D01*
X141152619Y-114434880D02*
X141009762Y-114387261D01*
X141009762Y-114387261D02*
X140914524Y-114292023D01*
X140914524Y-114292023D02*
X140866905Y-114196785D01*
X140866905Y-114196785D02*
X140819286Y-114006309D01*
X140819286Y-114006309D02*
X140819286Y-113863452D01*
X140819286Y-113863452D02*
X140866905Y-113672976D01*
X140866905Y-113672976D02*
X140914524Y-113577738D01*
X140914524Y-113577738D02*
X141009762Y-113482500D01*
X141009762Y-113482500D02*
X141152619Y-113434880D01*
X141152619Y-113434880D02*
X141247857Y-113434880D01*
X141247857Y-113434880D02*
X141390714Y-113482500D01*
X141390714Y-113482500D02*
X141438333Y-113530119D01*
X141771667Y-113434880D02*
X142390714Y-113434880D01*
X142390714Y-113434880D02*
X142057381Y-113815833D01*
X142057381Y-113815833D02*
X142200238Y-113815833D01*
X142200238Y-113815833D02*
X142295476Y-113863452D01*
X142295476Y-113863452D02*
X142343095Y-113911071D01*
X142343095Y-113911071D02*
X142390714Y-114006309D01*
X142390714Y-114006309D02*
X142390714Y-114244404D01*
X142390714Y-114244404D02*
X142343095Y-114339642D01*
X142343095Y-114339642D02*
X142295476Y-114387261D01*
X142295476Y-114387261D02*
X142200238Y-114434880D01*
X142200238Y-114434880D02*
X141914524Y-114434880D01*
X141914524Y-114434880D02*
X141819286Y-114387261D01*
X141819286Y-114387261D02*
X141771667Y-114339642D01*
%TO.C,SW4*%
X147891667Y-74614761D02*
X148034524Y-74662380D01*
X148034524Y-74662380D02*
X148272619Y-74662380D01*
X148272619Y-74662380D02*
X148367857Y-74614761D01*
X148367857Y-74614761D02*
X148415476Y-74567142D01*
X148415476Y-74567142D02*
X148463095Y-74471904D01*
X148463095Y-74471904D02*
X148463095Y-74376666D01*
X148463095Y-74376666D02*
X148415476Y-74281428D01*
X148415476Y-74281428D02*
X148367857Y-74233809D01*
X148367857Y-74233809D02*
X148272619Y-74186190D01*
X148272619Y-74186190D02*
X148082143Y-74138571D01*
X148082143Y-74138571D02*
X147986905Y-74090952D01*
X147986905Y-74090952D02*
X147939286Y-74043333D01*
X147939286Y-74043333D02*
X147891667Y-73948095D01*
X147891667Y-73948095D02*
X147891667Y-73852857D01*
X147891667Y-73852857D02*
X147939286Y-73757619D01*
X147939286Y-73757619D02*
X147986905Y-73710000D01*
X147986905Y-73710000D02*
X148082143Y-73662380D01*
X148082143Y-73662380D02*
X148320238Y-73662380D01*
X148320238Y-73662380D02*
X148463095Y-73710000D01*
X148796429Y-73662380D02*
X149034524Y-74662380D01*
X149034524Y-74662380D02*
X149225000Y-73948095D01*
X149225000Y-73948095D02*
X149415476Y-74662380D01*
X149415476Y-74662380D02*
X149653572Y-73662380D01*
X150463095Y-73995714D02*
X150463095Y-74662380D01*
X150225000Y-73614761D02*
X149986905Y-74329047D01*
X149986905Y-74329047D02*
X150605952Y-74329047D01*
%TO.C,C4*%
X138898333Y-114339642D02*
X138850714Y-114387261D01*
X138850714Y-114387261D02*
X138707857Y-114434880D01*
X138707857Y-114434880D02*
X138612619Y-114434880D01*
X138612619Y-114434880D02*
X138469762Y-114387261D01*
X138469762Y-114387261D02*
X138374524Y-114292023D01*
X138374524Y-114292023D02*
X138326905Y-114196785D01*
X138326905Y-114196785D02*
X138279286Y-114006309D01*
X138279286Y-114006309D02*
X138279286Y-113863452D01*
X138279286Y-113863452D02*
X138326905Y-113672976D01*
X138326905Y-113672976D02*
X138374524Y-113577738D01*
X138374524Y-113577738D02*
X138469762Y-113482500D01*
X138469762Y-113482500D02*
X138612619Y-113434880D01*
X138612619Y-113434880D02*
X138707857Y-113434880D01*
X138707857Y-113434880D02*
X138850714Y-113482500D01*
X138850714Y-113482500D02*
X138898333Y-113530119D01*
X139755476Y-113768214D02*
X139755476Y-114434880D01*
X139517381Y-113387261D02*
X139279286Y-114101547D01*
X139279286Y-114101547D02*
X139898333Y-114101547D01*
%TO.C,C5*%
X137628333Y-108857142D02*
X137580714Y-108904761D01*
X137580714Y-108904761D02*
X137437857Y-108952380D01*
X137437857Y-108952380D02*
X137342619Y-108952380D01*
X137342619Y-108952380D02*
X137199762Y-108904761D01*
X137199762Y-108904761D02*
X137104524Y-108809523D01*
X137104524Y-108809523D02*
X137056905Y-108714285D01*
X137056905Y-108714285D02*
X137009286Y-108523809D01*
X137009286Y-108523809D02*
X137009286Y-108380952D01*
X137009286Y-108380952D02*
X137056905Y-108190476D01*
X137056905Y-108190476D02*
X137104524Y-108095238D01*
X137104524Y-108095238D02*
X137199762Y-108000000D01*
X137199762Y-108000000D02*
X137342619Y-107952380D01*
X137342619Y-107952380D02*
X137437857Y-107952380D01*
X137437857Y-107952380D02*
X137580714Y-108000000D01*
X137580714Y-108000000D02*
X137628333Y-108047619D01*
X138533095Y-107952380D02*
X138056905Y-107952380D01*
X138056905Y-107952380D02*
X138009286Y-108428571D01*
X138009286Y-108428571D02*
X138056905Y-108380952D01*
X138056905Y-108380952D02*
X138152143Y-108333333D01*
X138152143Y-108333333D02*
X138390238Y-108333333D01*
X138390238Y-108333333D02*
X138485476Y-108380952D01*
X138485476Y-108380952D02*
X138533095Y-108428571D01*
X138533095Y-108428571D02*
X138580714Y-108523809D01*
X138580714Y-108523809D02*
X138580714Y-108761904D01*
X138580714Y-108761904D02*
X138533095Y-108857142D01*
X138533095Y-108857142D02*
X138485476Y-108904761D01*
X138485476Y-108904761D02*
X138390238Y-108952380D01*
X138390238Y-108952380D02*
X138152143Y-108952380D01*
X138152143Y-108952380D02*
X138056905Y-108904761D01*
X138056905Y-108904761D02*
X138009286Y-108857142D01*
%TO.C,C9*%
X155212142Y-100686666D02*
X155259761Y-100734285D01*
X155259761Y-100734285D02*
X155307380Y-100877142D01*
X155307380Y-100877142D02*
X155307380Y-100972380D01*
X155307380Y-100972380D02*
X155259761Y-101115237D01*
X155259761Y-101115237D02*
X155164523Y-101210475D01*
X155164523Y-101210475D02*
X155069285Y-101258094D01*
X155069285Y-101258094D02*
X154878809Y-101305713D01*
X154878809Y-101305713D02*
X154735952Y-101305713D01*
X154735952Y-101305713D02*
X154545476Y-101258094D01*
X154545476Y-101258094D02*
X154450238Y-101210475D01*
X154450238Y-101210475D02*
X154355000Y-101115237D01*
X154355000Y-101115237D02*
X154307380Y-100972380D01*
X154307380Y-100972380D02*
X154307380Y-100877142D01*
X154307380Y-100877142D02*
X154355000Y-100734285D01*
X154355000Y-100734285D02*
X154402619Y-100686666D01*
X155307380Y-100210475D02*
X155307380Y-100019999D01*
X155307380Y-100019999D02*
X155259761Y-99924761D01*
X155259761Y-99924761D02*
X155212142Y-99877142D01*
X155212142Y-99877142D02*
X155069285Y-99781904D01*
X155069285Y-99781904D02*
X154878809Y-99734285D01*
X154878809Y-99734285D02*
X154497857Y-99734285D01*
X154497857Y-99734285D02*
X154402619Y-99781904D01*
X154402619Y-99781904D02*
X154355000Y-99829523D01*
X154355000Y-99829523D02*
X154307380Y-99924761D01*
X154307380Y-99924761D02*
X154307380Y-100115237D01*
X154307380Y-100115237D02*
X154355000Y-100210475D01*
X154355000Y-100210475D02*
X154402619Y-100258094D01*
X154402619Y-100258094D02*
X154497857Y-100305713D01*
X154497857Y-100305713D02*
X154735952Y-100305713D01*
X154735952Y-100305713D02*
X154831190Y-100258094D01*
X154831190Y-100258094D02*
X154878809Y-100210475D01*
X154878809Y-100210475D02*
X154926428Y-100115237D01*
X154926428Y-100115237D02*
X154926428Y-99924761D01*
X154926428Y-99924761D02*
X154878809Y-99829523D01*
X154878809Y-99829523D02*
X154831190Y-99781904D01*
X154831190Y-99781904D02*
X154735952Y-99734285D01*
%TO.C,J3*%
X159051666Y-104352380D02*
X159051666Y-105066666D01*
X159051666Y-105066666D02*
X159004047Y-105209523D01*
X159004047Y-105209523D02*
X158908809Y-105304761D01*
X158908809Y-105304761D02*
X158765952Y-105352380D01*
X158765952Y-105352380D02*
X158670714Y-105352380D01*
X159432619Y-104352380D02*
X160051666Y-104352380D01*
X160051666Y-104352380D02*
X159718333Y-104733333D01*
X159718333Y-104733333D02*
X159861190Y-104733333D01*
X159861190Y-104733333D02*
X159956428Y-104780952D01*
X159956428Y-104780952D02*
X160004047Y-104828571D01*
X160004047Y-104828571D02*
X160051666Y-104923809D01*
X160051666Y-104923809D02*
X160051666Y-105161904D01*
X160051666Y-105161904D02*
X160004047Y-105257142D01*
X160004047Y-105257142D02*
X159956428Y-105304761D01*
X159956428Y-105304761D02*
X159861190Y-105352380D01*
X159861190Y-105352380D02*
X159575476Y-105352380D01*
X159575476Y-105352380D02*
X159480238Y-105304761D01*
X159480238Y-105304761D02*
X159432619Y-105257142D01*
%TO.C,C6*%
X149058333Y-114339642D02*
X149010714Y-114387261D01*
X149010714Y-114387261D02*
X148867857Y-114434880D01*
X148867857Y-114434880D02*
X148772619Y-114434880D01*
X148772619Y-114434880D02*
X148629762Y-114387261D01*
X148629762Y-114387261D02*
X148534524Y-114292023D01*
X148534524Y-114292023D02*
X148486905Y-114196785D01*
X148486905Y-114196785D02*
X148439286Y-114006309D01*
X148439286Y-114006309D02*
X148439286Y-113863452D01*
X148439286Y-113863452D02*
X148486905Y-113672976D01*
X148486905Y-113672976D02*
X148534524Y-113577738D01*
X148534524Y-113577738D02*
X148629762Y-113482500D01*
X148629762Y-113482500D02*
X148772619Y-113434880D01*
X148772619Y-113434880D02*
X148867857Y-113434880D01*
X148867857Y-113434880D02*
X149010714Y-113482500D01*
X149010714Y-113482500D02*
X149058333Y-113530119D01*
X149915476Y-113434880D02*
X149725000Y-113434880D01*
X149725000Y-113434880D02*
X149629762Y-113482500D01*
X149629762Y-113482500D02*
X149582143Y-113530119D01*
X149582143Y-113530119D02*
X149486905Y-113672976D01*
X149486905Y-113672976D02*
X149439286Y-113863452D01*
X149439286Y-113863452D02*
X149439286Y-114244404D01*
X149439286Y-114244404D02*
X149486905Y-114339642D01*
X149486905Y-114339642D02*
X149534524Y-114387261D01*
X149534524Y-114387261D02*
X149629762Y-114434880D01*
X149629762Y-114434880D02*
X149820238Y-114434880D01*
X149820238Y-114434880D02*
X149915476Y-114387261D01*
X149915476Y-114387261D02*
X149963095Y-114339642D01*
X149963095Y-114339642D02*
X150010714Y-114244404D01*
X150010714Y-114244404D02*
X150010714Y-114006309D01*
X150010714Y-114006309D02*
X149963095Y-113911071D01*
X149963095Y-113911071D02*
X149915476Y-113863452D01*
X149915476Y-113863452D02*
X149820238Y-113815833D01*
X149820238Y-113815833D02*
X149629762Y-113815833D01*
X149629762Y-113815833D02*
X149534524Y-113863452D01*
X149534524Y-113863452D02*
X149486905Y-113911071D01*
X149486905Y-113911071D02*
X149439286Y-114006309D01*
%TO.C,GND*%
X135940000Y-112521904D02*
X135892380Y-112617142D01*
X135892380Y-112617142D02*
X135892380Y-112759999D01*
X135892380Y-112759999D02*
X135940000Y-112902856D01*
X135940000Y-112902856D02*
X136035238Y-112998094D01*
X136035238Y-112998094D02*
X136130476Y-113045713D01*
X136130476Y-113045713D02*
X136320952Y-113093332D01*
X136320952Y-113093332D02*
X136463809Y-113093332D01*
X136463809Y-113093332D02*
X136654285Y-113045713D01*
X136654285Y-113045713D02*
X136749523Y-112998094D01*
X136749523Y-112998094D02*
X136844761Y-112902856D01*
X136844761Y-112902856D02*
X136892380Y-112759999D01*
X136892380Y-112759999D02*
X136892380Y-112664761D01*
X136892380Y-112664761D02*
X136844761Y-112521904D01*
X136844761Y-112521904D02*
X136797142Y-112474285D01*
X136797142Y-112474285D02*
X136463809Y-112474285D01*
X136463809Y-112474285D02*
X136463809Y-112664761D01*
X136892380Y-112045713D02*
X135892380Y-112045713D01*
X135892380Y-112045713D02*
X136892380Y-111474285D01*
X136892380Y-111474285D02*
X135892380Y-111474285D01*
X136892380Y-110998094D02*
X135892380Y-110998094D01*
X135892380Y-110998094D02*
X135892380Y-110759999D01*
X135892380Y-110759999D02*
X135940000Y-110617142D01*
X135940000Y-110617142D02*
X136035238Y-110521904D01*
X136035238Y-110521904D02*
X136130476Y-110474285D01*
X136130476Y-110474285D02*
X136320952Y-110426666D01*
X136320952Y-110426666D02*
X136463809Y-110426666D01*
X136463809Y-110426666D02*
X136654285Y-110474285D01*
X136654285Y-110474285D02*
X136749523Y-110521904D01*
X136749523Y-110521904D02*
X136844761Y-110617142D01*
X136844761Y-110617142D02*
X136892380Y-110759999D01*
X136892380Y-110759999D02*
X136892380Y-110998094D01*
X156847380Y-112585476D02*
X156847380Y-113061666D01*
X156847380Y-113061666D02*
X157323571Y-113109285D01*
X157323571Y-113109285D02*
X157275952Y-113061666D01*
X157275952Y-113061666D02*
X157228333Y-112966428D01*
X157228333Y-112966428D02*
X157228333Y-112728333D01*
X157228333Y-112728333D02*
X157275952Y-112633095D01*
X157275952Y-112633095D02*
X157323571Y-112585476D01*
X157323571Y-112585476D02*
X157418809Y-112537857D01*
X157418809Y-112537857D02*
X157656904Y-112537857D01*
X157656904Y-112537857D02*
X157752142Y-112585476D01*
X157752142Y-112585476D02*
X157799761Y-112633095D01*
X157799761Y-112633095D02*
X157847380Y-112728333D01*
X157847380Y-112728333D02*
X157847380Y-112966428D01*
X157847380Y-112966428D02*
X157799761Y-113061666D01*
X157799761Y-113061666D02*
X157752142Y-113109285D01*
X156847380Y-112252142D02*
X157847380Y-111918809D01*
X157847380Y-111918809D02*
X156847380Y-111585476D01*
X149669523Y-123827380D02*
X149193333Y-123827380D01*
X149193333Y-123827380D02*
X149145714Y-124303571D01*
X149145714Y-124303571D02*
X149193333Y-124255952D01*
X149193333Y-124255952D02*
X149288571Y-124208333D01*
X149288571Y-124208333D02*
X149526666Y-124208333D01*
X149526666Y-124208333D02*
X149621904Y-124255952D01*
X149621904Y-124255952D02*
X149669523Y-124303571D01*
X149669523Y-124303571D02*
X149717142Y-124398809D01*
X149717142Y-124398809D02*
X149717142Y-124636904D01*
X149717142Y-124636904D02*
X149669523Y-124732142D01*
X149669523Y-124732142D02*
X149621904Y-124779761D01*
X149621904Y-124779761D02*
X149526666Y-124827380D01*
X149526666Y-124827380D02*
X149288571Y-124827380D01*
X149288571Y-124827380D02*
X149193333Y-124779761D01*
X149193333Y-124779761D02*
X149145714Y-124732142D01*
X150002857Y-123827380D02*
X150336190Y-124827380D01*
X150336190Y-124827380D02*
X150669523Y-123827380D01*
X158117380Y-64944048D02*
X158831666Y-64944048D01*
X158831666Y-64944048D02*
X158974523Y-64991667D01*
X158974523Y-64991667D02*
X159069761Y-65086905D01*
X159069761Y-65086905D02*
X159117380Y-65229762D01*
X159117380Y-65229762D02*
X159117380Y-65325000D01*
X159117380Y-63991667D02*
X159117380Y-64467857D01*
X159117380Y-64467857D02*
X158117380Y-64467857D01*
X159022142Y-63086905D02*
X159069761Y-63134524D01*
X159069761Y-63134524D02*
X159117380Y-63277381D01*
X159117380Y-63277381D02*
X159117380Y-63372619D01*
X159117380Y-63372619D02*
X159069761Y-63515476D01*
X159069761Y-63515476D02*
X158974523Y-63610714D01*
X158974523Y-63610714D02*
X158879285Y-63658333D01*
X158879285Y-63658333D02*
X158688809Y-63705952D01*
X158688809Y-63705952D02*
X158545952Y-63705952D01*
X158545952Y-63705952D02*
X158355476Y-63658333D01*
X158355476Y-63658333D02*
X158260238Y-63610714D01*
X158260238Y-63610714D02*
X158165000Y-63515476D01*
X158165000Y-63515476D02*
X158117380Y-63372619D01*
X158117380Y-63372619D02*
X158117380Y-63277381D01*
X158117380Y-63277381D02*
X158165000Y-63134524D01*
X158165000Y-63134524D02*
X158212619Y-63086905D01*
X158117380Y-62372619D02*
X158831666Y-62372619D01*
X158831666Y-62372619D02*
X158974523Y-62420238D01*
X158974523Y-62420238D02*
X159069761Y-62515476D01*
X159069761Y-62515476D02*
X159117380Y-62658333D01*
X159117380Y-62658333D02*
X159117380Y-62753571D01*
X159117380Y-61420238D02*
X159117380Y-61896428D01*
X159117380Y-61896428D02*
X158117380Y-61896428D01*
X159022142Y-60515476D02*
X159069761Y-60563095D01*
X159069761Y-60563095D02*
X159117380Y-60705952D01*
X159117380Y-60705952D02*
X159117380Y-60801190D01*
X159117380Y-60801190D02*
X159069761Y-60944047D01*
X159069761Y-60944047D02*
X158974523Y-61039285D01*
X158974523Y-61039285D02*
X158879285Y-61086904D01*
X158879285Y-61086904D02*
X158688809Y-61134523D01*
X158688809Y-61134523D02*
X158545952Y-61134523D01*
X158545952Y-61134523D02*
X158355476Y-61086904D01*
X158355476Y-61086904D02*
X158260238Y-61039285D01*
X158260238Y-61039285D02*
X158165000Y-60944047D01*
X158165000Y-60944047D02*
X158117380Y-60801190D01*
X158117380Y-60801190D02*
X158117380Y-60705952D01*
X158117380Y-60705952D02*
X158165000Y-60563095D01*
X158165000Y-60563095D02*
X158212619Y-60515476D01*
X158117380Y-59801190D02*
X158831666Y-59801190D01*
X158831666Y-59801190D02*
X158974523Y-59848809D01*
X158974523Y-59848809D02*
X159069761Y-59944047D01*
X159069761Y-59944047D02*
X159117380Y-60086904D01*
X159117380Y-60086904D02*
X159117380Y-60182142D01*
X159117380Y-58848809D02*
X159117380Y-59324999D01*
X159117380Y-59324999D02*
X158117380Y-59324999D01*
X159022142Y-57944047D02*
X159069761Y-57991666D01*
X159069761Y-57991666D02*
X159117380Y-58134523D01*
X159117380Y-58134523D02*
X159117380Y-58229761D01*
X159117380Y-58229761D02*
X159069761Y-58372618D01*
X159069761Y-58372618D02*
X158974523Y-58467856D01*
X158974523Y-58467856D02*
X158879285Y-58515475D01*
X158879285Y-58515475D02*
X158688809Y-58563094D01*
X158688809Y-58563094D02*
X158545952Y-58563094D01*
X158545952Y-58563094D02*
X158355476Y-58515475D01*
X158355476Y-58515475D02*
X158260238Y-58467856D01*
X158260238Y-58467856D02*
X158165000Y-58372618D01*
X158165000Y-58372618D02*
X158117380Y-58229761D01*
X158117380Y-58229761D02*
X158117380Y-58134523D01*
X158117380Y-58134523D02*
X158165000Y-57991666D01*
X158165000Y-57991666D02*
X158212619Y-57944047D01*
X158117380Y-57229761D02*
X158831666Y-57229761D01*
X158831666Y-57229761D02*
X158974523Y-57277380D01*
X158974523Y-57277380D02*
X159069761Y-57372618D01*
X159069761Y-57372618D02*
X159117380Y-57515475D01*
X159117380Y-57515475D02*
X159117380Y-57610713D01*
X159117380Y-56277380D02*
X159117380Y-56753570D01*
X159117380Y-56753570D02*
X158117380Y-56753570D01*
X159022142Y-55372618D02*
X159069761Y-55420237D01*
X159069761Y-55420237D02*
X159117380Y-55563094D01*
X159117380Y-55563094D02*
X159117380Y-55658332D01*
X159117380Y-55658332D02*
X159069761Y-55801189D01*
X159069761Y-55801189D02*
X158974523Y-55896427D01*
X158974523Y-55896427D02*
X158879285Y-55944046D01*
X158879285Y-55944046D02*
X158688809Y-55991665D01*
X158688809Y-55991665D02*
X158545952Y-55991665D01*
X158545952Y-55991665D02*
X158355476Y-55944046D01*
X158355476Y-55944046D02*
X158260238Y-55896427D01*
X158260238Y-55896427D02*
X158165000Y-55801189D01*
X158165000Y-55801189D02*
X158117380Y-55658332D01*
X158117380Y-55658332D02*
X158117380Y-55563094D01*
X158117380Y-55563094D02*
X158165000Y-55420237D01*
X158165000Y-55420237D02*
X158212619Y-55372618D01*
X135763095Y-123827380D02*
X136334523Y-123827380D01*
X136048809Y-124827380D02*
X136048809Y-123827380D01*
X136572619Y-123827380D02*
X137239285Y-124827380D01*
X137239285Y-123827380D02*
X136572619Y-124827380D01*
X157847380Y-120562619D02*
X157371190Y-120895952D01*
X157847380Y-121134047D02*
X156847380Y-121134047D01*
X156847380Y-121134047D02*
X156847380Y-120753095D01*
X156847380Y-120753095D02*
X156895000Y-120657857D01*
X156895000Y-120657857D02*
X156942619Y-120610238D01*
X156942619Y-120610238D02*
X157037857Y-120562619D01*
X157037857Y-120562619D02*
X157180714Y-120562619D01*
X157180714Y-120562619D02*
X157275952Y-120610238D01*
X157275952Y-120610238D02*
X157323571Y-120657857D01*
X157323571Y-120657857D02*
X157371190Y-120753095D01*
X157371190Y-120753095D02*
X157371190Y-121134047D01*
X157799761Y-120181666D02*
X157847380Y-120038809D01*
X157847380Y-120038809D02*
X157847380Y-119800714D01*
X157847380Y-119800714D02*
X157799761Y-119705476D01*
X157799761Y-119705476D02*
X157752142Y-119657857D01*
X157752142Y-119657857D02*
X157656904Y-119610238D01*
X157656904Y-119610238D02*
X157561666Y-119610238D01*
X157561666Y-119610238D02*
X157466428Y-119657857D01*
X157466428Y-119657857D02*
X157418809Y-119705476D01*
X157418809Y-119705476D02*
X157371190Y-119800714D01*
X157371190Y-119800714D02*
X157323571Y-119991190D01*
X157323571Y-119991190D02*
X157275952Y-120086428D01*
X157275952Y-120086428D02*
X157228333Y-120134047D01*
X157228333Y-120134047D02*
X157133095Y-120181666D01*
X157133095Y-120181666D02*
X157037857Y-120181666D01*
X157037857Y-120181666D02*
X156942619Y-120134047D01*
X156942619Y-120134047D02*
X156895000Y-120086428D01*
X156895000Y-120086428D02*
X156847380Y-119991190D01*
X156847380Y-119991190D02*
X156847380Y-119753095D01*
X156847380Y-119753095D02*
X156895000Y-119610238D01*
X156847380Y-119324523D02*
X156847380Y-118753095D01*
X157847380Y-119038809D02*
X156847380Y-119038809D01*
X130542380Y-123258095D02*
X129542380Y-123258095D01*
X129542380Y-123258095D02*
X129542380Y-122877143D01*
X129542380Y-122877143D02*
X129590000Y-122781905D01*
X129590000Y-122781905D02*
X129637619Y-122734286D01*
X129637619Y-122734286D02*
X129732857Y-122686667D01*
X129732857Y-122686667D02*
X129875714Y-122686667D01*
X129875714Y-122686667D02*
X129970952Y-122734286D01*
X129970952Y-122734286D02*
X130018571Y-122781905D01*
X130018571Y-122781905D02*
X130066190Y-122877143D01*
X130066190Y-122877143D02*
X130066190Y-123258095D01*
X130542380Y-122258095D02*
X129875714Y-122258095D01*
X130066190Y-122258095D02*
X129970952Y-122210476D01*
X129970952Y-122210476D02*
X129923333Y-122162857D01*
X129923333Y-122162857D02*
X129875714Y-122067619D01*
X129875714Y-122067619D02*
X129875714Y-121972381D01*
X130542380Y-121496190D02*
X130494761Y-121591428D01*
X130494761Y-121591428D02*
X130447142Y-121639047D01*
X130447142Y-121639047D02*
X130351904Y-121686666D01*
X130351904Y-121686666D02*
X130066190Y-121686666D01*
X130066190Y-121686666D02*
X129970952Y-121639047D01*
X129970952Y-121639047D02*
X129923333Y-121591428D01*
X129923333Y-121591428D02*
X129875714Y-121496190D01*
X129875714Y-121496190D02*
X129875714Y-121353333D01*
X129875714Y-121353333D02*
X129923333Y-121258095D01*
X129923333Y-121258095D02*
X129970952Y-121210476D01*
X129970952Y-121210476D02*
X130066190Y-121162857D01*
X130066190Y-121162857D02*
X130351904Y-121162857D01*
X130351904Y-121162857D02*
X130447142Y-121210476D01*
X130447142Y-121210476D02*
X130494761Y-121258095D01*
X130494761Y-121258095D02*
X130542380Y-121353333D01*
X130542380Y-121353333D02*
X130542380Y-121496190D01*
X129875714Y-120734285D02*
X130732857Y-120734285D01*
X130732857Y-120734285D02*
X130828095Y-120781904D01*
X130828095Y-120781904D02*
X130875714Y-120877142D01*
X130875714Y-120877142D02*
X130875714Y-120924761D01*
X129542380Y-120734285D02*
X129590000Y-120781904D01*
X129590000Y-120781904D02*
X129637619Y-120734285D01*
X129637619Y-120734285D02*
X129590000Y-120686666D01*
X129590000Y-120686666D02*
X129542380Y-120734285D01*
X129542380Y-120734285D02*
X129637619Y-120734285D01*
X130494761Y-119877143D02*
X130542380Y-119972381D01*
X130542380Y-119972381D02*
X130542380Y-120162857D01*
X130542380Y-120162857D02*
X130494761Y-120258095D01*
X130494761Y-120258095D02*
X130399523Y-120305714D01*
X130399523Y-120305714D02*
X130018571Y-120305714D01*
X130018571Y-120305714D02*
X129923333Y-120258095D01*
X129923333Y-120258095D02*
X129875714Y-120162857D01*
X129875714Y-120162857D02*
X129875714Y-119972381D01*
X129875714Y-119972381D02*
X129923333Y-119877143D01*
X129923333Y-119877143D02*
X130018571Y-119829524D01*
X130018571Y-119829524D02*
X130113809Y-119829524D01*
X130113809Y-119829524D02*
X130209047Y-120305714D01*
X130542380Y-119400952D02*
X129542380Y-119400952D01*
X130161428Y-119305714D02*
X130542380Y-119020000D01*
X129875714Y-119020000D02*
X130256666Y-119400952D01*
X129875714Y-118734285D02*
X129875714Y-118353333D01*
X129542380Y-118591428D02*
X130399523Y-118591428D01*
X130399523Y-118591428D02*
X130494761Y-118543809D01*
X130494761Y-118543809D02*
X130542380Y-118448571D01*
X130542380Y-118448571D02*
X130542380Y-118353333D01*
X130542380Y-117877142D02*
X130494761Y-117972380D01*
X130494761Y-117972380D02*
X130447142Y-118019999D01*
X130447142Y-118019999D02*
X130351904Y-118067618D01*
X130351904Y-118067618D02*
X130066190Y-118067618D01*
X130066190Y-118067618D02*
X129970952Y-118019999D01*
X129970952Y-118019999D02*
X129923333Y-117972380D01*
X129923333Y-117972380D02*
X129875714Y-117877142D01*
X129875714Y-117877142D02*
X129875714Y-117734285D01*
X129875714Y-117734285D02*
X129923333Y-117639047D01*
X129923333Y-117639047D02*
X129970952Y-117591428D01*
X129970952Y-117591428D02*
X130066190Y-117543809D01*
X130066190Y-117543809D02*
X130351904Y-117543809D01*
X130351904Y-117543809D02*
X130447142Y-117591428D01*
X130447142Y-117591428D02*
X130494761Y-117639047D01*
X130494761Y-117639047D02*
X130542380Y-117734285D01*
X130542380Y-117734285D02*
X130542380Y-117877142D01*
X130542380Y-117115237D02*
X129875714Y-117115237D01*
X130066190Y-117115237D02*
X129970952Y-117067618D01*
X129970952Y-117067618D02*
X129923333Y-117019999D01*
X129923333Y-117019999D02*
X129875714Y-116924761D01*
X129875714Y-116924761D02*
X129875714Y-116829523D01*
X130542380Y-116353332D02*
X130494761Y-116448570D01*
X130494761Y-116448570D02*
X130447142Y-116496189D01*
X130447142Y-116496189D02*
X130351904Y-116543808D01*
X130351904Y-116543808D02*
X130066190Y-116543808D01*
X130066190Y-116543808D02*
X129970952Y-116496189D01*
X129970952Y-116496189D02*
X129923333Y-116448570D01*
X129923333Y-116448570D02*
X129875714Y-116353332D01*
X129875714Y-116353332D02*
X129875714Y-116210475D01*
X129875714Y-116210475D02*
X129923333Y-116115237D01*
X129923333Y-116115237D02*
X129970952Y-116067618D01*
X129970952Y-116067618D02*
X130066190Y-116019999D01*
X130066190Y-116019999D02*
X130351904Y-116019999D01*
X130351904Y-116019999D02*
X130447142Y-116067618D01*
X130447142Y-116067618D02*
X130494761Y-116115237D01*
X130494761Y-116115237D02*
X130542380Y-116210475D01*
X130542380Y-116210475D02*
X130542380Y-116353332D01*
X130494761Y-115639046D02*
X130542380Y-115496189D01*
X130542380Y-115496189D02*
X130542380Y-115258094D01*
X130542380Y-115258094D02*
X130494761Y-115162856D01*
X130494761Y-115162856D02*
X130447142Y-115115237D01*
X130447142Y-115115237D02*
X130351904Y-115067618D01*
X130351904Y-115067618D02*
X130256666Y-115067618D01*
X130256666Y-115067618D02*
X130161428Y-115115237D01*
X130161428Y-115115237D02*
X130113809Y-115162856D01*
X130113809Y-115162856D02*
X130066190Y-115258094D01*
X130066190Y-115258094D02*
X130018571Y-115448570D01*
X130018571Y-115448570D02*
X129970952Y-115543808D01*
X129970952Y-115543808D02*
X129923333Y-115591427D01*
X129923333Y-115591427D02*
X129828095Y-115639046D01*
X129828095Y-115639046D02*
X129732857Y-115639046D01*
X129732857Y-115639046D02*
X129637619Y-115591427D01*
X129637619Y-115591427D02*
X129590000Y-115543808D01*
X129590000Y-115543808D02*
X129542380Y-115448570D01*
X129542380Y-115448570D02*
X129542380Y-115210475D01*
X129542380Y-115210475D02*
X129590000Y-115067618D01*
X130447142Y-114067618D02*
X130494761Y-114115237D01*
X130494761Y-114115237D02*
X130542380Y-114258094D01*
X130542380Y-114258094D02*
X130542380Y-114353332D01*
X130542380Y-114353332D02*
X130494761Y-114496189D01*
X130494761Y-114496189D02*
X130399523Y-114591427D01*
X130399523Y-114591427D02*
X130304285Y-114639046D01*
X130304285Y-114639046D02*
X130113809Y-114686665D01*
X130113809Y-114686665D02*
X129970952Y-114686665D01*
X129970952Y-114686665D02*
X129780476Y-114639046D01*
X129780476Y-114639046D02*
X129685238Y-114591427D01*
X129685238Y-114591427D02*
X129590000Y-114496189D01*
X129590000Y-114496189D02*
X129542380Y-114353332D01*
X129542380Y-114353332D02*
X129542380Y-114258094D01*
X129542380Y-114258094D02*
X129590000Y-114115237D01*
X129590000Y-114115237D02*
X129637619Y-114067618D01*
X130542380Y-113639046D02*
X129542380Y-113639046D01*
X130018571Y-113639046D02*
X130018571Y-113067618D01*
X130542380Y-113067618D02*
X129542380Y-113067618D01*
X129875714Y-112086665D02*
X130542380Y-111848570D01*
X130542380Y-111848570D02*
X129875714Y-111610475D01*
X129637619Y-111277141D02*
X129590000Y-111229522D01*
X129590000Y-111229522D02*
X129542380Y-111134284D01*
X129542380Y-111134284D02*
X129542380Y-110896189D01*
X129542380Y-110896189D02*
X129590000Y-110800951D01*
X129590000Y-110800951D02*
X129637619Y-110753332D01*
X129637619Y-110753332D02*
X129732857Y-110705713D01*
X129732857Y-110705713D02*
X129828095Y-110705713D01*
X129828095Y-110705713D02*
X129970952Y-110753332D01*
X129970952Y-110753332D02*
X130542380Y-111324760D01*
X130542380Y-111324760D02*
X130542380Y-110705713D01*
X130447142Y-110277141D02*
X130494761Y-110229522D01*
X130494761Y-110229522D02*
X130542380Y-110277141D01*
X130542380Y-110277141D02*
X130494761Y-110324760D01*
X130494761Y-110324760D02*
X130447142Y-110277141D01*
X130447142Y-110277141D02*
X130542380Y-110277141D01*
X129637619Y-109848570D02*
X129590000Y-109800951D01*
X129590000Y-109800951D02*
X129542380Y-109705713D01*
X129542380Y-109705713D02*
X129542380Y-109467618D01*
X129542380Y-109467618D02*
X129590000Y-109372380D01*
X129590000Y-109372380D02*
X129637619Y-109324761D01*
X129637619Y-109324761D02*
X129732857Y-109277142D01*
X129732857Y-109277142D02*
X129828095Y-109277142D01*
X129828095Y-109277142D02*
X129970952Y-109324761D01*
X129970952Y-109324761D02*
X130542380Y-109896189D01*
X130542380Y-109896189D02*
X130542380Y-109277142D01*
X130161428Y-108248570D02*
X130161428Y-107486666D01*
X130494761Y-106458094D02*
X130542380Y-106315237D01*
X130542380Y-106315237D02*
X130542380Y-106077142D01*
X130542380Y-106077142D02*
X130494761Y-105981904D01*
X130494761Y-105981904D02*
X130447142Y-105934285D01*
X130447142Y-105934285D02*
X130351904Y-105886666D01*
X130351904Y-105886666D02*
X130256666Y-105886666D01*
X130256666Y-105886666D02*
X130161428Y-105934285D01*
X130161428Y-105934285D02*
X130113809Y-105981904D01*
X130113809Y-105981904D02*
X130066190Y-106077142D01*
X130066190Y-106077142D02*
X130018571Y-106267618D01*
X130018571Y-106267618D02*
X129970952Y-106362856D01*
X129970952Y-106362856D02*
X129923333Y-106410475D01*
X129923333Y-106410475D02*
X129828095Y-106458094D01*
X129828095Y-106458094D02*
X129732857Y-106458094D01*
X129732857Y-106458094D02*
X129637619Y-106410475D01*
X129637619Y-106410475D02*
X129590000Y-106362856D01*
X129590000Y-106362856D02*
X129542380Y-106267618D01*
X129542380Y-106267618D02*
X129542380Y-106029523D01*
X129542380Y-106029523D02*
X129590000Y-105886666D01*
X130018571Y-105458094D02*
X130018571Y-105124761D01*
X130542380Y-104981904D02*
X130542380Y-105458094D01*
X130542380Y-105458094D02*
X129542380Y-105458094D01*
X129542380Y-105458094D02*
X129542380Y-104981904D01*
X130542380Y-104553332D02*
X129542380Y-104553332D01*
X129542380Y-104553332D02*
X130256666Y-104219999D01*
X130256666Y-104219999D02*
X129542380Y-103886666D01*
X129542380Y-103886666D02*
X130542380Y-103886666D01*
X129637619Y-102858094D02*
X129590000Y-102810475D01*
X129590000Y-102810475D02*
X129542380Y-102715237D01*
X129542380Y-102715237D02*
X129542380Y-102477142D01*
X129542380Y-102477142D02*
X129590000Y-102381904D01*
X129590000Y-102381904D02*
X129637619Y-102334285D01*
X129637619Y-102334285D02*
X129732857Y-102286666D01*
X129732857Y-102286666D02*
X129828095Y-102286666D01*
X129828095Y-102286666D02*
X129970952Y-102334285D01*
X129970952Y-102334285D02*
X130542380Y-102905713D01*
X130542380Y-102905713D02*
X130542380Y-102286666D01*
X129542380Y-101667618D02*
X129542380Y-101572380D01*
X129542380Y-101572380D02*
X129590000Y-101477142D01*
X129590000Y-101477142D02*
X129637619Y-101429523D01*
X129637619Y-101429523D02*
X129732857Y-101381904D01*
X129732857Y-101381904D02*
X129923333Y-101334285D01*
X129923333Y-101334285D02*
X130161428Y-101334285D01*
X130161428Y-101334285D02*
X130351904Y-101381904D01*
X130351904Y-101381904D02*
X130447142Y-101429523D01*
X130447142Y-101429523D02*
X130494761Y-101477142D01*
X130494761Y-101477142D02*
X130542380Y-101572380D01*
X130542380Y-101572380D02*
X130542380Y-101667618D01*
X130542380Y-101667618D02*
X130494761Y-101762856D01*
X130494761Y-101762856D02*
X130447142Y-101810475D01*
X130447142Y-101810475D02*
X130351904Y-101858094D01*
X130351904Y-101858094D02*
X130161428Y-101905713D01*
X130161428Y-101905713D02*
X129923333Y-101905713D01*
X129923333Y-101905713D02*
X129732857Y-101858094D01*
X129732857Y-101858094D02*
X129637619Y-101810475D01*
X129637619Y-101810475D02*
X129590000Y-101762856D01*
X129590000Y-101762856D02*
X129542380Y-101667618D01*
X129637619Y-100953332D02*
X129590000Y-100905713D01*
X129590000Y-100905713D02*
X129542380Y-100810475D01*
X129542380Y-100810475D02*
X129542380Y-100572380D01*
X129542380Y-100572380D02*
X129590000Y-100477142D01*
X129590000Y-100477142D02*
X129637619Y-100429523D01*
X129637619Y-100429523D02*
X129732857Y-100381904D01*
X129732857Y-100381904D02*
X129828095Y-100381904D01*
X129828095Y-100381904D02*
X129970952Y-100429523D01*
X129970952Y-100429523D02*
X130542380Y-101000951D01*
X130542380Y-101000951D02*
X130542380Y-100381904D01*
X129542380Y-100048570D02*
X129542380Y-99429523D01*
X129542380Y-99429523D02*
X129923333Y-99762856D01*
X129923333Y-99762856D02*
X129923333Y-99619999D01*
X129923333Y-99619999D02*
X129970952Y-99524761D01*
X129970952Y-99524761D02*
X130018571Y-99477142D01*
X130018571Y-99477142D02*
X130113809Y-99429523D01*
X130113809Y-99429523D02*
X130351904Y-99429523D01*
X130351904Y-99429523D02*
X130447142Y-99477142D01*
X130447142Y-99477142D02*
X130494761Y-99524761D01*
X130494761Y-99524761D02*
X130542380Y-99619999D01*
X130542380Y-99619999D02*
X130542380Y-99905713D01*
X130542380Y-99905713D02*
X130494761Y-100000951D01*
X130494761Y-100000951D02*
X130447142Y-100048570D01*
X130161428Y-98400951D02*
X130161428Y-97639047D01*
X130018571Y-96229523D02*
X130018571Y-96562856D01*
X130542380Y-96562856D02*
X129542380Y-96562856D01*
X129542380Y-96562856D02*
X129542380Y-96086666D01*
X130018571Y-95372380D02*
X130066190Y-95229523D01*
X130066190Y-95229523D02*
X130113809Y-95181904D01*
X130113809Y-95181904D02*
X130209047Y-95134285D01*
X130209047Y-95134285D02*
X130351904Y-95134285D01*
X130351904Y-95134285D02*
X130447142Y-95181904D01*
X130447142Y-95181904D02*
X130494761Y-95229523D01*
X130494761Y-95229523D02*
X130542380Y-95324761D01*
X130542380Y-95324761D02*
X130542380Y-95705713D01*
X130542380Y-95705713D02*
X129542380Y-95705713D01*
X129542380Y-95705713D02*
X129542380Y-95372380D01*
X129542380Y-95372380D02*
X129590000Y-95277142D01*
X129590000Y-95277142D02*
X129637619Y-95229523D01*
X129637619Y-95229523D02*
X129732857Y-95181904D01*
X129732857Y-95181904D02*
X129828095Y-95181904D01*
X129828095Y-95181904D02*
X129923333Y-95229523D01*
X129923333Y-95229523D02*
X129970952Y-95277142D01*
X129970952Y-95277142D02*
X130018571Y-95372380D01*
X130018571Y-95372380D02*
X130018571Y-95705713D01*
X156895000Y-109346904D02*
X156847380Y-109442142D01*
X156847380Y-109442142D02*
X156847380Y-109584999D01*
X156847380Y-109584999D02*
X156895000Y-109727856D01*
X156895000Y-109727856D02*
X156990238Y-109823094D01*
X156990238Y-109823094D02*
X157085476Y-109870713D01*
X157085476Y-109870713D02*
X157275952Y-109918332D01*
X157275952Y-109918332D02*
X157418809Y-109918332D01*
X157418809Y-109918332D02*
X157609285Y-109870713D01*
X157609285Y-109870713D02*
X157704523Y-109823094D01*
X157704523Y-109823094D02*
X157799761Y-109727856D01*
X157799761Y-109727856D02*
X157847380Y-109584999D01*
X157847380Y-109584999D02*
X157847380Y-109489761D01*
X157847380Y-109489761D02*
X157799761Y-109346904D01*
X157799761Y-109346904D02*
X157752142Y-109299285D01*
X157752142Y-109299285D02*
X157418809Y-109299285D01*
X157418809Y-109299285D02*
X157418809Y-109489761D01*
X157847380Y-108870713D02*
X156847380Y-108870713D01*
X156847380Y-108870713D02*
X157847380Y-108299285D01*
X157847380Y-108299285D02*
X156847380Y-108299285D01*
X157847380Y-107823094D02*
X156847380Y-107823094D01*
X156847380Y-107823094D02*
X156847380Y-107584999D01*
X156847380Y-107584999D02*
X156895000Y-107442142D01*
X156895000Y-107442142D02*
X156990238Y-107346904D01*
X156990238Y-107346904D02*
X157085476Y-107299285D01*
X157085476Y-107299285D02*
X157275952Y-107251666D01*
X157275952Y-107251666D02*
X157418809Y-107251666D01*
X157418809Y-107251666D02*
X157609285Y-107299285D01*
X157609285Y-107299285D02*
X157704523Y-107346904D01*
X157704523Y-107346904D02*
X157799761Y-107442142D01*
X157799761Y-107442142D02*
X157847380Y-107584999D01*
X157847380Y-107584999D02*
X157847380Y-107823094D01*
X132588095Y-123875000D02*
X132492857Y-123827380D01*
X132492857Y-123827380D02*
X132350000Y-123827380D01*
X132350000Y-123827380D02*
X132207143Y-123875000D01*
X132207143Y-123875000D02*
X132111905Y-123970238D01*
X132111905Y-123970238D02*
X132064286Y-124065476D01*
X132064286Y-124065476D02*
X132016667Y-124255952D01*
X132016667Y-124255952D02*
X132016667Y-124398809D01*
X132016667Y-124398809D02*
X132064286Y-124589285D01*
X132064286Y-124589285D02*
X132111905Y-124684523D01*
X132111905Y-124684523D02*
X132207143Y-124779761D01*
X132207143Y-124779761D02*
X132350000Y-124827380D01*
X132350000Y-124827380D02*
X132445238Y-124827380D01*
X132445238Y-124827380D02*
X132588095Y-124779761D01*
X132588095Y-124779761D02*
X132635714Y-124732142D01*
X132635714Y-124732142D02*
X132635714Y-124398809D01*
X132635714Y-124398809D02*
X132445238Y-124398809D01*
X133064286Y-124827380D02*
X133064286Y-123827380D01*
X133064286Y-123827380D02*
X133635714Y-124827380D01*
X133635714Y-124827380D02*
X133635714Y-123827380D01*
X134111905Y-124827380D02*
X134111905Y-123827380D01*
X134111905Y-123827380D02*
X134350000Y-123827380D01*
X134350000Y-123827380D02*
X134492857Y-123875000D01*
X134492857Y-123875000D02*
X134588095Y-123970238D01*
X134588095Y-123970238D02*
X134635714Y-124065476D01*
X134635714Y-124065476D02*
X134683333Y-124255952D01*
X134683333Y-124255952D02*
X134683333Y-124398809D01*
X134683333Y-124398809D02*
X134635714Y-124589285D01*
X134635714Y-124589285D02*
X134588095Y-124684523D01*
X134588095Y-124684523D02*
X134492857Y-124779761D01*
X134492857Y-124779761D02*
X134350000Y-124827380D01*
X134350000Y-124827380D02*
X134111905Y-124827380D01*
X140168333Y-124827380D02*
X139835000Y-124351190D01*
X139596905Y-124827380D02*
X139596905Y-123827380D01*
X139596905Y-123827380D02*
X139977857Y-123827380D01*
X139977857Y-123827380D02*
X140073095Y-123875000D01*
X140073095Y-123875000D02*
X140120714Y-123922619D01*
X140120714Y-123922619D02*
X140168333Y-124017857D01*
X140168333Y-124017857D02*
X140168333Y-124160714D01*
X140168333Y-124160714D02*
X140120714Y-124255952D01*
X140120714Y-124255952D02*
X140073095Y-124303571D01*
X140073095Y-124303571D02*
X139977857Y-124351190D01*
X139977857Y-124351190D02*
X139596905Y-124351190D01*
X140501667Y-123827380D02*
X141168333Y-124827380D01*
X141168333Y-123827380D02*
X140501667Y-124827380D01*
X145923095Y-123875000D02*
X145827857Y-123827380D01*
X145827857Y-123827380D02*
X145685000Y-123827380D01*
X145685000Y-123827380D02*
X145542143Y-123875000D01*
X145542143Y-123875000D02*
X145446905Y-123970238D01*
X145446905Y-123970238D02*
X145399286Y-124065476D01*
X145399286Y-124065476D02*
X145351667Y-124255952D01*
X145351667Y-124255952D02*
X145351667Y-124398809D01*
X145351667Y-124398809D02*
X145399286Y-124589285D01*
X145399286Y-124589285D02*
X145446905Y-124684523D01*
X145446905Y-124684523D02*
X145542143Y-124779761D01*
X145542143Y-124779761D02*
X145685000Y-124827380D01*
X145685000Y-124827380D02*
X145780238Y-124827380D01*
X145780238Y-124827380D02*
X145923095Y-124779761D01*
X145923095Y-124779761D02*
X145970714Y-124732142D01*
X145970714Y-124732142D02*
X145970714Y-124398809D01*
X145970714Y-124398809D02*
X145780238Y-124398809D01*
X146399286Y-124827380D02*
X146399286Y-123827380D01*
X146399286Y-123827380D02*
X146970714Y-124827380D01*
X146970714Y-124827380D02*
X146970714Y-123827380D01*
X147446905Y-124827380D02*
X147446905Y-123827380D01*
X147446905Y-123827380D02*
X147685000Y-123827380D01*
X147685000Y-123827380D02*
X147827857Y-123875000D01*
X147827857Y-123875000D02*
X147923095Y-123970238D01*
X147923095Y-123970238D02*
X147970714Y-124065476D01*
X147970714Y-124065476D02*
X148018333Y-124255952D01*
X148018333Y-124255952D02*
X148018333Y-124398809D01*
X148018333Y-124398809D02*
X147970714Y-124589285D01*
X147970714Y-124589285D02*
X147923095Y-124684523D01*
X147923095Y-124684523D02*
X147827857Y-124779761D01*
X147827857Y-124779761D02*
X147685000Y-124827380D01*
X147685000Y-124827380D02*
X147446905Y-124827380D01*
X156847380Y-115696904D02*
X156847380Y-115125476D01*
X157847380Y-115411190D02*
X156847380Y-115411190D01*
X156847380Y-114887380D02*
X157847380Y-114220714D01*
X156847380Y-114220714D02*
X157847380Y-114887380D01*
X157847380Y-117641666D02*
X157371190Y-117974999D01*
X157847380Y-118213094D02*
X156847380Y-118213094D01*
X156847380Y-118213094D02*
X156847380Y-117832142D01*
X156847380Y-117832142D02*
X156895000Y-117736904D01*
X156895000Y-117736904D02*
X156942619Y-117689285D01*
X156942619Y-117689285D02*
X157037857Y-117641666D01*
X157037857Y-117641666D02*
X157180714Y-117641666D01*
X157180714Y-117641666D02*
X157275952Y-117689285D01*
X157275952Y-117689285D02*
X157323571Y-117736904D01*
X157323571Y-117736904D02*
X157371190Y-117832142D01*
X157371190Y-117832142D02*
X157371190Y-118213094D01*
X156847380Y-117308332D02*
X157847380Y-116641666D01*
X156847380Y-116641666D02*
X157847380Y-117308332D01*
%TO.C,R3*%
X143242380Y-88431666D02*
X142766190Y-88764999D01*
X143242380Y-89003094D02*
X142242380Y-89003094D01*
X142242380Y-89003094D02*
X142242380Y-88622142D01*
X142242380Y-88622142D02*
X142290000Y-88526904D01*
X142290000Y-88526904D02*
X142337619Y-88479285D01*
X142337619Y-88479285D02*
X142432857Y-88431666D01*
X142432857Y-88431666D02*
X142575714Y-88431666D01*
X142575714Y-88431666D02*
X142670952Y-88479285D01*
X142670952Y-88479285D02*
X142718571Y-88526904D01*
X142718571Y-88526904D02*
X142766190Y-88622142D01*
X142766190Y-88622142D02*
X142766190Y-89003094D01*
X142242380Y-88098332D02*
X142242380Y-87479285D01*
X142242380Y-87479285D02*
X142623333Y-87812618D01*
X142623333Y-87812618D02*
X142623333Y-87669761D01*
X142623333Y-87669761D02*
X142670952Y-87574523D01*
X142670952Y-87574523D02*
X142718571Y-87526904D01*
X142718571Y-87526904D02*
X142813809Y-87479285D01*
X142813809Y-87479285D02*
X143051904Y-87479285D01*
X143051904Y-87479285D02*
X143147142Y-87526904D01*
X143147142Y-87526904D02*
X143194761Y-87574523D01*
X143194761Y-87574523D02*
X143242380Y-87669761D01*
X143242380Y-87669761D02*
X143242380Y-87955475D01*
X143242380Y-87955475D02*
X143194761Y-88050713D01*
X143194761Y-88050713D02*
X143147142Y-88098332D01*
%TO.C,U1*%
X147507380Y-120101904D02*
X148316904Y-120101904D01*
X148316904Y-120101904D02*
X148412142Y-120054285D01*
X148412142Y-120054285D02*
X148459761Y-120006666D01*
X148459761Y-120006666D02*
X148507380Y-119911428D01*
X148507380Y-119911428D02*
X148507380Y-119720952D01*
X148507380Y-119720952D02*
X148459761Y-119625714D01*
X148459761Y-119625714D02*
X148412142Y-119578095D01*
X148412142Y-119578095D02*
X148316904Y-119530476D01*
X148316904Y-119530476D02*
X147507380Y-119530476D01*
X148507380Y-118530476D02*
X148507380Y-119101904D01*
X148507380Y-118816190D02*
X147507380Y-118816190D01*
X147507380Y-118816190D02*
X147650238Y-118911428D01*
X147650238Y-118911428D02*
X147745476Y-119006666D01*
X147745476Y-119006666D02*
X147793095Y-119101904D01*
%TO.C,SW1*%
X140271667Y-57469761D02*
X140414524Y-57517380D01*
X140414524Y-57517380D02*
X140652619Y-57517380D01*
X140652619Y-57517380D02*
X140747857Y-57469761D01*
X140747857Y-57469761D02*
X140795476Y-57422142D01*
X140795476Y-57422142D02*
X140843095Y-57326904D01*
X140843095Y-57326904D02*
X140843095Y-57231666D01*
X140843095Y-57231666D02*
X140795476Y-57136428D01*
X140795476Y-57136428D02*
X140747857Y-57088809D01*
X140747857Y-57088809D02*
X140652619Y-57041190D01*
X140652619Y-57041190D02*
X140462143Y-56993571D01*
X140462143Y-56993571D02*
X140366905Y-56945952D01*
X140366905Y-56945952D02*
X140319286Y-56898333D01*
X140319286Y-56898333D02*
X140271667Y-56803095D01*
X140271667Y-56803095D02*
X140271667Y-56707857D01*
X140271667Y-56707857D02*
X140319286Y-56612619D01*
X140319286Y-56612619D02*
X140366905Y-56565000D01*
X140366905Y-56565000D02*
X140462143Y-56517380D01*
X140462143Y-56517380D02*
X140700238Y-56517380D01*
X140700238Y-56517380D02*
X140843095Y-56565000D01*
X141176429Y-56517380D02*
X141414524Y-57517380D01*
X141414524Y-57517380D02*
X141605000Y-56803095D01*
X141605000Y-56803095D02*
X141795476Y-57517380D01*
X141795476Y-57517380D02*
X142033572Y-56517380D01*
X142938333Y-57517380D02*
X142366905Y-57517380D01*
X142652619Y-57517380D02*
X142652619Y-56517380D01*
X142652619Y-56517380D02*
X142557381Y-56660238D01*
X142557381Y-56660238D02*
X142462143Y-56755476D01*
X142462143Y-56755476D02*
X142366905Y-56803095D01*
%TO.C,SW2*%
X147891667Y-57469761D02*
X148034524Y-57517380D01*
X148034524Y-57517380D02*
X148272619Y-57517380D01*
X148272619Y-57517380D02*
X148367857Y-57469761D01*
X148367857Y-57469761D02*
X148415476Y-57422142D01*
X148415476Y-57422142D02*
X148463095Y-57326904D01*
X148463095Y-57326904D02*
X148463095Y-57231666D01*
X148463095Y-57231666D02*
X148415476Y-57136428D01*
X148415476Y-57136428D02*
X148367857Y-57088809D01*
X148367857Y-57088809D02*
X148272619Y-57041190D01*
X148272619Y-57041190D02*
X148082143Y-56993571D01*
X148082143Y-56993571D02*
X147986905Y-56945952D01*
X147986905Y-56945952D02*
X147939286Y-56898333D01*
X147939286Y-56898333D02*
X147891667Y-56803095D01*
X147891667Y-56803095D02*
X147891667Y-56707857D01*
X147891667Y-56707857D02*
X147939286Y-56612619D01*
X147939286Y-56612619D02*
X147986905Y-56565000D01*
X147986905Y-56565000D02*
X148082143Y-56517380D01*
X148082143Y-56517380D02*
X148320238Y-56517380D01*
X148320238Y-56517380D02*
X148463095Y-56565000D01*
X148796429Y-56517380D02*
X149034524Y-57517380D01*
X149034524Y-57517380D02*
X149225000Y-56803095D01*
X149225000Y-56803095D02*
X149415476Y-57517380D01*
X149415476Y-57517380D02*
X149653572Y-56517380D01*
X149986905Y-56612619D02*
X150034524Y-56565000D01*
X150034524Y-56565000D02*
X150129762Y-56517380D01*
X150129762Y-56517380D02*
X150367857Y-56517380D01*
X150367857Y-56517380D02*
X150463095Y-56565000D01*
X150463095Y-56565000D02*
X150510714Y-56612619D01*
X150510714Y-56612619D02*
X150558333Y-56707857D01*
X150558333Y-56707857D02*
X150558333Y-56803095D01*
X150558333Y-56803095D02*
X150510714Y-56945952D01*
X150510714Y-56945952D02*
X149939286Y-57517380D01*
X149939286Y-57517380D02*
X150558333Y-57517380D01*
%TO.C,J4*%
X134111666Y-84047380D02*
X134111666Y-84761666D01*
X134111666Y-84761666D02*
X134064047Y-84904523D01*
X134064047Y-84904523D02*
X133968809Y-84999761D01*
X133968809Y-84999761D02*
X133825952Y-85047380D01*
X133825952Y-85047380D02*
X133730714Y-85047380D01*
X135016428Y-84380714D02*
X135016428Y-85047380D01*
X134778333Y-83999761D02*
X134540238Y-84714047D01*
X134540238Y-84714047D02*
X135159285Y-84714047D01*
%TO.C,5V*%
X135892380Y-98615476D02*
X135892380Y-99091666D01*
X135892380Y-99091666D02*
X136368571Y-99139285D01*
X136368571Y-99139285D02*
X136320952Y-99091666D01*
X136320952Y-99091666D02*
X136273333Y-98996428D01*
X136273333Y-98996428D02*
X136273333Y-98758333D01*
X136273333Y-98758333D02*
X136320952Y-98663095D01*
X136320952Y-98663095D02*
X136368571Y-98615476D01*
X136368571Y-98615476D02*
X136463809Y-98567857D01*
X136463809Y-98567857D02*
X136701904Y-98567857D01*
X136701904Y-98567857D02*
X136797142Y-98615476D01*
X136797142Y-98615476D02*
X136844761Y-98663095D01*
X136844761Y-98663095D02*
X136892380Y-98758333D01*
X136892380Y-98758333D02*
X136892380Y-98996428D01*
X136892380Y-98996428D02*
X136844761Y-99091666D01*
X136844761Y-99091666D02*
X136797142Y-99139285D01*
X135892380Y-98282142D02*
X136892380Y-97948809D01*
X136892380Y-97948809D02*
X135892380Y-97615476D01*
D11*
X138797380Y-93968333D02*
X138321190Y-94301666D01*
X138797380Y-94539761D02*
X137797380Y-94539761D01*
X137797380Y-94539761D02*
X137797380Y-94158809D01*
X137797380Y-94158809D02*
X137845000Y-94063571D01*
X137845000Y-94063571D02*
X137892619Y-94015952D01*
X137892619Y-94015952D02*
X137987857Y-93968333D01*
X137987857Y-93968333D02*
X138130714Y-93968333D01*
X138130714Y-93968333D02*
X138225952Y-94015952D01*
X138225952Y-94015952D02*
X138273571Y-94063571D01*
X138273571Y-94063571D02*
X138321190Y-94158809D01*
X138321190Y-94158809D02*
X138321190Y-94539761D01*
X138749761Y-93587380D02*
X138797380Y-93444523D01*
X138797380Y-93444523D02*
X138797380Y-93206428D01*
X138797380Y-93206428D02*
X138749761Y-93111190D01*
X138749761Y-93111190D02*
X138702142Y-93063571D01*
X138702142Y-93063571D02*
X138606904Y-93015952D01*
X138606904Y-93015952D02*
X138511666Y-93015952D01*
X138511666Y-93015952D02*
X138416428Y-93063571D01*
X138416428Y-93063571D02*
X138368809Y-93111190D01*
X138368809Y-93111190D02*
X138321190Y-93206428D01*
X138321190Y-93206428D02*
X138273571Y-93396904D01*
X138273571Y-93396904D02*
X138225952Y-93492142D01*
X138225952Y-93492142D02*
X138178333Y-93539761D01*
X138178333Y-93539761D02*
X138083095Y-93587380D01*
X138083095Y-93587380D02*
X137987857Y-93587380D01*
X137987857Y-93587380D02*
X137892619Y-93539761D01*
X137892619Y-93539761D02*
X137845000Y-93492142D01*
X137845000Y-93492142D02*
X137797380Y-93396904D01*
X137797380Y-93396904D02*
X137797380Y-93158809D01*
X137797380Y-93158809D02*
X137845000Y-93015952D01*
X137797380Y-92730237D02*
X137797380Y-92158809D01*
X138797380Y-92444523D02*
X137797380Y-92444523D01*
X138749761Y-91273094D02*
X138797380Y-91130237D01*
X138797380Y-91130237D02*
X138797380Y-90892142D01*
X138797380Y-90892142D02*
X138749761Y-90796904D01*
X138749761Y-90796904D02*
X138702142Y-90749285D01*
X138702142Y-90749285D02*
X138606904Y-90701666D01*
X138606904Y-90701666D02*
X138511666Y-90701666D01*
X138511666Y-90701666D02*
X138416428Y-90749285D01*
X138416428Y-90749285D02*
X138368809Y-90796904D01*
X138368809Y-90796904D02*
X138321190Y-90892142D01*
X138321190Y-90892142D02*
X138273571Y-91082618D01*
X138273571Y-91082618D02*
X138225952Y-91177856D01*
X138225952Y-91177856D02*
X138178333Y-91225475D01*
X138178333Y-91225475D02*
X138083095Y-91273094D01*
X138083095Y-91273094D02*
X137987857Y-91273094D01*
X137987857Y-91273094D02*
X137892619Y-91225475D01*
X137892619Y-91225475D02*
X137845000Y-91177856D01*
X137845000Y-91177856D02*
X137797380Y-91082618D01*
X137797380Y-91082618D02*
X137797380Y-90844523D01*
X137797380Y-90844523D02*
X137845000Y-90701666D01*
X138702142Y-89701666D02*
X138749761Y-89749285D01*
X138749761Y-89749285D02*
X138797380Y-89892142D01*
X138797380Y-89892142D02*
X138797380Y-89987380D01*
X138797380Y-89987380D02*
X138749761Y-90130237D01*
X138749761Y-90130237D02*
X138654523Y-90225475D01*
X138654523Y-90225475D02*
X138559285Y-90273094D01*
X138559285Y-90273094D02*
X138368809Y-90320713D01*
X138368809Y-90320713D02*
X138225952Y-90320713D01*
X138225952Y-90320713D02*
X138035476Y-90273094D01*
X138035476Y-90273094D02*
X137940238Y-90225475D01*
X137940238Y-90225475D02*
X137845000Y-90130237D01*
X137845000Y-90130237D02*
X137797380Y-89987380D01*
X137797380Y-89987380D02*
X137797380Y-89892142D01*
X137797380Y-89892142D02*
X137845000Y-89749285D01*
X137845000Y-89749285D02*
X137892619Y-89701666D01*
X138797380Y-89273094D02*
X137797380Y-89273094D01*
X138797380Y-88701666D02*
X138225952Y-89130237D01*
X137797380Y-88701666D02*
X138368809Y-89273094D01*
X138797380Y-87673094D02*
X137797380Y-87673094D01*
X137797380Y-87673094D02*
X138511666Y-87339761D01*
X138511666Y-87339761D02*
X137797380Y-87006428D01*
X137797380Y-87006428D02*
X138797380Y-87006428D01*
X138797380Y-86530237D02*
X137797380Y-86530237D01*
X138749761Y-86101666D02*
X138797380Y-85958809D01*
X138797380Y-85958809D02*
X138797380Y-85720714D01*
X138797380Y-85720714D02*
X138749761Y-85625476D01*
X138749761Y-85625476D02*
X138702142Y-85577857D01*
X138702142Y-85577857D02*
X138606904Y-85530238D01*
X138606904Y-85530238D02*
X138511666Y-85530238D01*
X138511666Y-85530238D02*
X138416428Y-85577857D01*
X138416428Y-85577857D02*
X138368809Y-85625476D01*
X138368809Y-85625476D02*
X138321190Y-85720714D01*
X138321190Y-85720714D02*
X138273571Y-85911190D01*
X138273571Y-85911190D02*
X138225952Y-86006428D01*
X138225952Y-86006428D02*
X138178333Y-86054047D01*
X138178333Y-86054047D02*
X138083095Y-86101666D01*
X138083095Y-86101666D02*
X137987857Y-86101666D01*
X137987857Y-86101666D02*
X137892619Y-86054047D01*
X137892619Y-86054047D02*
X137845000Y-86006428D01*
X137845000Y-86006428D02*
X137797380Y-85911190D01*
X137797380Y-85911190D02*
X137797380Y-85673095D01*
X137797380Y-85673095D02*
X137845000Y-85530238D01*
X137797380Y-84911190D02*
X137797380Y-84720714D01*
X137797380Y-84720714D02*
X137845000Y-84625476D01*
X137845000Y-84625476D02*
X137940238Y-84530238D01*
X137940238Y-84530238D02*
X138130714Y-84482619D01*
X138130714Y-84482619D02*
X138464047Y-84482619D01*
X138464047Y-84482619D02*
X138654523Y-84530238D01*
X138654523Y-84530238D02*
X138749761Y-84625476D01*
X138749761Y-84625476D02*
X138797380Y-84720714D01*
X138797380Y-84720714D02*
X138797380Y-84911190D01*
X138797380Y-84911190D02*
X138749761Y-85006428D01*
X138749761Y-85006428D02*
X138654523Y-85101666D01*
X138654523Y-85101666D02*
X138464047Y-85149285D01*
X138464047Y-85149285D02*
X138130714Y-85149285D01*
X138130714Y-85149285D02*
X137940238Y-85101666D01*
X137940238Y-85101666D02*
X137845000Y-85006428D01*
X137845000Y-85006428D02*
X137797380Y-84911190D01*
X128891428Y-72135951D02*
X128891428Y-71374047D01*
X129272380Y-71754999D02*
X128510476Y-71754999D01*
X128891428Y-56895951D02*
X128891428Y-56134047D01*
X129272380Y-56514999D02*
X128510476Y-56514999D01*
X145401428Y-56895951D02*
X145401428Y-56134047D01*
X145782380Y-56514999D02*
X145020476Y-56514999D01*
X145401428Y-72135951D02*
X145401428Y-71374047D01*
X145782380Y-71754999D02*
X145020476Y-71754999D01*
X139750000Y-93611190D02*
X139702380Y-93706428D01*
X139702380Y-93706428D02*
X139702380Y-93849285D01*
X139702380Y-93849285D02*
X139750000Y-93992142D01*
X139750000Y-93992142D02*
X139845238Y-94087380D01*
X139845238Y-94087380D02*
X139940476Y-94134999D01*
X139940476Y-94134999D02*
X140130952Y-94182618D01*
X140130952Y-94182618D02*
X140273809Y-94182618D01*
X140273809Y-94182618D02*
X140464285Y-94134999D01*
X140464285Y-94134999D02*
X140559523Y-94087380D01*
X140559523Y-94087380D02*
X140654761Y-93992142D01*
X140654761Y-93992142D02*
X140702380Y-93849285D01*
X140702380Y-93849285D02*
X140702380Y-93754047D01*
X140702380Y-93754047D02*
X140654761Y-93611190D01*
X140654761Y-93611190D02*
X140607142Y-93563571D01*
X140607142Y-93563571D02*
X140273809Y-93563571D01*
X140273809Y-93563571D02*
X140273809Y-93754047D01*
X140702380Y-93134999D02*
X139702380Y-93134999D01*
X139702380Y-93134999D02*
X140702380Y-92563571D01*
X140702380Y-92563571D02*
X139702380Y-92563571D01*
X140702380Y-92087380D02*
X139702380Y-92087380D01*
X139702380Y-92087380D02*
X139702380Y-91849285D01*
X139702380Y-91849285D02*
X139750000Y-91706428D01*
X139750000Y-91706428D02*
X139845238Y-91611190D01*
X139845238Y-91611190D02*
X139940476Y-91563571D01*
X139940476Y-91563571D02*
X140130952Y-91515952D01*
X140130952Y-91515952D02*
X140273809Y-91515952D01*
X140273809Y-91515952D02*
X140464285Y-91563571D01*
X140464285Y-91563571D02*
X140559523Y-91611190D01*
X140559523Y-91611190D02*
X140654761Y-91706428D01*
X140654761Y-91706428D02*
X140702380Y-91849285D01*
X140702380Y-91849285D02*
X140702380Y-92087380D01*
X140702380Y-90487380D02*
X139702380Y-90487380D01*
X139702380Y-90487380D02*
X140416666Y-90154047D01*
X140416666Y-90154047D02*
X139702380Y-89820714D01*
X139702380Y-89820714D02*
X140702380Y-89820714D01*
X139702380Y-89154047D02*
X139702380Y-88963571D01*
X139702380Y-88963571D02*
X139750000Y-88868333D01*
X139750000Y-88868333D02*
X139845238Y-88773095D01*
X139845238Y-88773095D02*
X140035714Y-88725476D01*
X140035714Y-88725476D02*
X140369047Y-88725476D01*
X140369047Y-88725476D02*
X140559523Y-88773095D01*
X140559523Y-88773095D02*
X140654761Y-88868333D01*
X140654761Y-88868333D02*
X140702380Y-88963571D01*
X140702380Y-88963571D02*
X140702380Y-89154047D01*
X140702380Y-89154047D02*
X140654761Y-89249285D01*
X140654761Y-89249285D02*
X140559523Y-89344523D01*
X140559523Y-89344523D02*
X140369047Y-89392142D01*
X140369047Y-89392142D02*
X140035714Y-89392142D01*
X140035714Y-89392142D02*
X139845238Y-89344523D01*
X139845238Y-89344523D02*
X139750000Y-89249285D01*
X139750000Y-89249285D02*
X139702380Y-89154047D01*
X140654761Y-88344523D02*
X140702380Y-88201666D01*
X140702380Y-88201666D02*
X140702380Y-87963571D01*
X140702380Y-87963571D02*
X140654761Y-87868333D01*
X140654761Y-87868333D02*
X140607142Y-87820714D01*
X140607142Y-87820714D02*
X140511904Y-87773095D01*
X140511904Y-87773095D02*
X140416666Y-87773095D01*
X140416666Y-87773095D02*
X140321428Y-87820714D01*
X140321428Y-87820714D02*
X140273809Y-87868333D01*
X140273809Y-87868333D02*
X140226190Y-87963571D01*
X140226190Y-87963571D02*
X140178571Y-88154047D01*
X140178571Y-88154047D02*
X140130952Y-88249285D01*
X140130952Y-88249285D02*
X140083333Y-88296904D01*
X140083333Y-88296904D02*
X139988095Y-88344523D01*
X139988095Y-88344523D02*
X139892857Y-88344523D01*
X139892857Y-88344523D02*
X139797619Y-88296904D01*
X139797619Y-88296904D02*
X139750000Y-88249285D01*
X139750000Y-88249285D02*
X139702380Y-88154047D01*
X139702380Y-88154047D02*
X139702380Y-87915952D01*
X139702380Y-87915952D02*
X139750000Y-87773095D01*
X140702380Y-87344523D02*
X139702380Y-87344523D01*
X139702380Y-85792143D02*
X139702380Y-86268333D01*
X139702380Y-86268333D02*
X140178571Y-86315952D01*
X140178571Y-86315952D02*
X140130952Y-86268333D01*
X140130952Y-86268333D02*
X140083333Y-86173095D01*
X140083333Y-86173095D02*
X140083333Y-85935000D01*
X140083333Y-85935000D02*
X140130952Y-85839762D01*
X140130952Y-85839762D02*
X140178571Y-85792143D01*
X140178571Y-85792143D02*
X140273809Y-85744524D01*
X140273809Y-85744524D02*
X140511904Y-85744524D01*
X140511904Y-85744524D02*
X140607142Y-85792143D01*
X140607142Y-85792143D02*
X140654761Y-85839762D01*
X140654761Y-85839762D02*
X140702380Y-85935000D01*
X140702380Y-85935000D02*
X140702380Y-86173095D01*
X140702380Y-86173095D02*
X140654761Y-86268333D01*
X140654761Y-86268333D02*
X140607142Y-86315952D01*
X139702380Y-85458809D02*
X140702380Y-85125476D01*
X140702380Y-85125476D02*
X139702380Y-84792143D01*
D10*
%TO.C,R9*%
X152868333Y-108952380D02*
X152535000Y-108476190D01*
X152296905Y-108952380D02*
X152296905Y-107952380D01*
X152296905Y-107952380D02*
X152677857Y-107952380D01*
X152677857Y-107952380D02*
X152773095Y-108000000D01*
X152773095Y-108000000D02*
X152820714Y-108047619D01*
X152820714Y-108047619D02*
X152868333Y-108142857D01*
X152868333Y-108142857D02*
X152868333Y-108285714D01*
X152868333Y-108285714D02*
X152820714Y-108380952D01*
X152820714Y-108380952D02*
X152773095Y-108428571D01*
X152773095Y-108428571D02*
X152677857Y-108476190D01*
X152677857Y-108476190D02*
X152296905Y-108476190D01*
X153344524Y-108952380D02*
X153535000Y-108952380D01*
X153535000Y-108952380D02*
X153630238Y-108904761D01*
X153630238Y-108904761D02*
X153677857Y-108857142D01*
X153677857Y-108857142D02*
X153773095Y-108714285D01*
X153773095Y-108714285D02*
X153820714Y-108523809D01*
X153820714Y-108523809D02*
X153820714Y-108142857D01*
X153820714Y-108142857D02*
X153773095Y-108047619D01*
X153773095Y-108047619D02*
X153725476Y-108000000D01*
X153725476Y-108000000D02*
X153630238Y-107952380D01*
X153630238Y-107952380D02*
X153439762Y-107952380D01*
X153439762Y-107952380D02*
X153344524Y-108000000D01*
X153344524Y-108000000D02*
X153296905Y-108047619D01*
X153296905Y-108047619D02*
X153249286Y-108142857D01*
X153249286Y-108142857D02*
X153249286Y-108380952D01*
X153249286Y-108380952D02*
X153296905Y-108476190D01*
X153296905Y-108476190D02*
X153344524Y-108523809D01*
X153344524Y-108523809D02*
X153439762Y-108571428D01*
X153439762Y-108571428D02*
X153630238Y-108571428D01*
X153630238Y-108571428D02*
X153725476Y-108523809D01*
X153725476Y-108523809D02*
X153773095Y-108476190D01*
X153773095Y-108476190D02*
X153820714Y-108380952D01*
%TO.C,C2*%
X146518333Y-114339642D02*
X146470714Y-114387261D01*
X146470714Y-114387261D02*
X146327857Y-114434880D01*
X146327857Y-114434880D02*
X146232619Y-114434880D01*
X146232619Y-114434880D02*
X146089762Y-114387261D01*
X146089762Y-114387261D02*
X145994524Y-114292023D01*
X145994524Y-114292023D02*
X145946905Y-114196785D01*
X145946905Y-114196785D02*
X145899286Y-114006309D01*
X145899286Y-114006309D02*
X145899286Y-113863452D01*
X145899286Y-113863452D02*
X145946905Y-113672976D01*
X145946905Y-113672976D02*
X145994524Y-113577738D01*
X145994524Y-113577738D02*
X146089762Y-113482500D01*
X146089762Y-113482500D02*
X146232619Y-113434880D01*
X146232619Y-113434880D02*
X146327857Y-113434880D01*
X146327857Y-113434880D02*
X146470714Y-113482500D01*
X146470714Y-113482500D02*
X146518333Y-113530119D01*
X146899286Y-113530119D02*
X146946905Y-113482500D01*
X146946905Y-113482500D02*
X147042143Y-113434880D01*
X147042143Y-113434880D02*
X147280238Y-113434880D01*
X147280238Y-113434880D02*
X147375476Y-113482500D01*
X147375476Y-113482500D02*
X147423095Y-113530119D01*
X147423095Y-113530119D02*
X147470714Y-113625357D01*
X147470714Y-113625357D02*
X147470714Y-113720595D01*
X147470714Y-113720595D02*
X147423095Y-113863452D01*
X147423095Y-113863452D02*
X146851667Y-114434880D01*
X146851667Y-114434880D02*
X147470714Y-114434880D01*
%TO.C,SW5*%
X152971667Y-122112761D02*
X153114524Y-122160380D01*
X153114524Y-122160380D02*
X153352619Y-122160380D01*
X153352619Y-122160380D02*
X153447857Y-122112761D01*
X153447857Y-122112761D02*
X153495476Y-122065142D01*
X153495476Y-122065142D02*
X153543095Y-121969904D01*
X153543095Y-121969904D02*
X153543095Y-121874666D01*
X153543095Y-121874666D02*
X153495476Y-121779428D01*
X153495476Y-121779428D02*
X153447857Y-121731809D01*
X153447857Y-121731809D02*
X153352619Y-121684190D01*
X153352619Y-121684190D02*
X153162143Y-121636571D01*
X153162143Y-121636571D02*
X153066905Y-121588952D01*
X153066905Y-121588952D02*
X153019286Y-121541333D01*
X153019286Y-121541333D02*
X152971667Y-121446095D01*
X152971667Y-121446095D02*
X152971667Y-121350857D01*
X152971667Y-121350857D02*
X153019286Y-121255619D01*
X153019286Y-121255619D02*
X153066905Y-121208000D01*
X153066905Y-121208000D02*
X153162143Y-121160380D01*
X153162143Y-121160380D02*
X153400238Y-121160380D01*
X153400238Y-121160380D02*
X153543095Y-121208000D01*
X153876429Y-121160380D02*
X154114524Y-122160380D01*
X154114524Y-122160380D02*
X154305000Y-121446095D01*
X154305000Y-121446095D02*
X154495476Y-122160380D01*
X154495476Y-122160380D02*
X154733572Y-121160380D01*
X155590714Y-121160380D02*
X155114524Y-121160380D01*
X155114524Y-121160380D02*
X155066905Y-121636571D01*
X155066905Y-121636571D02*
X155114524Y-121588952D01*
X155114524Y-121588952D02*
X155209762Y-121541333D01*
X155209762Y-121541333D02*
X155447857Y-121541333D01*
X155447857Y-121541333D02*
X155543095Y-121588952D01*
X155543095Y-121588952D02*
X155590714Y-121636571D01*
X155590714Y-121636571D02*
X155638333Y-121731809D01*
X155638333Y-121731809D02*
X155638333Y-121969904D01*
X155638333Y-121969904D02*
X155590714Y-122065142D01*
X155590714Y-122065142D02*
X155543095Y-122112761D01*
X155543095Y-122112761D02*
X155447857Y-122160380D01*
X155447857Y-122160380D02*
X155209762Y-122160380D01*
X155209762Y-122160380D02*
X155114524Y-122112761D01*
X155114524Y-122112761D02*
X155066905Y-122065142D01*
%TO.C,SW3*%
X140271667Y-74614761D02*
X140414524Y-74662380D01*
X140414524Y-74662380D02*
X140652619Y-74662380D01*
X140652619Y-74662380D02*
X140747857Y-74614761D01*
X140747857Y-74614761D02*
X140795476Y-74567142D01*
X140795476Y-74567142D02*
X140843095Y-74471904D01*
X140843095Y-74471904D02*
X140843095Y-74376666D01*
X140843095Y-74376666D02*
X140795476Y-74281428D01*
X140795476Y-74281428D02*
X140747857Y-74233809D01*
X140747857Y-74233809D02*
X140652619Y-74186190D01*
X140652619Y-74186190D02*
X140462143Y-74138571D01*
X140462143Y-74138571D02*
X140366905Y-74090952D01*
X140366905Y-74090952D02*
X140319286Y-74043333D01*
X140319286Y-74043333D02*
X140271667Y-73948095D01*
X140271667Y-73948095D02*
X140271667Y-73852857D01*
X140271667Y-73852857D02*
X140319286Y-73757619D01*
X140319286Y-73757619D02*
X140366905Y-73710000D01*
X140366905Y-73710000D02*
X140462143Y-73662380D01*
X140462143Y-73662380D02*
X140700238Y-73662380D01*
X140700238Y-73662380D02*
X140843095Y-73710000D01*
X141176429Y-73662380D02*
X141414524Y-74662380D01*
X141414524Y-74662380D02*
X141605000Y-73948095D01*
X141605000Y-73948095D02*
X141795476Y-74662380D01*
X141795476Y-74662380D02*
X142033572Y-73662380D01*
X142319286Y-73662380D02*
X142938333Y-73662380D01*
X142938333Y-73662380D02*
X142605000Y-74043333D01*
X142605000Y-74043333D02*
X142747857Y-74043333D01*
X142747857Y-74043333D02*
X142843095Y-74090952D01*
X142843095Y-74090952D02*
X142890714Y-74138571D01*
X142890714Y-74138571D02*
X142938333Y-74233809D01*
X142938333Y-74233809D02*
X142938333Y-74471904D01*
X142938333Y-74471904D02*
X142890714Y-74567142D01*
X142890714Y-74567142D02*
X142843095Y-74614761D01*
X142843095Y-74614761D02*
X142747857Y-74662380D01*
X142747857Y-74662380D02*
X142462143Y-74662380D01*
X142462143Y-74662380D02*
X142366905Y-74614761D01*
X142366905Y-74614761D02*
X142319286Y-74567142D01*
D12*
%TO.C,J2*%
X130790000Y-126490000D02*
X130790000Y-135910000D01*
X130790000Y-126490000D02*
X132300000Y-126490000D01*
X130790000Y-132600000D02*
X142910000Y-132600000D01*
X130790000Y-135910000D02*
X142910000Y-135910000D01*
X133050000Y-125200000D02*
X133650000Y-125200000D01*
X133350000Y-125800000D02*
X133050000Y-125200000D01*
X133650000Y-125200000D02*
X133350000Y-125800000D01*
X134400000Y-126490000D02*
X135800000Y-126490000D01*
X137900000Y-126490000D02*
X139300000Y-126490000D01*
X142910000Y-126490000D02*
X141400000Y-126490000D01*
X142910000Y-135910000D02*
X142910000Y-126490000D01*
%TO.C,R8*%
X148690000Y-104817936D02*
X148690000Y-105272064D01*
X147220000Y-104817936D02*
X147220000Y-105272064D01*
%TO.C,R7*%
X141070000Y-104817936D02*
X141070000Y-105272064D01*
X139600000Y-104817936D02*
X139600000Y-105272064D01*
%TO.C,R2*%
X148690000Y-85227936D02*
X148690000Y-85682064D01*
X147220000Y-85227936D02*
X147220000Y-85682064D01*
%TO.C,Y1*%
X161300000Y-83682500D02*
X156200000Y-83682500D01*
X156200000Y-83682500D02*
X156200000Y-99657500D01*
X161300000Y-99657500D02*
X161300000Y-83682500D01*
%TO.C,R4*%
X151230000Y-85227936D02*
X151230000Y-85682064D01*
X149760000Y-85227936D02*
X149760000Y-85682064D01*
%TO.C,C1*%
X144880000Y-110863748D02*
X144880000Y-111386252D01*
X143410000Y-110863748D02*
X143410000Y-111386252D01*
D10*
%TO.C,U2*%
X149675000Y-99950000D02*
X149675000Y-99725000D01*
X149675000Y-99950000D02*
X149350000Y-99950000D01*
X149675000Y-99725000D02*
X151100000Y-99725000D01*
X149675000Y-92700000D02*
X149675000Y-93025000D01*
X149675000Y-92700000D02*
X149350000Y-92700000D01*
X142425000Y-99950000D02*
X142750000Y-99950000D01*
X142425000Y-99950000D02*
X142425000Y-99625000D01*
X142425000Y-92700000D02*
X142750000Y-92700000D01*
X142425000Y-92700000D02*
X142425000Y-93025000D01*
D12*
%TO.C,RS-TX*%
X135435000Y-121285000D02*
G75*
G03*
X135435000Y-121285000I-1450000J0D01*
G01*
%TO.C,RS-RX*%
X135435000Y-116205000D02*
G75*
G03*
X135435000Y-116205000I-1450000J0D01*
G01*
%TO.C,C8*%
X151230000Y-104783748D02*
X151230000Y-105306252D01*
X149760000Y-104783748D02*
X149760000Y-105306252D01*
%TO.C,R1*%
X146150000Y-85227936D02*
X146150000Y-85682064D01*
X144680000Y-85227936D02*
X144680000Y-85682064D01*
%TO.C,C10*%
X154205000Y-90853752D02*
X154205000Y-90331248D01*
X155675000Y-90853752D02*
X155675000Y-90331248D01*
%TO.C,C7*%
X134520000Y-105311752D02*
X134520000Y-104789248D01*
X135990000Y-105311752D02*
X135990000Y-104789248D01*
%TO.C,R5*%
X143610000Y-104817936D02*
X143610000Y-105272064D01*
X142140000Y-104817936D02*
X142140000Y-105272064D01*
%TO.C,R6*%
X146150000Y-104817936D02*
X146150000Y-105272064D01*
X144680000Y-104817936D02*
X144680000Y-105272064D01*
%TO.C,J1*%
X144125000Y-126490000D02*
X144125000Y-135910000D01*
X144125000Y-126490000D02*
X145635000Y-126490000D01*
X144125000Y-132600000D02*
X152745000Y-132600000D01*
X144125000Y-135910000D02*
X152745000Y-135910000D01*
X146385000Y-125200000D02*
X146985000Y-125200000D01*
X146685000Y-125800000D02*
X146385000Y-125200000D01*
X146985000Y-125200000D02*
X146685000Y-125800000D01*
X147735000Y-126490000D02*
X149135000Y-126490000D01*
X152745000Y-126490000D02*
X151235000Y-126490000D01*
X152745000Y-135910000D02*
X152745000Y-126490000D01*
%TO.C,C3*%
X142340000Y-110863748D02*
X142340000Y-111386252D01*
X140870000Y-110863748D02*
X140870000Y-111386252D01*
%TO.C,SW4*%
X146120000Y-67945000D02*
X161410000Y-67945000D01*
X146145000Y-83210000D02*
X146145000Y-67920000D01*
X161385000Y-83210000D02*
X161385000Y-67920000D01*
X161410000Y-83185000D02*
X146120000Y-83185000D01*
%TO.C,C4*%
X139800000Y-110863748D02*
X139800000Y-111386252D01*
X138330000Y-110863748D02*
X138330000Y-111386252D01*
%TO.C,C5*%
X137060000Y-105311752D02*
X137060000Y-104789248D01*
X138530000Y-105311752D02*
X138530000Y-104789248D01*
%TO.C,C9*%
X155675000Y-96216248D02*
X155675000Y-96738752D01*
X154205000Y-96216248D02*
X154205000Y-96738752D01*
%TO.C,J3*%
X158055000Y-105985000D02*
X159385000Y-105985000D01*
X158055000Y-107315000D02*
X158055000Y-105985000D01*
X158055000Y-108585000D02*
X158055000Y-121345000D01*
X158055000Y-108585000D02*
X160715000Y-108585000D01*
X158055000Y-121345000D02*
X160715000Y-121345000D01*
X160715000Y-108585000D02*
X160715000Y-121345000D01*
%TO.C,C6*%
X148490000Y-111386252D02*
X148490000Y-110863748D01*
X149960000Y-111386252D02*
X149960000Y-110863748D01*
%TO.C,GND*%
X135435000Y-111760000D02*
G75*
G03*
X135435000Y-111760000I-1450000J0D01*
G01*
%TO.C,R3*%
X143610000Y-85227936D02*
X143610000Y-85682064D01*
X142140000Y-85227936D02*
X142140000Y-85682064D01*
%TO.C,U1*%
X147300000Y-119340000D02*
X147300000Y-115840000D01*
X147300000Y-119340000D02*
X147300000Y-121290000D01*
X137180000Y-119340000D02*
X137180000Y-117390000D01*
X137180000Y-119340000D02*
X137180000Y-121290000D01*
%TO.C,SW1*%
X129610000Y-51435000D02*
X144900000Y-51435000D01*
X129635000Y-66700000D02*
X129635000Y-51410000D01*
X144875000Y-66700000D02*
X144875000Y-51410000D01*
X144900000Y-66675000D02*
X129610000Y-66675000D01*
%TO.C,SW2*%
X146120000Y-51435000D02*
X161410000Y-51435000D01*
X146145000Y-66700000D02*
X146145000Y-51410000D01*
X161385000Y-66700000D02*
X161385000Y-51410000D01*
X161410000Y-66675000D02*
X146120000Y-66675000D01*
%TO.C,J4*%
X131845000Y-85680000D02*
X133175000Y-85680000D01*
X131845000Y-87010000D02*
X131845000Y-85680000D01*
X131845000Y-88280000D02*
X131845000Y-93420000D01*
X131845000Y-88280000D02*
X134445000Y-88280000D01*
X131845000Y-93420000D02*
X137045000Y-93420000D01*
X134445000Y-85680000D02*
X137045000Y-85680000D01*
X134445000Y-88280000D02*
X134445000Y-85680000D01*
X137045000Y-85680000D02*
X137045000Y-93420000D01*
%TO.C,5V*%
X135435000Y-98425000D02*
G75*
G03*
X135435000Y-98425000I-1450000J0D01*
G01*
%TO.C,R9*%
X153770000Y-104817936D02*
X153770000Y-105272064D01*
X152300000Y-104817936D02*
X152300000Y-105272064D01*
%TO.C,C2*%
X147420000Y-110863748D02*
X147420000Y-111386252D01*
X145950000Y-110863748D02*
X145950000Y-111386252D01*
%TO.C,SW5*%
X160075000Y-124405000D02*
X160075000Y-130865000D01*
X160045000Y-124405000D02*
X160075000Y-124405000D01*
X158145000Y-124405000D02*
X155545000Y-124405000D01*
X153615000Y-124405000D02*
X153645000Y-124405000D01*
X153615000Y-124405000D02*
X153615000Y-130865000D01*
X160075000Y-130865000D02*
X160045000Y-130865000D01*
X158145000Y-130865000D02*
X155545000Y-130865000D01*
X153615000Y-130865000D02*
X153645000Y-130865000D01*
%TO.C,SW3*%
X129610000Y-67945000D02*
X144900000Y-67945000D01*
X129635000Y-83210000D02*
X129635000Y-67920000D01*
X144875000Y-83210000D02*
X144875000Y-67920000D01*
X144900000Y-83185000D02*
X129610000Y-83185000D01*
%TD*%
M02*
