M48
; DRILL file {KiCad (7.0.0)} date Fri Oct 20 06:35:37 2023
; FORMAT={-:-/ absolute / metric / decimal}
; #@! TF.CreationDate,2023-10-20T06:35:37+02:00
; #@! TF.GenerationSoftware,Kicad,Pcbnew,(7.0.0)
; #@! TF.FileFunction,Plated,1,2,PTH
FMAT,2
METRIC
; #@! TA.AperFunction,Plated,PTH,ViaDrill
T1C0.400
; #@! TA.AperFunction,Plated,PTH,ComponentDrill
T2C1.000
; #@! TA.AperFunction,Plated,PTH,ComponentDrill
T3C1.200
; #@! TA.AperFunction,Plated,PTH,ComponentDrill
T4C1.500
%
G90
G05
T1
X128.27Y-55.245
X128.27Y-60.325
X128.27Y-65.405
X128.27Y-70.485
X128.27Y-75.565
X128.27Y-80.645
X128.27Y-85.725
X128.27Y-90.805
X128.27Y-95.885
X128.27Y-100.965
X128.27Y-106.045
X128.27Y-111.125
X128.27Y-116.205
X128.27Y-121.285
X128.27Y-126.365
X128.905Y-50.8
X128.905Y-132.715
X130.937Y-107.315
X133.35Y-50.165
X133.35Y-133.35
X135.255Y-123.825
X136.525Y-95.885
X137.033Y-110.109
X137.795Y-113.665
X137.795Y-119.38
X138.43Y-50.165
X138.43Y-133.35
X139.065Y-88.265
X141.605Y-100.965
X141.605Y-107.315
X142.24Y-124.46
X143.383Y-96.393
X143.51Y-50.165
X143.51Y-133.35
X144.145Y-107.95
X144.399Y-97.409
X145.415Y-97.917
X146.431Y-98.425
X147.32Y-88.9
X147.32Y-93.98
X147.447Y-99.175
X147.955Y-113.411
X148.59Y-50.165
X148.59Y-133.35
X149.479Y-102.997
X150.495Y-107.315
X151.13Y-121.92
X151.765Y-113.03
X152.019Y-96.901
X153.035Y-107.315
X153.67Y-50.165
X153.67Y-133.35
X154.559Y-118.999
X154.813Y-112.903
X154.94Y-84.455
X155.067Y-93.345
X156.21Y-111.76
X158.75Y-50.165
X158.75Y-133.35
X159.095Y-127.381
X161.925Y-50.8
X161.925Y-132.715
X162.56Y-55.245
X162.56Y-60.325
X162.56Y-65.405
X162.56Y-70.485
X162.56Y-75.565
X162.56Y-80.645
X162.56Y-85.725
X162.56Y-90.805
X162.56Y-95.885
X162.56Y-100.965
X162.56Y-106.045
X162.56Y-111.125
X162.56Y-116.205
X162.56Y-121.285
X162.56Y-126.365
T2
X133.175Y-87.01
X133.175Y-89.55
X133.175Y-92.09
X135.715Y-87.01
X135.715Y-89.55
X135.715Y-92.09
X159.385Y-107.315
X159.385Y-109.855
X159.385Y-112.395
X159.385Y-114.935
X159.385Y-117.475
X159.385Y-120.015
T3
X131.286Y-54.864
X131.286Y-71.374
X133.064Y-53.086
X133.064Y-69.596
X133.35Y-127.8
X136.85Y-127.8
X140.35Y-127.8
X146.685Y-127.8
X147.796Y-54.864
X147.796Y-71.374
X149.574Y-53.086
X149.574Y-69.596
X150.185Y-127.8
T4
X137.255Y-53.975
X137.255Y-59.055
X137.255Y-70.485
X137.255Y-75.565
X153.765Y-53.975
X153.765Y-59.055
X153.765Y-70.485
X153.765Y-75.565
T0
M30
