%TF.GenerationSoftware,KiCad,Pcbnew,(7.0.0)*%
%TF.CreationDate,2023-10-20T06:38:37+02:00*%
%TF.ProjectId,SEM_ProjektoroSCH-Rev2,53454d5f-5072-46f6-9a65-6b746f726f53,2.3*%
%TF.SameCoordinates,Original*%
%TF.FileFunction,Copper,L2,Bot*%
%TF.FilePolarity,Positive*%
%FSLAX46Y46*%
G04 Gerber Fmt 4.6, Leading zero omitted, Abs format (unit mm)*
G04 Created by KiCad (PCBNEW (7.0.0)) date 2023-10-20 06:38:37*
%MOMM*%
%LPD*%
G01*
G04 APERTURE LIST*
G04 Aperture macros list*
%AMRoundRect*
0 Rectangle with rounded corners*
0 $1 Rounding radius*
0 $2 $3 $4 $5 $6 $7 $8 $9 X,Y pos of 4 corners*
0 Add a 4 corners polygon primitive as box body*
4,1,4,$2,$3,$4,$5,$6,$7,$8,$9,$2,$3,0*
0 Add four circle primitives for the rounded corners*
1,1,$1+$1,$2,$3*
1,1,$1+$1,$4,$5*
1,1,$1+$1,$6,$7*
1,1,$1+$1,$8,$9*
0 Add four rect primitives between the rounded corners*
20,1,$1+$1,$2,$3,$4,$5,0*
20,1,$1+$1,$4,$5,$6,$7,0*
20,1,$1+$1,$6,$7,$8,$9,0*
20,1,$1+$1,$8,$9,$2,$3,0*%
G04 Aperture macros list end*
%TA.AperFunction,ComponentPad*%
%ADD10RoundRect,0.250000X-0.650000X-1.550000X0.650000X-1.550000X0.650000X1.550000X-0.650000X1.550000X0*%
%TD*%
%TA.AperFunction,ComponentPad*%
%ADD11O,1.800000X3.600000*%
%TD*%
%TA.AperFunction,ComponentPad*%
%ADD12C,3.000000*%
%TD*%
%TA.AperFunction,ComponentPad*%
%ADD13C,2.000000*%
%TD*%
%TA.AperFunction,ComponentPad*%
%ADD14R,1.700000X1.700000*%
%TD*%
%TA.AperFunction,ComponentPad*%
%ADD15O,1.700000X1.700000*%
%TD*%
%TA.AperFunction,ViaPad*%
%ADD16C,0.800000*%
%TD*%
%TA.AperFunction,Conductor*%
%ADD17C,0.508000*%
%TD*%
%TA.AperFunction,Conductor*%
%ADD18C,0.254000*%
%TD*%
G04 APERTURE END LIST*
D10*
%TO.P,J2,1,Pin_1*%
%TO.N,GND*%
X133350000Y-127800000D03*
D11*
%TO.P,J2,2,Pin_2*%
%TO.N,232-TX*%
X136849999Y-127799999D03*
%TO.P,J2,3,Pin_3*%
%TO.N,232-RX*%
X140349999Y-127799999D03*
%TD*%
D10*
%TO.P,J1,1,Pin_1*%
%TO.N,GND*%
X146685000Y-127800000D03*
D11*
%TO.P,J1,2,Pin_2*%
%TO.N,+5V*%
X150184999Y-127799999D03*
%TD*%
D12*
%TO.P,SW4,1,A*%
%TO.N,GND*%
X153765000Y-70485000D03*
%TO.P,SW4,2,B*%
%TO.N,BTN-4*%
X153765000Y-75565000D03*
D13*
%TO.P,SW4,3,A*%
%TO.N,Net-(R4-Pad1)*%
X147796000Y-71374000D03*
%TO.P,SW4,4,K*%
%TO.N,GND*%
X149574000Y-69596000D03*
%TD*%
D14*
%TO.P,J3,1,Pin_1*%
%TO.N,GND*%
X159384999Y-107314999D03*
D15*
%TO.P,J3,2,Pin_2*%
X159384999Y-109854999D03*
%TO.P,J3,3,Pin_3*%
%TO.N,+5V*%
X159384999Y-112394999D03*
%TO.P,J3,4,Pin_4*%
%TO.N,MCU-TX*%
X159384999Y-114934999D03*
%TO.P,J3,5,Pin_5*%
%TO.N,MCU-RX*%
X159384999Y-117474999D03*
%TO.P,J3,6,Pin_6*%
%TO.N,PROG-DTR*%
X159384999Y-120014999D03*
%TD*%
D12*
%TO.P,SW1,1,A*%
%TO.N,GND*%
X137255000Y-53975000D03*
%TO.P,SW1,2,B*%
%TO.N,BTN-1*%
X137255000Y-59055000D03*
D13*
%TO.P,SW1,3,A*%
%TO.N,Net-(R1-Pad1)*%
X131286000Y-54864000D03*
%TO.P,SW1,4,K*%
%TO.N,GND*%
X133064000Y-53086000D03*
%TD*%
D12*
%TO.P,SW2,1,A*%
%TO.N,GND*%
X153765000Y-53975000D03*
%TO.P,SW2,2,B*%
%TO.N,BTN-2*%
X153765000Y-59055000D03*
D13*
%TO.P,SW2,3,A*%
%TO.N,Net-(R2-Pad1)*%
X147796000Y-54864000D03*
%TO.P,SW2,4,K*%
%TO.N,GND*%
X149574000Y-53086000D03*
%TD*%
D14*
%TO.P,J4,1,Pin_1*%
%TO.N,MISO*%
X133174999Y-87009999D03*
D15*
%TO.P,J4,2,Pin_2*%
%TO.N,+5V*%
X135714999Y-87009999D03*
%TO.P,J4,3,Pin_3*%
%TO.N,SCK*%
X133174999Y-89549999D03*
%TO.P,J4,4,Pin_4*%
%TO.N,MOSI*%
X135714999Y-89549999D03*
%TO.P,J4,5,Pin_5*%
%TO.N,RST*%
X133174999Y-92089999D03*
%TO.P,J4,6,Pin_6*%
%TO.N,GND*%
X135714999Y-92089999D03*
%TD*%
D12*
%TO.P,SW3,1,A*%
%TO.N,GND*%
X137255000Y-70485000D03*
%TO.P,SW3,2,B*%
%TO.N,BTN-3*%
X137255000Y-75565000D03*
D13*
%TO.P,SW3,3,A*%
%TO.N,Net-(R3-Pad1)*%
X131286000Y-71374000D03*
%TO.P,SW3,4,K*%
%TO.N,GND*%
X133064000Y-69596000D03*
%TD*%
D16*
%TO.N,+5V*%
X130937000Y-107315000D03*
X153035000Y-107315000D03*
X141605000Y-107315000D03*
%TO.N,GND*%
X162560000Y-60325000D03*
X128270000Y-106045000D03*
X128270000Y-116205000D03*
X128270000Y-90805000D03*
X162560000Y-111125000D03*
X162560000Y-121285000D03*
X161925000Y-50800000D03*
X162560000Y-65405000D03*
X128270000Y-126365000D03*
X153670000Y-50165000D03*
X128270000Y-65405000D03*
X162560000Y-100965000D03*
X144145000Y-107950000D03*
X128270000Y-111125000D03*
X147320000Y-93980000D03*
X162560000Y-70485000D03*
X152019000Y-96901000D03*
X153670000Y-133350000D03*
X128270000Y-95885000D03*
X148590000Y-50165000D03*
X147320000Y-88900000D03*
X155067000Y-93345000D03*
X137795000Y-113665000D03*
X156210000Y-111760000D03*
X162560000Y-126365000D03*
X154940000Y-84455000D03*
X128270000Y-85725000D03*
X162560000Y-85725000D03*
X147955000Y-113411000D03*
X139065000Y-88265000D03*
X161925000Y-132715000D03*
X159095000Y-127381000D03*
X138430000Y-133350000D03*
X158750000Y-50165000D03*
X162560000Y-90805000D03*
X162560000Y-116205000D03*
X128270000Y-121285000D03*
X143383000Y-96393000D03*
X151130000Y-121920000D03*
X162560000Y-55245000D03*
X148590000Y-133350000D03*
X128270000Y-55245000D03*
X128905000Y-50800000D03*
X135255000Y-123825000D03*
X136525000Y-95885000D03*
X137795000Y-119380000D03*
X141605000Y-100965000D03*
X128270000Y-70485000D03*
X137033000Y-110109000D03*
X142240000Y-124460000D03*
X162560000Y-106045000D03*
X128270000Y-60325000D03*
X128270000Y-100965000D03*
X128905000Y-132715000D03*
X151765000Y-113030000D03*
X128270000Y-75565000D03*
X162560000Y-80645000D03*
X162560000Y-95885000D03*
X128270000Y-80645000D03*
X158750000Y-133350000D03*
X138430000Y-50165000D03*
X133350000Y-50165000D03*
X143510000Y-133350000D03*
X133350000Y-133350000D03*
X143510000Y-50165000D03*
X162560000Y-75565000D03*
%TO.N,RST*%
X154559000Y-118999000D03*
X149479000Y-102997000D03*
%TO.N,PROG-DTR*%
X150495000Y-107315000D03*
%TO.N,MCU-RX*%
X154813000Y-112903000D03*
%TO.N,BTN-1*%
X145415000Y-97917000D03*
%TO.N,BTN-2*%
X146431000Y-98425000D03*
%TO.N,BTN-3*%
X144399000Y-97409000D03*
%TO.N,BTN-4*%
X147447000Y-99175498D03*
%TD*%
D17*
%TO.N,+5V*%
X130937000Y-107315000D02*
X141605000Y-107315000D01*
X153035000Y-107315000D02*
X158115000Y-112395000D01*
X158115000Y-112395000D02*
X159385000Y-112395000D01*
D18*
%TO.N,RST*%
X154559000Y-118999000D02*
X149479000Y-113919000D01*
X149479000Y-102997000D02*
X140843000Y-102997000D01*
X133175000Y-95329000D02*
X133175000Y-92090000D01*
X149479000Y-113919000D02*
X149479000Y-102997000D01*
X140843000Y-102997000D02*
X133175000Y-95329000D01*
%TO.N,PROG-DTR*%
X150495000Y-107315000D02*
X152781000Y-109601000D01*
X152781000Y-109601000D02*
X152781000Y-113411000D01*
X152781000Y-113411000D02*
X159385000Y-120015000D01*
%TO.N,MCU-RX*%
X159385000Y-117475000D02*
X154813000Y-112903000D01*
%TO.N,BTN-1*%
X145415000Y-67215000D02*
X137255000Y-59055000D01*
X145415000Y-97917000D02*
X145415000Y-67215000D01*
%TO.N,BTN-2*%
X153765000Y-61627000D02*
X153765000Y-59055000D01*
X146431000Y-68961000D02*
X153765000Y-61627000D01*
X146431000Y-98425000D02*
X146431000Y-68961000D01*
%TO.N,BTN-3*%
X144399000Y-81915000D02*
X138049000Y-75565000D01*
X144399000Y-97409000D02*
X144399000Y-81915000D01*
X138049000Y-75565000D02*
X137255000Y-75565000D01*
%TO.N,BTN-4*%
X147447000Y-99175498D02*
X145137364Y-99175498D01*
X153035000Y-92849134D02*
X153035000Y-76295000D01*
X145137364Y-99175498D02*
X145113866Y-99152000D01*
X145113866Y-99152000D02*
X146732134Y-99152000D01*
X146732134Y-99152000D02*
X153035000Y-92849134D01*
X153035000Y-76295000D02*
X153765000Y-75565000D01*
%TD*%
%TA.AperFunction,Conductor*%
%TO.N,GND*%
G36*
X161929853Y-49530882D02*
G01*
X161932530Y-49531092D01*
X161981632Y-49534957D01*
X161982244Y-49535008D01*
X162122579Y-49547285D01*
X162140698Y-49550236D01*
X162219494Y-49569153D01*
X162222476Y-49569910D01*
X162327793Y-49598130D01*
X162343150Y-49603343D01*
X162371451Y-49615065D01*
X162423496Y-49636622D01*
X162428376Y-49638770D01*
X162521788Y-49682329D01*
X162534135Y-49688963D01*
X162610163Y-49735553D01*
X162616477Y-49739694D01*
X162699166Y-49797594D01*
X162708551Y-49804860D01*
X162776975Y-49863299D01*
X162784124Y-49869908D01*
X162855090Y-49940874D01*
X162861699Y-49948023D01*
X162920135Y-50016442D01*
X162927414Y-50025844D01*
X162985299Y-50108513D01*
X162989451Y-50114845D01*
X163036028Y-50190852D01*
X163042680Y-50203231D01*
X163086208Y-50296577D01*
X163088388Y-50301531D01*
X163121655Y-50381848D01*
X163126868Y-50397205D01*
X163155067Y-50502442D01*
X163155866Y-50505589D01*
X163174760Y-50584290D01*
X163177714Y-50602430D01*
X163189967Y-50742487D01*
X163190057Y-50743562D01*
X163194118Y-50795145D01*
X163194500Y-50804877D01*
X163194500Y-132710123D01*
X163194117Y-132719855D01*
X163190056Y-132771436D01*
X163189967Y-132772511D01*
X163177714Y-132912568D01*
X163174760Y-132930708D01*
X163155866Y-133009409D01*
X163155067Y-133012556D01*
X163126868Y-133117793D01*
X163121655Y-133133150D01*
X163088388Y-133213467D01*
X163086208Y-133218421D01*
X163042680Y-133311767D01*
X163036025Y-133324153D01*
X162989451Y-133400153D01*
X162985299Y-133406485D01*
X162927414Y-133489154D01*
X162920129Y-133498563D01*
X162861699Y-133566975D01*
X162855090Y-133574124D01*
X162784124Y-133645090D01*
X162776975Y-133651699D01*
X162708563Y-133710129D01*
X162699154Y-133717414D01*
X162616485Y-133775299D01*
X162610153Y-133779451D01*
X162534153Y-133826025D01*
X162521767Y-133832680D01*
X162428421Y-133876208D01*
X162423467Y-133878388D01*
X162343150Y-133911655D01*
X162327793Y-133916868D01*
X162222556Y-133945067D01*
X162219409Y-133945866D01*
X162140708Y-133964760D01*
X162122568Y-133967714D01*
X161982511Y-133979967D01*
X161981436Y-133980056D01*
X161929855Y-133984117D01*
X161920123Y-133984500D01*
X128909877Y-133984500D01*
X128900147Y-133984118D01*
X128895829Y-133983778D01*
X128848562Y-133980057D01*
X128847487Y-133979967D01*
X128707430Y-133967714D01*
X128689290Y-133964760D01*
X128610589Y-133945866D01*
X128607442Y-133945067D01*
X128502205Y-133916868D01*
X128486848Y-133911655D01*
X128406531Y-133878388D01*
X128401577Y-133876208D01*
X128308224Y-133832676D01*
X128295852Y-133826028D01*
X128248554Y-133797044D01*
X128219845Y-133779451D01*
X128213513Y-133775299D01*
X128178624Y-133750869D01*
X128130839Y-133717410D01*
X128121442Y-133710135D01*
X128053023Y-133651699D01*
X128045874Y-133645090D01*
X127974908Y-133574124D01*
X127968299Y-133566975D01*
X127947545Y-133542675D01*
X127909860Y-133498551D01*
X127902594Y-133489166D01*
X127844694Y-133406477D01*
X127840547Y-133400153D01*
X127793963Y-133324135D01*
X127787329Y-133311788D01*
X127743770Y-133218376D01*
X127741622Y-133213496D01*
X127708343Y-133133150D01*
X127703130Y-133117793D01*
X127674910Y-133012476D01*
X127674153Y-133009494D01*
X127655236Y-132930698D01*
X127652285Y-132912579D01*
X127640008Y-132772244D01*
X127639957Y-132771632D01*
X127635882Y-132719853D01*
X127635500Y-132710126D01*
X127635500Y-129396829D01*
X131950001Y-129396829D01*
X131950321Y-129403111D01*
X131959805Y-129495959D01*
X131962623Y-129509122D01*
X132013370Y-129662267D01*
X132019432Y-129675266D01*
X132103890Y-129812194D01*
X132112794Y-129823455D01*
X132226544Y-129937205D01*
X132237805Y-129946109D01*
X132374733Y-130030567D01*
X132387732Y-130036629D01*
X132540874Y-130087375D01*
X132554041Y-130090194D01*
X132646890Y-130099680D01*
X132653168Y-130100000D01*
X133083674Y-130100000D01*
X133096549Y-130096549D01*
X133100000Y-130083674D01*
X133100000Y-130083673D01*
X133600000Y-130083673D01*
X133603450Y-130096548D01*
X133616326Y-130099999D01*
X134046829Y-130099999D01*
X134053111Y-130099678D01*
X134145959Y-130090194D01*
X134159122Y-130087376D01*
X134312267Y-130036629D01*
X134325266Y-130030567D01*
X134462194Y-129946109D01*
X134473455Y-129937205D01*
X134587205Y-129823455D01*
X134596109Y-129812194D01*
X134680567Y-129675266D01*
X134686629Y-129662267D01*
X134737375Y-129509125D01*
X134740194Y-129495958D01*
X134749680Y-129403109D01*
X134750000Y-129396832D01*
X134750000Y-128759497D01*
X135449500Y-128759497D01*
X135449722Y-128762113D01*
X135449723Y-128762121D01*
X135464206Y-128932287D01*
X135464207Y-128932296D01*
X135464654Y-128937541D01*
X135524725Y-129168249D01*
X135622923Y-129385486D01*
X135756421Y-129583003D01*
X135921379Y-129755118D01*
X135925614Y-129758250D01*
X136108815Y-129893745D01*
X136108818Y-129893746D01*
X136113053Y-129896879D01*
X136325926Y-130004207D01*
X136553877Y-130074016D01*
X136790346Y-130104298D01*
X137028532Y-130094180D01*
X137261581Y-130043954D01*
X137482790Y-129955064D01*
X137685795Y-129830069D01*
X137864755Y-129672564D01*
X138014523Y-129487080D01*
X138130790Y-129278954D01*
X138210211Y-129054171D01*
X138250500Y-128819200D01*
X138250500Y-128759497D01*
X138949500Y-128759497D01*
X138949722Y-128762113D01*
X138949723Y-128762121D01*
X138964206Y-128932287D01*
X138964207Y-128932296D01*
X138964654Y-128937541D01*
X139024725Y-129168249D01*
X139122923Y-129385486D01*
X139256421Y-129583003D01*
X139421379Y-129755118D01*
X139425614Y-129758250D01*
X139608815Y-129893745D01*
X139608818Y-129893746D01*
X139613053Y-129896879D01*
X139825926Y-130004207D01*
X140053877Y-130074016D01*
X140290346Y-130104298D01*
X140528532Y-130094180D01*
X140761581Y-130043954D01*
X140982790Y-129955064D01*
X141185795Y-129830069D01*
X141364755Y-129672564D01*
X141514523Y-129487080D01*
X141564941Y-129396829D01*
X145285001Y-129396829D01*
X145285321Y-129403111D01*
X145294805Y-129495959D01*
X145297623Y-129509122D01*
X145348370Y-129662267D01*
X145354432Y-129675266D01*
X145438890Y-129812194D01*
X145447794Y-129823455D01*
X145561544Y-129937205D01*
X145572805Y-129946109D01*
X145709733Y-130030567D01*
X145722732Y-130036629D01*
X145875874Y-130087375D01*
X145889041Y-130090194D01*
X145981890Y-130099680D01*
X145988168Y-130100000D01*
X146418674Y-130100000D01*
X146431549Y-130096549D01*
X146435000Y-130083674D01*
X146435000Y-130083673D01*
X146935000Y-130083673D01*
X146938450Y-130096548D01*
X146951326Y-130099999D01*
X147381829Y-130099999D01*
X147388111Y-130099678D01*
X147480959Y-130090194D01*
X147494122Y-130087376D01*
X147647267Y-130036629D01*
X147660266Y-130030567D01*
X147797194Y-129946109D01*
X147808455Y-129937205D01*
X147922205Y-129823455D01*
X147931109Y-129812194D01*
X148015567Y-129675266D01*
X148021629Y-129662267D01*
X148072375Y-129509125D01*
X148075194Y-129495958D01*
X148084680Y-129403109D01*
X148085000Y-129396832D01*
X148085000Y-128759497D01*
X148784500Y-128759497D01*
X148784722Y-128762113D01*
X148784723Y-128762121D01*
X148799206Y-128932287D01*
X148799207Y-128932296D01*
X148799654Y-128937541D01*
X148859725Y-129168249D01*
X148957923Y-129385486D01*
X149091421Y-129583003D01*
X149256379Y-129755118D01*
X149260614Y-129758250D01*
X149443815Y-129893745D01*
X149443818Y-129893746D01*
X149448053Y-129896879D01*
X149660926Y-130004207D01*
X149888877Y-130074016D01*
X150125346Y-130104298D01*
X150363532Y-130094180D01*
X150596581Y-130043954D01*
X150817790Y-129955064D01*
X151020795Y-129830069D01*
X151199755Y-129672564D01*
X151349523Y-129487080D01*
X151465790Y-129278954D01*
X151545211Y-129054171D01*
X151585500Y-128819200D01*
X151585500Y-126840503D01*
X151570346Y-126662459D01*
X151510275Y-126431751D01*
X151412077Y-126214514D01*
X151278579Y-126016997D01*
X151113621Y-125844882D01*
X151021222Y-125776544D01*
X150926184Y-125706254D01*
X150926178Y-125706250D01*
X150921947Y-125703121D01*
X150917243Y-125700749D01*
X150917241Y-125700748D01*
X150802652Y-125642974D01*
X150709074Y-125595793D01*
X150622996Y-125569432D01*
X150486159Y-125527526D01*
X150486156Y-125527525D01*
X150481123Y-125525984D01*
X150475899Y-125525315D01*
X150249871Y-125496370D01*
X150249870Y-125496369D01*
X150244654Y-125495702D01*
X150239399Y-125495925D01*
X150239394Y-125495925D01*
X150011733Y-125505596D01*
X150011728Y-125505596D01*
X150006468Y-125505820D01*
X150001328Y-125506927D01*
X150001318Y-125506929D01*
X149778571Y-125554935D01*
X149778563Y-125554937D01*
X149773419Y-125556046D01*
X149768532Y-125558009D01*
X149768528Y-125558011D01*
X149557091Y-125642974D01*
X149557084Y-125642977D01*
X149552210Y-125644936D01*
X149547738Y-125647689D01*
X149547731Y-125647693D01*
X149353684Y-125767172D01*
X149353674Y-125767179D01*
X149349205Y-125769931D01*
X149345263Y-125773400D01*
X149345254Y-125773407D01*
X149174201Y-125923954D01*
X149170245Y-125927436D01*
X149166937Y-125931532D01*
X149166932Y-125931538D01*
X149023787Y-126108820D01*
X149023784Y-126108823D01*
X149020477Y-126112920D01*
X149017913Y-126117508D01*
X149017910Y-126117514D01*
X148906778Y-126316448D01*
X148906775Y-126316453D01*
X148904210Y-126321046D01*
X148902457Y-126326006D01*
X148902454Y-126326014D01*
X148826544Y-126540859D01*
X148826541Y-126540869D01*
X148824789Y-126545829D01*
X148823899Y-126551015D01*
X148823897Y-126551026D01*
X148785390Y-126775606D01*
X148785389Y-126775612D01*
X148784500Y-126780800D01*
X148784500Y-128759497D01*
X148085000Y-128759497D01*
X148085000Y-128066326D01*
X148081549Y-128053450D01*
X148068674Y-128050000D01*
X146951326Y-128050000D01*
X146938450Y-128053450D01*
X146935000Y-128066326D01*
X146935000Y-130083673D01*
X146435000Y-130083673D01*
X146435000Y-128066326D01*
X146431549Y-128053450D01*
X146418674Y-128050000D01*
X145301327Y-128050000D01*
X145288451Y-128053450D01*
X145285001Y-128066326D01*
X145285001Y-129396829D01*
X141564941Y-129396829D01*
X141630790Y-129278954D01*
X141710211Y-129054171D01*
X141750500Y-128819200D01*
X141750500Y-127533674D01*
X145285000Y-127533674D01*
X145288450Y-127546549D01*
X145301326Y-127550000D01*
X146418674Y-127550000D01*
X146431549Y-127546549D01*
X146435000Y-127533674D01*
X146935000Y-127533674D01*
X146938450Y-127546549D01*
X146951326Y-127550000D01*
X148068673Y-127550000D01*
X148081548Y-127546549D01*
X148084999Y-127533674D01*
X148084999Y-126203171D01*
X148084678Y-126196888D01*
X148075194Y-126104040D01*
X148072376Y-126090877D01*
X148021629Y-125937732D01*
X148015567Y-125924733D01*
X147931109Y-125787805D01*
X147922205Y-125776544D01*
X147808455Y-125662794D01*
X147797194Y-125653890D01*
X147660266Y-125569432D01*
X147647267Y-125563370D01*
X147494125Y-125512624D01*
X147480958Y-125509805D01*
X147388109Y-125500319D01*
X147381832Y-125500000D01*
X146951326Y-125500000D01*
X146938450Y-125503450D01*
X146935000Y-125516326D01*
X146935000Y-127533674D01*
X146435000Y-127533674D01*
X146435000Y-125516327D01*
X146431549Y-125503451D01*
X146418674Y-125500001D01*
X145988171Y-125500001D01*
X145981888Y-125500321D01*
X145889040Y-125509805D01*
X145875877Y-125512623D01*
X145722732Y-125563370D01*
X145709733Y-125569432D01*
X145572805Y-125653890D01*
X145561544Y-125662794D01*
X145447794Y-125776544D01*
X145438890Y-125787805D01*
X145354432Y-125924733D01*
X145348370Y-125937732D01*
X145297624Y-126090874D01*
X145294805Y-126104041D01*
X145285319Y-126196890D01*
X145285000Y-126203168D01*
X145285000Y-127533674D01*
X141750500Y-127533674D01*
X141750500Y-126840503D01*
X141735346Y-126662459D01*
X141675275Y-126431751D01*
X141577077Y-126214514D01*
X141443579Y-126016997D01*
X141278621Y-125844882D01*
X141186222Y-125776544D01*
X141091184Y-125706254D01*
X141091178Y-125706250D01*
X141086947Y-125703121D01*
X141082243Y-125700749D01*
X141082241Y-125700748D01*
X140967652Y-125642974D01*
X140874074Y-125595793D01*
X140787996Y-125569432D01*
X140651159Y-125527526D01*
X140651156Y-125527525D01*
X140646123Y-125525984D01*
X140640899Y-125525315D01*
X140414871Y-125496370D01*
X140414870Y-125496369D01*
X140409654Y-125495702D01*
X140404399Y-125495925D01*
X140404394Y-125495925D01*
X140176733Y-125505596D01*
X140176728Y-125505596D01*
X140171468Y-125505820D01*
X140166328Y-125506927D01*
X140166318Y-125506929D01*
X139943571Y-125554935D01*
X139943563Y-125554937D01*
X139938419Y-125556046D01*
X139933532Y-125558009D01*
X139933528Y-125558011D01*
X139722091Y-125642974D01*
X139722084Y-125642977D01*
X139717210Y-125644936D01*
X139712738Y-125647689D01*
X139712731Y-125647693D01*
X139518684Y-125767172D01*
X139518674Y-125767179D01*
X139514205Y-125769931D01*
X139510263Y-125773400D01*
X139510254Y-125773407D01*
X139339201Y-125923954D01*
X139335245Y-125927436D01*
X139331937Y-125931532D01*
X139331932Y-125931538D01*
X139188787Y-126108820D01*
X139188784Y-126108823D01*
X139185477Y-126112920D01*
X139182913Y-126117508D01*
X139182910Y-126117514D01*
X139071778Y-126316448D01*
X139071775Y-126316453D01*
X139069210Y-126321046D01*
X139067457Y-126326006D01*
X139067454Y-126326014D01*
X138991544Y-126540859D01*
X138991541Y-126540869D01*
X138989789Y-126545829D01*
X138988899Y-126551015D01*
X138988897Y-126551026D01*
X138950390Y-126775606D01*
X138950389Y-126775612D01*
X138949500Y-126780800D01*
X138949500Y-128759497D01*
X138250500Y-128759497D01*
X138250500Y-126840503D01*
X138235346Y-126662459D01*
X138175275Y-126431751D01*
X138077077Y-126214514D01*
X137943579Y-126016997D01*
X137778621Y-125844882D01*
X137686222Y-125776544D01*
X137591184Y-125706254D01*
X137591178Y-125706250D01*
X137586947Y-125703121D01*
X137582243Y-125700749D01*
X137582241Y-125700748D01*
X137467652Y-125642974D01*
X137374074Y-125595793D01*
X137287996Y-125569432D01*
X137151159Y-125527526D01*
X137151156Y-125527525D01*
X137146123Y-125525984D01*
X137140899Y-125525315D01*
X136914871Y-125496370D01*
X136914870Y-125496369D01*
X136909654Y-125495702D01*
X136904399Y-125495925D01*
X136904394Y-125495925D01*
X136676733Y-125505596D01*
X136676728Y-125505596D01*
X136671468Y-125505820D01*
X136666328Y-125506927D01*
X136666318Y-125506929D01*
X136443571Y-125554935D01*
X136443563Y-125554937D01*
X136438419Y-125556046D01*
X136433532Y-125558009D01*
X136433528Y-125558011D01*
X136222091Y-125642974D01*
X136222084Y-125642977D01*
X136217210Y-125644936D01*
X136212738Y-125647689D01*
X136212731Y-125647693D01*
X136018684Y-125767172D01*
X136018674Y-125767179D01*
X136014205Y-125769931D01*
X136010263Y-125773400D01*
X136010254Y-125773407D01*
X135839201Y-125923954D01*
X135835245Y-125927436D01*
X135831937Y-125931532D01*
X135831932Y-125931538D01*
X135688787Y-126108820D01*
X135688784Y-126108823D01*
X135685477Y-126112920D01*
X135682913Y-126117508D01*
X135682910Y-126117514D01*
X135571778Y-126316448D01*
X135571775Y-126316453D01*
X135569210Y-126321046D01*
X135567457Y-126326006D01*
X135567454Y-126326014D01*
X135491544Y-126540859D01*
X135491541Y-126540869D01*
X135489789Y-126545829D01*
X135488899Y-126551015D01*
X135488897Y-126551026D01*
X135450390Y-126775606D01*
X135450389Y-126775612D01*
X135449500Y-126780800D01*
X135449500Y-128759497D01*
X134750000Y-128759497D01*
X134750000Y-128066326D01*
X134746549Y-128053450D01*
X134733674Y-128050000D01*
X133616326Y-128050000D01*
X133603450Y-128053450D01*
X133600000Y-128066326D01*
X133600000Y-130083673D01*
X133100000Y-130083673D01*
X133100000Y-128066326D01*
X133096549Y-128053450D01*
X133083674Y-128050000D01*
X131966327Y-128050000D01*
X131953451Y-128053450D01*
X131950001Y-128066326D01*
X131950001Y-129396829D01*
X127635500Y-129396829D01*
X127635500Y-127533674D01*
X131950000Y-127533674D01*
X131953450Y-127546549D01*
X131966326Y-127550000D01*
X133083674Y-127550000D01*
X133096549Y-127546549D01*
X133100000Y-127533674D01*
X133600000Y-127533674D01*
X133603450Y-127546549D01*
X133616326Y-127550000D01*
X134733673Y-127550000D01*
X134746548Y-127546549D01*
X134749999Y-127533674D01*
X134749999Y-126203171D01*
X134749678Y-126196888D01*
X134740194Y-126104040D01*
X134737376Y-126090877D01*
X134686629Y-125937732D01*
X134680567Y-125924733D01*
X134596109Y-125787805D01*
X134587205Y-125776544D01*
X134473455Y-125662794D01*
X134462194Y-125653890D01*
X134325266Y-125569432D01*
X134312267Y-125563370D01*
X134159125Y-125512624D01*
X134145958Y-125509805D01*
X134053109Y-125500319D01*
X134046832Y-125500000D01*
X133616326Y-125500000D01*
X133603450Y-125503450D01*
X133600000Y-125516326D01*
X133600000Y-127533674D01*
X133100000Y-127533674D01*
X133100000Y-125516327D01*
X133096549Y-125503451D01*
X133083674Y-125500001D01*
X132653171Y-125500001D01*
X132646888Y-125500321D01*
X132554040Y-125509805D01*
X132540877Y-125512623D01*
X132387732Y-125563370D01*
X132374733Y-125569432D01*
X132237805Y-125653890D01*
X132226544Y-125662794D01*
X132112794Y-125776544D01*
X132103890Y-125787805D01*
X132019432Y-125924733D01*
X132013370Y-125937732D01*
X131962624Y-126090874D01*
X131959805Y-126104041D01*
X131950319Y-126196890D01*
X131950000Y-126203168D01*
X131950000Y-127533674D01*
X127635500Y-127533674D01*
X127635500Y-107315000D01*
X130031540Y-107315000D01*
X130032219Y-107321460D01*
X130050646Y-107496795D01*
X130050647Y-107496803D01*
X130051326Y-107503256D01*
X130053331Y-107509428D01*
X130053333Y-107509435D01*
X130107813Y-107677105D01*
X130109821Y-107683284D01*
X130204467Y-107847216D01*
X130331129Y-107987888D01*
X130484270Y-108099151D01*
X130657197Y-108176144D01*
X130842354Y-108215500D01*
X131025143Y-108215500D01*
X131031646Y-108215500D01*
X131216803Y-108176144D01*
X131389730Y-108099151D01*
X131397949Y-108093179D01*
X131432514Y-108075569D01*
X131470831Y-108069500D01*
X141071169Y-108069500D01*
X141109486Y-108075569D01*
X141144050Y-108093179D01*
X141152270Y-108099151D01*
X141325197Y-108176144D01*
X141510354Y-108215500D01*
X141693143Y-108215500D01*
X141699646Y-108215500D01*
X141884803Y-108176144D01*
X142057730Y-108099151D01*
X142210871Y-107987888D01*
X142337533Y-107847216D01*
X142432179Y-107683284D01*
X142490674Y-107503256D01*
X142510460Y-107315000D01*
X142490674Y-107126744D01*
X142432179Y-106946716D01*
X142337533Y-106782784D01*
X142210871Y-106642112D01*
X142205613Y-106638292D01*
X142205611Y-106638290D01*
X142062988Y-106534669D01*
X142062987Y-106534668D01*
X142057730Y-106530849D01*
X142051792Y-106528205D01*
X141890745Y-106456501D01*
X141890740Y-106456499D01*
X141884803Y-106453856D01*
X141878444Y-106452504D01*
X141878440Y-106452503D01*
X141706008Y-106415852D01*
X141706005Y-106415851D01*
X141699646Y-106414500D01*
X141510354Y-106414500D01*
X141503995Y-106415851D01*
X141503991Y-106415852D01*
X141331559Y-106452503D01*
X141331552Y-106452505D01*
X141325197Y-106453856D01*
X141319262Y-106456498D01*
X141319254Y-106456501D01*
X141158207Y-106528205D01*
X141158202Y-106528207D01*
X141152270Y-106530849D01*
X141144052Y-106536820D01*
X141109486Y-106554431D01*
X141071169Y-106560500D01*
X131470831Y-106560500D01*
X131432514Y-106554431D01*
X131397948Y-106536820D01*
X131389730Y-106530849D01*
X131383792Y-106528205D01*
X131222745Y-106456501D01*
X131222740Y-106456499D01*
X131216803Y-106453856D01*
X131210444Y-106452504D01*
X131210440Y-106452503D01*
X131038008Y-106415852D01*
X131038005Y-106415851D01*
X131031646Y-106414500D01*
X130842354Y-106414500D01*
X130835995Y-106415851D01*
X130835991Y-106415852D01*
X130663559Y-106452503D01*
X130663552Y-106452505D01*
X130657197Y-106453856D01*
X130651262Y-106456498D01*
X130651254Y-106456501D01*
X130490207Y-106528205D01*
X130490202Y-106528207D01*
X130484270Y-106530849D01*
X130479016Y-106534665D01*
X130479011Y-106534669D01*
X130336388Y-106638290D01*
X130336381Y-106638295D01*
X130331129Y-106642112D01*
X130326784Y-106646937D01*
X130326779Y-106646942D01*
X130208813Y-106777956D01*
X130208808Y-106777962D01*
X130204467Y-106782784D01*
X130201222Y-106788404D01*
X130201218Y-106788410D01*
X130113069Y-106941089D01*
X130113066Y-106941094D01*
X130109821Y-106946716D01*
X130107815Y-106952888D01*
X130107813Y-106952894D01*
X130053333Y-107120564D01*
X130053331Y-107120573D01*
X130051326Y-107126744D01*
X130050648Y-107133194D01*
X130050646Y-107133204D01*
X130048038Y-107158024D01*
X130031540Y-107315000D01*
X127635500Y-107315000D01*
X127635500Y-92090000D01*
X131819341Y-92090000D01*
X131839937Y-92325408D01*
X131841336Y-92330630D01*
X131841337Y-92330634D01*
X131899694Y-92548430D01*
X131899697Y-92548438D01*
X131901097Y-92553663D01*
X131903385Y-92558570D01*
X131903386Y-92558572D01*
X131998678Y-92762927D01*
X131998681Y-92762933D01*
X132000965Y-92767830D01*
X132004064Y-92772257D01*
X132004066Y-92772259D01*
X132133399Y-92956966D01*
X132133402Y-92956970D01*
X132136505Y-92961401D01*
X132303599Y-93128495D01*
X132308032Y-93131599D01*
X132308038Y-93131604D01*
X132494623Y-93262252D01*
X132533489Y-93306570D01*
X132547500Y-93363827D01*
X132547500Y-95250955D01*
X132546976Y-95262066D01*
X132545320Y-95269477D01*
X132545565Y-95277274D01*
X132545565Y-95277275D01*
X132547439Y-95336919D01*
X132547500Y-95340813D01*
X132547500Y-95368476D01*
X132547988Y-95372343D01*
X132547989Y-95372354D01*
X132548007Y-95372494D01*
X132548921Y-95384117D01*
X132550053Y-95420144D01*
X132550054Y-95420150D01*
X132550299Y-95427943D01*
X132552474Y-95435432D01*
X132552475Y-95435433D01*
X132555917Y-95447280D01*
X132559860Y-95466324D01*
X132561404Y-95478548D01*
X132561407Y-95478559D01*
X132562384Y-95486293D01*
X132565253Y-95493541D01*
X132565256Y-95493550D01*
X132578519Y-95527050D01*
X132582302Y-95538097D01*
X132594532Y-95580191D01*
X132598502Y-95586903D01*
X132598503Y-95586906D01*
X132604776Y-95597513D01*
X132613336Y-95614985D01*
X132620747Y-95633703D01*
X132625332Y-95640014D01*
X132625334Y-95640017D01*
X132646512Y-95669167D01*
X132652924Y-95678928D01*
X132671264Y-95709939D01*
X132671266Y-95709942D01*
X132675237Y-95716656D01*
X132680755Y-95722174D01*
X132689471Y-95730890D01*
X132702103Y-95745679D01*
X132713937Y-95761967D01*
X132719947Y-95766938D01*
X132719949Y-95766941D01*
X132747705Y-95789902D01*
X132756346Y-95797765D01*
X140344104Y-103385523D01*
X140351591Y-103393751D01*
X140355660Y-103400162D01*
X140361344Y-103405499D01*
X140361346Y-103405502D01*
X140404846Y-103446351D01*
X140407643Y-103449061D01*
X140427205Y-103468624D01*
X140430405Y-103471106D01*
X140439276Y-103478684D01*
X140465545Y-103503352D01*
X140471233Y-103508693D01*
X140488878Y-103518393D01*
X140505136Y-103529073D01*
X140521038Y-103541408D01*
X140528201Y-103544507D01*
X140528200Y-103544507D01*
X140561260Y-103558813D01*
X140571751Y-103563952D01*
X140610166Y-103585072D01*
X140629663Y-103590077D01*
X140648063Y-103596377D01*
X140666542Y-103604374D01*
X140709847Y-103611232D01*
X140721270Y-103613598D01*
X140763728Y-103624500D01*
X140783859Y-103624500D01*
X140803257Y-103626027D01*
X140823133Y-103629175D01*
X140866768Y-103625050D01*
X140878439Y-103624500D01*
X148727500Y-103624500D01*
X148789500Y-103641113D01*
X148834887Y-103686500D01*
X148851500Y-103748500D01*
X148851500Y-113840955D01*
X148850976Y-113852066D01*
X148849320Y-113859477D01*
X148849565Y-113867274D01*
X148849565Y-113867275D01*
X148851439Y-113926919D01*
X148851500Y-113930813D01*
X148851500Y-113958476D01*
X148851988Y-113962343D01*
X148851989Y-113962354D01*
X148852007Y-113962494D01*
X148852921Y-113974117D01*
X148854053Y-114010144D01*
X148854054Y-114010150D01*
X148854299Y-114017943D01*
X148856474Y-114025432D01*
X148856475Y-114025433D01*
X148859917Y-114037280D01*
X148863860Y-114056324D01*
X148865404Y-114068548D01*
X148865407Y-114068559D01*
X148866384Y-114076293D01*
X148869253Y-114083541D01*
X148869256Y-114083550D01*
X148882519Y-114117050D01*
X148886302Y-114128097D01*
X148898532Y-114170191D01*
X148902502Y-114176903D01*
X148902503Y-114176906D01*
X148908776Y-114187513D01*
X148917336Y-114204985D01*
X148924747Y-114223703D01*
X148929332Y-114230014D01*
X148929334Y-114230017D01*
X148950512Y-114259167D01*
X148956924Y-114268928D01*
X148975264Y-114299939D01*
X148975266Y-114299942D01*
X148979237Y-114306656D01*
X148984754Y-114312173D01*
X148984755Y-114312174D01*
X148993471Y-114320890D01*
X149006103Y-114335679D01*
X149017937Y-114351967D01*
X149023947Y-114356938D01*
X149023949Y-114356941D01*
X149051705Y-114379902D01*
X149060346Y-114387765D01*
X153620370Y-118947789D01*
X153644610Y-118982086D01*
X153656010Y-119022508D01*
X153669204Y-119148034D01*
X153673326Y-119187256D01*
X153675331Y-119193428D01*
X153675333Y-119193435D01*
X153723632Y-119342081D01*
X153731821Y-119367284D01*
X153826467Y-119531216D01*
X153830811Y-119536041D01*
X153830813Y-119536043D01*
X153948779Y-119667057D01*
X153953129Y-119671888D01*
X153958387Y-119675708D01*
X153958388Y-119675709D01*
X154029699Y-119727519D01*
X154106270Y-119783151D01*
X154279197Y-119860144D01*
X154464354Y-119899500D01*
X154647143Y-119899500D01*
X154653646Y-119899500D01*
X154838803Y-119860144D01*
X155011730Y-119783151D01*
X155164871Y-119671888D01*
X155291533Y-119531216D01*
X155386179Y-119367284D01*
X155444674Y-119187256D01*
X155464460Y-118999000D01*
X155444674Y-118810744D01*
X155386179Y-118630716D01*
X155291533Y-118466784D01*
X155164871Y-118326112D01*
X155159613Y-118322292D01*
X155159611Y-118322290D01*
X155016988Y-118218669D01*
X155016987Y-118218668D01*
X155011730Y-118214849D01*
X155005792Y-118212205D01*
X154844745Y-118140501D01*
X154844740Y-118140499D01*
X154838803Y-118137856D01*
X154832444Y-118136504D01*
X154832440Y-118136503D01*
X154660008Y-118099852D01*
X154660005Y-118099851D01*
X154653646Y-118098500D01*
X154647143Y-118098500D01*
X154597281Y-118098500D01*
X154549828Y-118089061D01*
X154509600Y-118062181D01*
X150142819Y-113695400D01*
X150115939Y-113655172D01*
X150106500Y-113607719D01*
X150106500Y-108306167D01*
X150118579Y-108252784D01*
X150152464Y-108209801D01*
X150201552Y-108185593D01*
X150256281Y-108184877D01*
X150331087Y-108200777D01*
X150400354Y-108215500D01*
X150456719Y-108215500D01*
X150504172Y-108224939D01*
X150544400Y-108251819D01*
X152117181Y-109824600D01*
X152144061Y-109864828D01*
X152153500Y-109912281D01*
X152153500Y-113332955D01*
X152152976Y-113344066D01*
X152151320Y-113351477D01*
X152151565Y-113359274D01*
X152151565Y-113359275D01*
X152153439Y-113418919D01*
X152153500Y-113422813D01*
X152153500Y-113450476D01*
X152153988Y-113454343D01*
X152153989Y-113454354D01*
X152154007Y-113454494D01*
X152154921Y-113466117D01*
X152156053Y-113502144D01*
X152156054Y-113502150D01*
X152156299Y-113509943D01*
X152158474Y-113517432D01*
X152158475Y-113517433D01*
X152161917Y-113529280D01*
X152165860Y-113548324D01*
X152167404Y-113560548D01*
X152167407Y-113560559D01*
X152168384Y-113568293D01*
X152171253Y-113575541D01*
X152171256Y-113575550D01*
X152184519Y-113609050D01*
X152188302Y-113620097D01*
X152200532Y-113662191D01*
X152204502Y-113668903D01*
X152204503Y-113668906D01*
X152210776Y-113679513D01*
X152219336Y-113696985D01*
X152226747Y-113715703D01*
X152231332Y-113722014D01*
X152231334Y-113722017D01*
X152252512Y-113751167D01*
X152258924Y-113760928D01*
X152277264Y-113791939D01*
X152277266Y-113791942D01*
X152281237Y-113798656D01*
X152286755Y-113804174D01*
X152295471Y-113812890D01*
X152308103Y-113827679D01*
X152319937Y-113843967D01*
X152325947Y-113848938D01*
X152325949Y-113848941D01*
X152353705Y-113871902D01*
X152362346Y-113879765D01*
X158044164Y-119561583D01*
X158076258Y-119617170D01*
X158076258Y-119681356D01*
X158051337Y-119774362D01*
X158051334Y-119774376D01*
X158049937Y-119779592D01*
X158049465Y-119784977D01*
X158049465Y-119784982D01*
X158039446Y-119899500D01*
X158029341Y-120015000D01*
X158049937Y-120250408D01*
X158051336Y-120255630D01*
X158051337Y-120255634D01*
X158109694Y-120473430D01*
X158109697Y-120473438D01*
X158111097Y-120478663D01*
X158113385Y-120483570D01*
X158113386Y-120483572D01*
X158208678Y-120687927D01*
X158208681Y-120687933D01*
X158210965Y-120692830D01*
X158214064Y-120697257D01*
X158214066Y-120697259D01*
X158343399Y-120881966D01*
X158343402Y-120881970D01*
X158346505Y-120886401D01*
X158513599Y-121053495D01*
X158707170Y-121189035D01*
X158921337Y-121288903D01*
X159149592Y-121350063D01*
X159385000Y-121370659D01*
X159620408Y-121350063D01*
X159848663Y-121288903D01*
X160062830Y-121189035D01*
X160256401Y-121053495D01*
X160423495Y-120886401D01*
X160559035Y-120692830D01*
X160658903Y-120478663D01*
X160720063Y-120250408D01*
X160740659Y-120015000D01*
X160720063Y-119779592D01*
X160658903Y-119551337D01*
X160559035Y-119337171D01*
X160423495Y-119143599D01*
X160256401Y-118976505D01*
X160251970Y-118973402D01*
X160251966Y-118973399D01*
X160070841Y-118846574D01*
X160031976Y-118802256D01*
X160017965Y-118744999D01*
X160031976Y-118687742D01*
X160070839Y-118643426D01*
X160256401Y-118513495D01*
X160423495Y-118346401D01*
X160559035Y-118152830D01*
X160658903Y-117938663D01*
X160720063Y-117710408D01*
X160740659Y-117475000D01*
X160720063Y-117239592D01*
X160658903Y-117011337D01*
X160559035Y-116797171D01*
X160423495Y-116603599D01*
X160256401Y-116436505D01*
X160251968Y-116433401D01*
X160251961Y-116433395D01*
X160070842Y-116306575D01*
X160031976Y-116262257D01*
X160017965Y-116205000D01*
X160031976Y-116147743D01*
X160070842Y-116103425D01*
X160251961Y-115976604D01*
X160251961Y-115976603D01*
X160256401Y-115973495D01*
X160423495Y-115806401D01*
X160559035Y-115612830D01*
X160658903Y-115398663D01*
X160720063Y-115170408D01*
X160740659Y-114935000D01*
X160720063Y-114699592D01*
X160658903Y-114471337D01*
X160559035Y-114257171D01*
X160423495Y-114063599D01*
X160256401Y-113896505D01*
X160251968Y-113893401D01*
X160251961Y-113893395D01*
X160070842Y-113766575D01*
X160031976Y-113722257D01*
X160017965Y-113665000D01*
X160031976Y-113607743D01*
X160070842Y-113563425D01*
X160251961Y-113436604D01*
X160251961Y-113436603D01*
X160256401Y-113433495D01*
X160423495Y-113266401D01*
X160559035Y-113072830D01*
X160658903Y-112858663D01*
X160720063Y-112630408D01*
X160740659Y-112395000D01*
X160720063Y-112159592D01*
X160658903Y-111931337D01*
X160559035Y-111717171D01*
X160423495Y-111523599D01*
X160256401Y-111356505D01*
X160251970Y-111353402D01*
X160251966Y-111353399D01*
X160070405Y-111226269D01*
X160031540Y-111181951D01*
X160017529Y-111124694D01*
X160031540Y-111067437D01*
X160070406Y-111023119D01*
X160251638Y-110896219D01*
X160259909Y-110889278D01*
X160419278Y-110729909D01*
X160426215Y-110721643D01*
X160555498Y-110537008D01*
X160560886Y-110527676D01*
X160656143Y-110323397D01*
X160659831Y-110313263D01*
X160711943Y-110118780D01*
X160712311Y-110107551D01*
X160701369Y-110105000D01*
X158068631Y-110105000D01*
X158057688Y-110107551D01*
X158058056Y-110118780D01*
X158110168Y-110313263D01*
X158113856Y-110323397D01*
X158209113Y-110527676D01*
X158214501Y-110537008D01*
X158343784Y-110721643D01*
X158350721Y-110729909D01*
X158510090Y-110889278D01*
X158518356Y-110896215D01*
X158699595Y-111023120D01*
X158738460Y-111067438D01*
X158752471Y-111124695D01*
X158738460Y-111181952D01*
X158699594Y-111226270D01*
X158518034Y-111353399D01*
X158518029Y-111353402D01*
X158513599Y-111356505D01*
X158509775Y-111360328D01*
X158509769Y-111360334D01*
X158416245Y-111453859D01*
X158360658Y-111485953D01*
X158296470Y-111485953D01*
X158240883Y-111453859D01*
X154996542Y-108209518D01*
X158035000Y-108209518D01*
X158035353Y-108216114D01*
X158040573Y-108264667D01*
X158044111Y-108279641D01*
X158088547Y-108398777D01*
X158096962Y-108414189D01*
X158172498Y-108515092D01*
X158184907Y-108527501D01*
X158285810Y-108603037D01*
X158301222Y-108611452D01*
X158424986Y-108657614D01*
X158475366Y-108692593D01*
X158502819Y-108747437D01*
X158500630Y-108808730D01*
X158469335Y-108861477D01*
X158350714Y-108980098D01*
X158343784Y-108988357D01*
X158214508Y-109172982D01*
X158209110Y-109182332D01*
X158113856Y-109386602D01*
X158110168Y-109396736D01*
X158058056Y-109591219D01*
X158057688Y-109602448D01*
X158068631Y-109605000D01*
X159118674Y-109605000D01*
X159131549Y-109601549D01*
X159135000Y-109588674D01*
X159635000Y-109588674D01*
X159638450Y-109601549D01*
X159651326Y-109605000D01*
X160701369Y-109605000D01*
X160712311Y-109602448D01*
X160711943Y-109591219D01*
X160659831Y-109396736D01*
X160656143Y-109386602D01*
X160560889Y-109182332D01*
X160555491Y-109172982D01*
X160426215Y-108988357D01*
X160419280Y-108980092D01*
X160300665Y-108861477D01*
X160269369Y-108808731D01*
X160267180Y-108747438D01*
X160294633Y-108692593D01*
X160345013Y-108657614D01*
X160468777Y-108611452D01*
X160484189Y-108603037D01*
X160585092Y-108527501D01*
X160597501Y-108515092D01*
X160673037Y-108414189D01*
X160681452Y-108398777D01*
X160725888Y-108279641D01*
X160729426Y-108264667D01*
X160734646Y-108216114D01*
X160735000Y-108209518D01*
X160735000Y-107581326D01*
X160731549Y-107568450D01*
X160718674Y-107565000D01*
X159651326Y-107565000D01*
X159638450Y-107568450D01*
X159635000Y-107581326D01*
X159635000Y-109588674D01*
X159135000Y-109588674D01*
X159135000Y-107581326D01*
X159131549Y-107568450D01*
X159118674Y-107565000D01*
X158051326Y-107565000D01*
X158038450Y-107568450D01*
X158035000Y-107581326D01*
X158035000Y-108209518D01*
X154996542Y-108209518D01*
X153945048Y-107158024D01*
X153914798Y-107108661D01*
X153899490Y-107061549D01*
X153895307Y-107048674D01*
X158035000Y-107048674D01*
X158038450Y-107061549D01*
X158051326Y-107065000D01*
X159118674Y-107065000D01*
X159131549Y-107061549D01*
X159135000Y-107048674D01*
X159635000Y-107048674D01*
X159638450Y-107061549D01*
X159651326Y-107065000D01*
X160718674Y-107065000D01*
X160731549Y-107061549D01*
X160735000Y-107048674D01*
X160735000Y-106420482D01*
X160734646Y-106413885D01*
X160729426Y-106365332D01*
X160725888Y-106350358D01*
X160681452Y-106231222D01*
X160673037Y-106215810D01*
X160597501Y-106114907D01*
X160585092Y-106102498D01*
X160484189Y-106026962D01*
X160468777Y-106018547D01*
X160349641Y-105974111D01*
X160334667Y-105970573D01*
X160286114Y-105965353D01*
X160279518Y-105965000D01*
X159651326Y-105965000D01*
X159638450Y-105968450D01*
X159635000Y-105981326D01*
X159635000Y-107048674D01*
X159135000Y-107048674D01*
X159135000Y-105981326D01*
X159131549Y-105968450D01*
X159118674Y-105965000D01*
X158490482Y-105965000D01*
X158483885Y-105965353D01*
X158435332Y-105970573D01*
X158420358Y-105974111D01*
X158301222Y-106018547D01*
X158285810Y-106026962D01*
X158184907Y-106102498D01*
X158172498Y-106114907D01*
X158096962Y-106215810D01*
X158088547Y-106231222D01*
X158044111Y-106350358D01*
X158040573Y-106365332D01*
X158035353Y-106413885D01*
X158035000Y-106420482D01*
X158035000Y-107048674D01*
X153895307Y-107048674D01*
X153862179Y-106946716D01*
X153767533Y-106782784D01*
X153640871Y-106642112D01*
X153635613Y-106638292D01*
X153635611Y-106638290D01*
X153492988Y-106534669D01*
X153492987Y-106534668D01*
X153487730Y-106530849D01*
X153481792Y-106528205D01*
X153320745Y-106456501D01*
X153320740Y-106456499D01*
X153314803Y-106453856D01*
X153308444Y-106452504D01*
X153308440Y-106452503D01*
X153136008Y-106415852D01*
X153136005Y-106415851D01*
X153129646Y-106414500D01*
X152940354Y-106414500D01*
X152933995Y-106415851D01*
X152933991Y-106415852D01*
X152761559Y-106452503D01*
X152761552Y-106452505D01*
X152755197Y-106453856D01*
X152749262Y-106456498D01*
X152749254Y-106456501D01*
X152588207Y-106528205D01*
X152588202Y-106528207D01*
X152582270Y-106530849D01*
X152577016Y-106534665D01*
X152577011Y-106534669D01*
X152434388Y-106638290D01*
X152434381Y-106638295D01*
X152429129Y-106642112D01*
X152424784Y-106646937D01*
X152424779Y-106646942D01*
X152306813Y-106777956D01*
X152306808Y-106777962D01*
X152302467Y-106782784D01*
X152299222Y-106788404D01*
X152299218Y-106788410D01*
X152211069Y-106941089D01*
X152211066Y-106941094D01*
X152207821Y-106946716D01*
X152205815Y-106952888D01*
X152205813Y-106952894D01*
X152151333Y-107120564D01*
X152151331Y-107120573D01*
X152149326Y-107126744D01*
X152148648Y-107133194D01*
X152148646Y-107133204D01*
X152146038Y-107158024D01*
X152129540Y-107315000D01*
X152130219Y-107321460D01*
X152148646Y-107496795D01*
X152148647Y-107496803D01*
X152149326Y-107503256D01*
X152151331Y-107509428D01*
X152151333Y-107509435D01*
X152205813Y-107677105D01*
X152207821Y-107683284D01*
X152302467Y-107847216D01*
X152429129Y-107987888D01*
X152582270Y-108099151D01*
X152755197Y-108176144D01*
X152813145Y-108188461D01*
X152846532Y-108200777D01*
X152875046Y-108222070D01*
X157536233Y-112883257D01*
X157548011Y-112896884D01*
X157562461Y-112916294D01*
X157567992Y-112920935D01*
X157600634Y-112948325D01*
X157608609Y-112955633D01*
X157612559Y-112959583D01*
X157615389Y-112961821D01*
X157615394Y-112961825D01*
X157637009Y-112978916D01*
X157639805Y-112981193D01*
X157697573Y-113029667D01*
X157704031Y-113032909D01*
X157707028Y-113034881D01*
X157707248Y-113035040D01*
X157707490Y-113035175D01*
X157710539Y-113037055D01*
X157716209Y-113041539D01*
X157784613Y-113073436D01*
X157787776Y-113074968D01*
X157848728Y-113105580D01*
X157848733Y-113105582D01*
X157855189Y-113108824D01*
X157862225Y-113110491D01*
X157865577Y-113111711D01*
X157865842Y-113111821D01*
X157866096Y-113111893D01*
X157869508Y-113113023D01*
X157876060Y-113116079D01*
X157883139Y-113117540D01*
X157883140Y-113117541D01*
X157908527Y-113122782D01*
X157949938Y-113131333D01*
X157953411Y-113132103D01*
X158026812Y-113149500D01*
X158034043Y-113149500D01*
X158037602Y-113149916D01*
X158037876Y-113149960D01*
X158038139Y-113149972D01*
X158041719Y-113150285D01*
X158048794Y-113151746D01*
X158124194Y-113149552D01*
X158127802Y-113149500D01*
X158200099Y-113149500D01*
X158257356Y-113163511D01*
X158301674Y-113202376D01*
X158343399Y-113261966D01*
X158343402Y-113261970D01*
X158346505Y-113266401D01*
X158513599Y-113433495D01*
X158518032Y-113436599D01*
X158518038Y-113436604D01*
X158699158Y-113563425D01*
X158738024Y-113607743D01*
X158752035Y-113665000D01*
X158738024Y-113722257D01*
X158699159Y-113766575D01*
X158518041Y-113893395D01*
X158513599Y-113896505D01*
X158509775Y-113900328D01*
X158509769Y-113900334D01*
X158350334Y-114059769D01*
X158350328Y-114059775D01*
X158346505Y-114063599D01*
X158343402Y-114068029D01*
X158343399Y-114068034D01*
X158214073Y-114252731D01*
X158214068Y-114252738D01*
X158210965Y-114257171D01*
X158208677Y-114262077D01*
X158208675Y-114262081D01*
X158113386Y-114466427D01*
X158113383Y-114466432D01*
X158111097Y-114471337D01*
X158109698Y-114476557D01*
X158109694Y-114476569D01*
X158051337Y-114694365D01*
X158051335Y-114694371D01*
X158049937Y-114699592D01*
X158029341Y-114934996D01*
X158016298Y-114989327D01*
X157978698Y-115033350D01*
X157925211Y-115055505D01*
X157867495Y-115050963D01*
X157818132Y-115020713D01*
X155751629Y-112954210D01*
X155727389Y-112919912D01*
X155715989Y-112879490D01*
X155699353Y-112721204D01*
X155699352Y-112721203D01*
X155698674Y-112714744D01*
X155640179Y-112534716D01*
X155545533Y-112370784D01*
X155418871Y-112230112D01*
X155413613Y-112226292D01*
X155413611Y-112226290D01*
X155270988Y-112122669D01*
X155270987Y-112122668D01*
X155265730Y-112118849D01*
X155259792Y-112116205D01*
X155098745Y-112044501D01*
X155098740Y-112044499D01*
X155092803Y-112041856D01*
X155086444Y-112040504D01*
X155086440Y-112040503D01*
X154914008Y-112003852D01*
X154914005Y-112003851D01*
X154907646Y-112002500D01*
X154718354Y-112002500D01*
X154711995Y-112003851D01*
X154711991Y-112003852D01*
X154539559Y-112040503D01*
X154539552Y-112040505D01*
X154533197Y-112041856D01*
X154527262Y-112044498D01*
X154527254Y-112044501D01*
X154366207Y-112116205D01*
X154366202Y-112116207D01*
X154360270Y-112118849D01*
X154355016Y-112122665D01*
X154355011Y-112122669D01*
X154212388Y-112226290D01*
X154212381Y-112226295D01*
X154207129Y-112230112D01*
X154202784Y-112234937D01*
X154202779Y-112234942D01*
X154084813Y-112365956D01*
X154084808Y-112365962D01*
X154080467Y-112370784D01*
X154077222Y-112376404D01*
X154077218Y-112376410D01*
X153989069Y-112529089D01*
X153989066Y-112529094D01*
X153985821Y-112534716D01*
X153983815Y-112540888D01*
X153983813Y-112540894D01*
X153929333Y-112708564D01*
X153929331Y-112708573D01*
X153927326Y-112714744D01*
X153926648Y-112721194D01*
X153926646Y-112721204D01*
X153912750Y-112853430D01*
X153907540Y-112903000D01*
X153908219Y-112909460D01*
X153926646Y-113084795D01*
X153926647Y-113084803D01*
X153927326Y-113091256D01*
X153929331Y-113097428D01*
X153929333Y-113097435D01*
X153950803Y-113163511D01*
X153985821Y-113271284D01*
X153989068Y-113276908D01*
X153989069Y-113276910D01*
X154072178Y-113420860D01*
X154080467Y-113435216D01*
X154084811Y-113440041D01*
X154084813Y-113440043D01*
X154202779Y-113571057D01*
X154207129Y-113575888D01*
X154360270Y-113687151D01*
X154533197Y-113764144D01*
X154718354Y-113803500D01*
X154774719Y-113803500D01*
X154822172Y-113812939D01*
X154862400Y-113839819D01*
X158044164Y-117021583D01*
X158076258Y-117077170D01*
X158076258Y-117141356D01*
X158051337Y-117234362D01*
X158051334Y-117234376D01*
X158049937Y-117239592D01*
X158029341Y-117474996D01*
X158016298Y-117529327D01*
X157978698Y-117573350D01*
X157925211Y-117595505D01*
X157867495Y-117590963D01*
X157818132Y-117560713D01*
X153444819Y-113187400D01*
X153417939Y-113147172D01*
X153408500Y-113099719D01*
X153408500Y-109679045D01*
X153409023Y-109667932D01*
X153410680Y-109660523D01*
X153408561Y-109593095D01*
X153408500Y-109589200D01*
X153408500Y-109565414D01*
X153408500Y-109561524D01*
X153408012Y-109557660D01*
X153407994Y-109557516D01*
X153407076Y-109545859D01*
X153405700Y-109502057D01*
X153400082Y-109482720D01*
X153396138Y-109463679D01*
X153393616Y-109443707D01*
X153377480Y-109402953D01*
X153373697Y-109391903D01*
X153363645Y-109357302D01*
X153363644Y-109357300D01*
X153361468Y-109349809D01*
X153351222Y-109332485D01*
X153342660Y-109315007D01*
X153338125Y-109303551D01*
X153338124Y-109303549D01*
X153335253Y-109296297D01*
X153309478Y-109260822D01*
X153303086Y-109251091D01*
X153280763Y-109213344D01*
X153266530Y-109199111D01*
X153253894Y-109184316D01*
X153246650Y-109174345D01*
X153246645Y-109174340D01*
X153242063Y-109168033D01*
X153208287Y-109140091D01*
X153199647Y-109132228D01*
X151433629Y-107366210D01*
X151409389Y-107331912D01*
X151397989Y-107291490D01*
X151381353Y-107133204D01*
X151381352Y-107133203D01*
X151380674Y-107126744D01*
X151322179Y-106946716D01*
X151227533Y-106782784D01*
X151100871Y-106642112D01*
X151095613Y-106638292D01*
X151095611Y-106638290D01*
X150952988Y-106534669D01*
X150952987Y-106534668D01*
X150947730Y-106530849D01*
X150941792Y-106528205D01*
X150780745Y-106456501D01*
X150780740Y-106456499D01*
X150774803Y-106453856D01*
X150768444Y-106452504D01*
X150768440Y-106452503D01*
X150596008Y-106415852D01*
X150596005Y-106415851D01*
X150589646Y-106414500D01*
X150400354Y-106414500D01*
X150393996Y-106415851D01*
X150393990Y-106415852D01*
X150256281Y-106445123D01*
X150201552Y-106444407D01*
X150152464Y-106420199D01*
X150118579Y-106377216D01*
X150106500Y-106323833D01*
X150106500Y-103693466D01*
X150114736Y-103649028D01*
X150138350Y-103610494D01*
X150159494Y-103587011D01*
X150211533Y-103529216D01*
X150306179Y-103365284D01*
X150364674Y-103185256D01*
X150384460Y-102997000D01*
X150364674Y-102808744D01*
X150306179Y-102628716D01*
X150211533Y-102464784D01*
X150084871Y-102324112D01*
X150079612Y-102320291D01*
X150079611Y-102320290D01*
X149936988Y-102216669D01*
X149936987Y-102216668D01*
X149931730Y-102212849D01*
X149925792Y-102210205D01*
X149764745Y-102138501D01*
X149764740Y-102138499D01*
X149758803Y-102135856D01*
X149752444Y-102134504D01*
X149752440Y-102134503D01*
X149580008Y-102097852D01*
X149580005Y-102097851D01*
X149573646Y-102096500D01*
X149384354Y-102096500D01*
X149377995Y-102097851D01*
X149377991Y-102097852D01*
X149205559Y-102134503D01*
X149205552Y-102134505D01*
X149199197Y-102135856D01*
X149193262Y-102138498D01*
X149193254Y-102138501D01*
X149032207Y-102210205D01*
X149032202Y-102210207D01*
X149026270Y-102212849D01*
X149021016Y-102216665D01*
X149021011Y-102216669D01*
X148878388Y-102320291D01*
X148873129Y-102324112D01*
X148868780Y-102328941D01*
X148863951Y-102333290D01*
X148863405Y-102332684D01*
X148827486Y-102358781D01*
X148777053Y-102369500D01*
X141154281Y-102369500D01*
X141106828Y-102360061D01*
X141066600Y-102333181D01*
X133838819Y-95105400D01*
X133811939Y-95065172D01*
X133802500Y-95017719D01*
X133802500Y-93363827D01*
X133816511Y-93306570D01*
X133855377Y-93262252D01*
X134041961Y-93131604D01*
X134041961Y-93131603D01*
X134046401Y-93128495D01*
X134213495Y-92961401D01*
X134343730Y-92775405D01*
X134388048Y-92736540D01*
X134445305Y-92722529D01*
X134502562Y-92736540D01*
X134546880Y-92775405D01*
X134673784Y-92956643D01*
X134680721Y-92964909D01*
X134840090Y-93124278D01*
X134848356Y-93131215D01*
X135032991Y-93260498D01*
X135042323Y-93265886D01*
X135246602Y-93361143D01*
X135256736Y-93364831D01*
X135451219Y-93416943D01*
X135462448Y-93417311D01*
X135465000Y-93406369D01*
X135965000Y-93406369D01*
X135967551Y-93417311D01*
X135978780Y-93416943D01*
X136173263Y-93364831D01*
X136183397Y-93361143D01*
X136387676Y-93265886D01*
X136397008Y-93260498D01*
X136581643Y-93131215D01*
X136589909Y-93124278D01*
X136749278Y-92964909D01*
X136756215Y-92956643D01*
X136885498Y-92772008D01*
X136890886Y-92762676D01*
X136986143Y-92558397D01*
X136989831Y-92548263D01*
X137041943Y-92353780D01*
X137042311Y-92342551D01*
X137031369Y-92340000D01*
X135981326Y-92340000D01*
X135968450Y-92343450D01*
X135965000Y-92356326D01*
X135965000Y-93406369D01*
X135465000Y-93406369D01*
X135465000Y-91964000D01*
X135481613Y-91902000D01*
X135527000Y-91856613D01*
X135589000Y-91840000D01*
X137031369Y-91840000D01*
X137042311Y-91837448D01*
X137041943Y-91826219D01*
X136989831Y-91631736D01*
X136986143Y-91621602D01*
X136890889Y-91417332D01*
X136885491Y-91407982D01*
X136756215Y-91223357D01*
X136749280Y-91215092D01*
X136589909Y-91055721D01*
X136581643Y-91048784D01*
X136400405Y-90921880D01*
X136361540Y-90877562D01*
X136347529Y-90820305D01*
X136361540Y-90763048D01*
X136400406Y-90718730D01*
X136581961Y-90591604D01*
X136581961Y-90591603D01*
X136586401Y-90588495D01*
X136753495Y-90421401D01*
X136889035Y-90227830D01*
X136988903Y-90013663D01*
X137050063Y-89785408D01*
X137070659Y-89550000D01*
X137050063Y-89314592D01*
X136988903Y-89086337D01*
X136889035Y-88872171D01*
X136753495Y-88678599D01*
X136586401Y-88511505D01*
X136581968Y-88508401D01*
X136581961Y-88508395D01*
X136400842Y-88381575D01*
X136361976Y-88337257D01*
X136347965Y-88280000D01*
X136361976Y-88222743D01*
X136400842Y-88178425D01*
X136581961Y-88051604D01*
X136581961Y-88051603D01*
X136586401Y-88048495D01*
X136753495Y-87881401D01*
X136889035Y-87687830D01*
X136988903Y-87473663D01*
X137050063Y-87245408D01*
X137070659Y-87010000D01*
X137050063Y-86774592D01*
X136988903Y-86546337D01*
X136889035Y-86332171D01*
X136753495Y-86138599D01*
X136586401Y-85971505D01*
X136581970Y-85968402D01*
X136581966Y-85968399D01*
X136397259Y-85839066D01*
X136397257Y-85839064D01*
X136392830Y-85835965D01*
X136387933Y-85833681D01*
X136387927Y-85833678D01*
X136183572Y-85738386D01*
X136183570Y-85738385D01*
X136178663Y-85736097D01*
X136173438Y-85734697D01*
X136173430Y-85734694D01*
X135955634Y-85676337D01*
X135955630Y-85676336D01*
X135950408Y-85674937D01*
X135945020Y-85674465D01*
X135945017Y-85674465D01*
X135720395Y-85654813D01*
X135715000Y-85654341D01*
X135709605Y-85654813D01*
X135484982Y-85674465D01*
X135484977Y-85674465D01*
X135479592Y-85674937D01*
X135474371Y-85676335D01*
X135474365Y-85676337D01*
X135256569Y-85734694D01*
X135256557Y-85734698D01*
X135251337Y-85736097D01*
X135246432Y-85738383D01*
X135246427Y-85738386D01*
X135042081Y-85833675D01*
X135042077Y-85833677D01*
X135037171Y-85835965D01*
X135032738Y-85839068D01*
X135032731Y-85839073D01*
X134848034Y-85968399D01*
X134848029Y-85968402D01*
X134843599Y-85971505D01*
X134839775Y-85975329D01*
X134721673Y-86093431D01*
X134668926Y-86124726D01*
X134607633Y-86126915D01*
X134552789Y-86099462D01*
X134517810Y-86049082D01*
X134490304Y-85975336D01*
X134468796Y-85917669D01*
X134382546Y-85802454D01*
X134292030Y-85734694D01*
X134274431Y-85721519D01*
X134274430Y-85721518D01*
X134267331Y-85716204D01*
X134160442Y-85676337D01*
X134139752Y-85668620D01*
X134139750Y-85668619D01*
X134132483Y-85665909D01*
X134124770Y-85665079D01*
X134124767Y-85665079D01*
X134076180Y-85659855D01*
X134076169Y-85659854D01*
X134072873Y-85659500D01*
X134069550Y-85659500D01*
X132280439Y-85659500D01*
X132280420Y-85659500D01*
X132277128Y-85659501D01*
X132273850Y-85659853D01*
X132273838Y-85659854D01*
X132225231Y-85665079D01*
X132225225Y-85665080D01*
X132217517Y-85665909D01*
X132210252Y-85668618D01*
X132210246Y-85668620D01*
X132090980Y-85713104D01*
X132090978Y-85713104D01*
X132082669Y-85716204D01*
X132075572Y-85721516D01*
X132075568Y-85721519D01*
X131974550Y-85797141D01*
X131974546Y-85797144D01*
X131967454Y-85802454D01*
X131962144Y-85809546D01*
X131962141Y-85809550D01*
X131886519Y-85910568D01*
X131886516Y-85910572D01*
X131881204Y-85917669D01*
X131878104Y-85925978D01*
X131878104Y-85925980D01*
X131833620Y-86045247D01*
X131833619Y-86045250D01*
X131830909Y-86052517D01*
X131830079Y-86060227D01*
X131830079Y-86060232D01*
X131824855Y-86108819D01*
X131824854Y-86108831D01*
X131824500Y-86112127D01*
X131824500Y-86115448D01*
X131824500Y-86115449D01*
X131824500Y-87904560D01*
X131824500Y-87904578D01*
X131824501Y-87907872D01*
X131824853Y-87911150D01*
X131824854Y-87911161D01*
X131830079Y-87959768D01*
X131830080Y-87959773D01*
X131830909Y-87967483D01*
X131833619Y-87974749D01*
X131833620Y-87974753D01*
X131859695Y-88044663D01*
X131881204Y-88102331D01*
X131886518Y-88109430D01*
X131886519Y-88109431D01*
X131942367Y-88184035D01*
X131967454Y-88217546D01*
X132082669Y-88303796D01*
X132172383Y-88337257D01*
X132214082Y-88352810D01*
X132264462Y-88387789D01*
X132291915Y-88442633D01*
X132289726Y-88503926D01*
X132258430Y-88556673D01*
X132136505Y-88678599D01*
X132133402Y-88683029D01*
X132133399Y-88683034D01*
X132004073Y-88867731D01*
X132004068Y-88867738D01*
X132000965Y-88872171D01*
X131998677Y-88877077D01*
X131998675Y-88877081D01*
X131903386Y-89081427D01*
X131903383Y-89081432D01*
X131901097Y-89086337D01*
X131899698Y-89091557D01*
X131899694Y-89091569D01*
X131841337Y-89309365D01*
X131841335Y-89309371D01*
X131839937Y-89314592D01*
X131819341Y-89550000D01*
X131839937Y-89785408D01*
X131841336Y-89790630D01*
X131841337Y-89790634D01*
X131899694Y-90008430D01*
X131899697Y-90008438D01*
X131901097Y-90013663D01*
X131903385Y-90018570D01*
X131903386Y-90018572D01*
X131998678Y-90222927D01*
X131998681Y-90222933D01*
X132000965Y-90227830D01*
X132004064Y-90232257D01*
X132004066Y-90232259D01*
X132133399Y-90416966D01*
X132133402Y-90416970D01*
X132136505Y-90421401D01*
X132303599Y-90588495D01*
X132308032Y-90591599D01*
X132308038Y-90591604D01*
X132489158Y-90718425D01*
X132528024Y-90762743D01*
X132542035Y-90820000D01*
X132528024Y-90877257D01*
X132489159Y-90921575D01*
X132308041Y-91048395D01*
X132303599Y-91051505D01*
X132299775Y-91055328D01*
X132299769Y-91055334D01*
X132140334Y-91214769D01*
X132140328Y-91214775D01*
X132136505Y-91218599D01*
X132133402Y-91223029D01*
X132133399Y-91223034D01*
X132004073Y-91407731D01*
X132004068Y-91407738D01*
X132000965Y-91412171D01*
X131998677Y-91417077D01*
X131998675Y-91417081D01*
X131903386Y-91621427D01*
X131903383Y-91621432D01*
X131901097Y-91626337D01*
X131899698Y-91631557D01*
X131899694Y-91631569D01*
X131841337Y-91849365D01*
X131841335Y-91849371D01*
X131839937Y-91854592D01*
X131819341Y-92090000D01*
X127635500Y-92090000D01*
X127635500Y-80695936D01*
X131170631Y-80695936D01*
X131171582Y-80702148D01*
X131171583Y-80702154D01*
X131200491Y-80890856D01*
X131200493Y-80890864D01*
X131201444Y-80897071D01*
X131203625Y-80902961D01*
X131203627Y-80902967D01*
X131269928Y-81081986D01*
X131269930Y-81081990D01*
X131272114Y-81087887D01*
X131275440Y-81093223D01*
X131275442Y-81093227D01*
X131344736Y-81204400D01*
X131379748Y-81260571D01*
X131519941Y-81408053D01*
X131686951Y-81524295D01*
X131873942Y-81604540D01*
X132073259Y-81645500D01*
X132222600Y-81645500D01*
X132225742Y-81645500D01*
X132377438Y-81630074D01*
X132571588Y-81569159D01*
X132749502Y-81470409D01*
X132903895Y-81337866D01*
X133028448Y-81176958D01*
X133118060Y-80994271D01*
X133169063Y-80797285D01*
X133179369Y-80594064D01*
X133148556Y-80392929D01*
X133077886Y-80202113D01*
X132970252Y-80029429D01*
X132830059Y-79881947D01*
X132663049Y-79765705D01*
X132657275Y-79763227D01*
X132481836Y-79687939D01*
X132481831Y-79687937D01*
X132476058Y-79685460D01*
X132438590Y-79677760D01*
X132282899Y-79645765D01*
X132282894Y-79645764D01*
X132276741Y-79644500D01*
X132124258Y-79644500D01*
X132121147Y-79644816D01*
X132121134Y-79644817D01*
X131978814Y-79659290D01*
X131978811Y-79659290D01*
X131972562Y-79659926D01*
X131966564Y-79661807D01*
X131966563Y-79661808D01*
X131784415Y-79718957D01*
X131784410Y-79718959D01*
X131778412Y-79720841D01*
X131772916Y-79723891D01*
X131772910Y-79723894D01*
X131605997Y-79816538D01*
X131605991Y-79816542D01*
X131600498Y-79819591D01*
X131595733Y-79823680D01*
X131595728Y-79823685D01*
X131450873Y-79948040D01*
X131450868Y-79948044D01*
X131446105Y-79952134D01*
X131442262Y-79957098D01*
X131442255Y-79957106D01*
X131382143Y-80034765D01*
X131321552Y-80113042D01*
X131318784Y-80118683D01*
X131318780Y-80118691D01*
X131234708Y-80290084D01*
X131234704Y-80290092D01*
X131231940Y-80295729D01*
X131180937Y-80492715D01*
X131180619Y-80498982D01*
X131180618Y-80498990D01*
X131170949Y-80689654D01*
X131170949Y-80689659D01*
X131170631Y-80695936D01*
X127635500Y-80695936D01*
X127635500Y-75565000D01*
X135249390Y-75565000D01*
X135249706Y-75569418D01*
X135269487Y-75846005D01*
X135269488Y-75846014D01*
X135269804Y-75850428D01*
X135270744Y-75854753D01*
X135270746Y-75854761D01*
X135324111Y-76100075D01*
X135330631Y-76130046D01*
X135430633Y-76398161D01*
X135432753Y-76402043D01*
X135432756Y-76402050D01*
X135565647Y-76645420D01*
X135567774Y-76649315D01*
X135739261Y-76878395D01*
X135941605Y-77080739D01*
X136170685Y-77252226D01*
X136421839Y-77389367D01*
X136689954Y-77489369D01*
X136969572Y-77550196D01*
X137255000Y-77570610D01*
X137540428Y-77550196D01*
X137820046Y-77489369D01*
X138088161Y-77389367D01*
X138339315Y-77252226D01*
X138544673Y-77098496D01*
X138598420Y-77075481D01*
X138656739Y-77079652D01*
X138706664Y-77110083D01*
X143735181Y-82138600D01*
X143762061Y-82178828D01*
X143771500Y-82226281D01*
X143771500Y-96712534D01*
X143763264Y-96756972D01*
X143739649Y-96795506D01*
X143666467Y-96876784D01*
X143663222Y-96882404D01*
X143663218Y-96882410D01*
X143575069Y-97035089D01*
X143575066Y-97035094D01*
X143571821Y-97040716D01*
X143569815Y-97046888D01*
X143569813Y-97046894D01*
X143515333Y-97214564D01*
X143515331Y-97214573D01*
X143513326Y-97220744D01*
X143512648Y-97227194D01*
X143512646Y-97227204D01*
X143494962Y-97395464D01*
X143493540Y-97409000D01*
X143494219Y-97415460D01*
X143512646Y-97590795D01*
X143512647Y-97590803D01*
X143513326Y-97597256D01*
X143515331Y-97603428D01*
X143515333Y-97603435D01*
X143569813Y-97771105D01*
X143571821Y-97777284D01*
X143666467Y-97941216D01*
X143793129Y-98081888D01*
X143946270Y-98193151D01*
X144119197Y-98270144D01*
X144304354Y-98309500D01*
X144487144Y-98309500D01*
X144493646Y-98309500D01*
X144501850Y-98307755D01*
X144503736Y-98307755D01*
X144506466Y-98307469D01*
X144506496Y-98307755D01*
X144553410Y-98307752D01*
X144600520Y-98328723D01*
X144635025Y-98367044D01*
X144682467Y-98449216D01*
X144686813Y-98454043D01*
X144686814Y-98454044D01*
X144719891Y-98490779D01*
X144750075Y-98553487D01*
X144741724Y-98622579D01*
X144706024Y-98665907D01*
X144707892Y-98668027D01*
X144702043Y-98673182D01*
X144695595Y-98677565D01*
X144690574Y-98683258D01*
X144690044Y-98683683D01*
X144687521Y-98685979D01*
X144687042Y-98686472D01*
X144680899Y-98690937D01*
X144675930Y-98696942D01*
X144675924Y-98696949D01*
X144637886Y-98742929D01*
X144635370Y-98745874D01*
X144590748Y-98796489D01*
X144587299Y-98803256D01*
X144586884Y-98803808D01*
X144585016Y-98806653D01*
X144584674Y-98807251D01*
X144579840Y-98813097D01*
X144576525Y-98820139D01*
X144576520Y-98820149D01*
X144551115Y-98874136D01*
X144549404Y-98877628D01*
X144522311Y-98930804D01*
X144522309Y-98930808D01*
X144518771Y-98937753D01*
X144517114Y-98945160D01*
X144516852Y-98945794D01*
X144515744Y-98949031D01*
X144515565Y-98949684D01*
X144512335Y-98956551D01*
X144510874Y-98964208D01*
X144510874Y-98964209D01*
X144499696Y-99022802D01*
X144498907Y-99026611D01*
X144485886Y-99084864D01*
X144485884Y-99084876D01*
X144484186Y-99092477D01*
X144484423Y-99100064D01*
X144484326Y-99100747D01*
X144484060Y-99104140D01*
X144484049Y-99104825D01*
X144482627Y-99112286D01*
X144483116Y-99120065D01*
X144483116Y-99120071D01*
X144486860Y-99179587D01*
X144487044Y-99183475D01*
X144488920Y-99243149D01*
X144489165Y-99250943D01*
X144491283Y-99258234D01*
X144491358Y-99258913D01*
X144491945Y-99262274D01*
X144492104Y-99262939D01*
X144492582Y-99270516D01*
X144494992Y-99277935D01*
X144494993Y-99277937D01*
X144513418Y-99334645D01*
X144514563Y-99338365D01*
X144531221Y-99395700D01*
X144531222Y-99395703D01*
X144533398Y-99403191D01*
X144537263Y-99409728D01*
X144537502Y-99410358D01*
X144538910Y-99413478D01*
X144539228Y-99414079D01*
X144541575Y-99421300D01*
X144545752Y-99427882D01*
X144545754Y-99427886D01*
X144577720Y-99478256D01*
X144579755Y-99481577D01*
X144610130Y-99532939D01*
X144610132Y-99532942D01*
X144614103Y-99539656D01*
X144619472Y-99545025D01*
X144619859Y-99545576D01*
X144622008Y-99548258D01*
X144622458Y-99548752D01*
X144626526Y-99555162D01*
X144632213Y-99560502D01*
X144644715Y-99572243D01*
X144648529Y-99576304D01*
X144650024Y-99578660D01*
X144655705Y-99583995D01*
X144655707Y-99583997D01*
X144699210Y-99624849D01*
X144702007Y-99627560D01*
X144721568Y-99647121D01*
X144724659Y-99649518D01*
X144724763Y-99649599D01*
X144733642Y-99657183D01*
X144749209Y-99671801D01*
X144765597Y-99687191D01*
X144783245Y-99696892D01*
X144799503Y-99707573D01*
X144809235Y-99715123D01*
X144809239Y-99715125D01*
X144815402Y-99719906D01*
X144855622Y-99737310D01*
X144866113Y-99742449D01*
X144904530Y-99763570D01*
X144924027Y-99768576D01*
X144942429Y-99774876D01*
X144960905Y-99782871D01*
X145000551Y-99789149D01*
X145004190Y-99789726D01*
X145015633Y-99792096D01*
X145050536Y-99801058D01*
X145050537Y-99801058D01*
X145058092Y-99802998D01*
X145078224Y-99802998D01*
X145097620Y-99804524D01*
X145117497Y-99807673D01*
X145161132Y-99803548D01*
X145172803Y-99802998D01*
X146745053Y-99802998D01*
X146795486Y-99813717D01*
X146831405Y-99839813D01*
X146831951Y-99839208D01*
X146836778Y-99843554D01*
X146841129Y-99848386D01*
X146994270Y-99959649D01*
X147167197Y-100036642D01*
X147352354Y-100075998D01*
X147535143Y-100075998D01*
X147541646Y-100075998D01*
X147726803Y-100036642D01*
X147899730Y-99959649D01*
X148052871Y-99848386D01*
X148179533Y-99707714D01*
X148274179Y-99543782D01*
X148332674Y-99363754D01*
X148352460Y-99175498D01*
X148332674Y-98987242D01*
X148274179Y-98807214D01*
X148208342Y-98693181D01*
X148192202Y-98641990D01*
X148199208Y-98588773D01*
X148228047Y-98543504D01*
X153423534Y-93348017D01*
X153431748Y-93340543D01*
X153438162Y-93336474D01*
X153484385Y-93287250D01*
X153487001Y-93284550D01*
X153506624Y-93264929D01*
X153509094Y-93261743D01*
X153516671Y-93252869D01*
X153546693Y-93220901D01*
X153556393Y-93203255D01*
X153567070Y-93187000D01*
X153579408Y-93171096D01*
X153596818Y-93130859D01*
X153601951Y-93120385D01*
X153619312Y-93088807D01*
X153619311Y-93088807D01*
X153623072Y-93081968D01*
X153628077Y-93062474D01*
X153634380Y-93044063D01*
X153642374Y-93025592D01*
X153649231Y-92982293D01*
X153651601Y-92970852D01*
X153654028Y-92961401D01*
X153662500Y-92928406D01*
X153662500Y-92908275D01*
X153664027Y-92888877D01*
X153664075Y-92888569D01*
X153667175Y-92869001D01*
X153663050Y-92825365D01*
X153662500Y-92813695D01*
X153662500Y-77693389D01*
X153677668Y-77633962D01*
X153719461Y-77589074D01*
X153777654Y-77569705D01*
X153794485Y-77568501D01*
X154050428Y-77550196D01*
X154330046Y-77489369D01*
X154598161Y-77389367D01*
X154849315Y-77252226D01*
X155078395Y-77080739D01*
X155280739Y-76878395D01*
X155452226Y-76649315D01*
X155589367Y-76398161D01*
X155689369Y-76130046D01*
X155750196Y-75850428D01*
X155770610Y-75565000D01*
X155750196Y-75279572D01*
X155689369Y-74999954D01*
X155589367Y-74731839D01*
X155452226Y-74480685D01*
X155280739Y-74251605D01*
X155078395Y-74049261D01*
X154849315Y-73877774D01*
X154845420Y-73875647D01*
X154602050Y-73742756D01*
X154602043Y-73742753D01*
X154598161Y-73740633D01*
X154594017Y-73739087D01*
X154594012Y-73739085D01*
X154334189Y-73642176D01*
X154334185Y-73642175D01*
X154330046Y-73640631D01*
X154300075Y-73634111D01*
X154054761Y-73580746D01*
X154054753Y-73580744D01*
X154050428Y-73579804D01*
X154046014Y-73579488D01*
X154046005Y-73579487D01*
X153769418Y-73559706D01*
X153765000Y-73559390D01*
X153760582Y-73559706D01*
X153483994Y-73579487D01*
X153483983Y-73579488D01*
X153479572Y-73579804D01*
X153475248Y-73580744D01*
X153475238Y-73580746D01*
X153204279Y-73639690D01*
X153204276Y-73639690D01*
X153199954Y-73640631D01*
X153195818Y-73642173D01*
X153195810Y-73642176D01*
X152935987Y-73739085D01*
X152935976Y-73739089D01*
X152931839Y-73740633D01*
X152927961Y-73742750D01*
X152927949Y-73742756D01*
X152684579Y-73875647D01*
X152684571Y-73875651D01*
X152680685Y-73877774D01*
X152677135Y-73880431D01*
X152677131Y-73880434D01*
X152455156Y-74046602D01*
X152455149Y-74046607D01*
X152451605Y-74049261D01*
X152448474Y-74052391D01*
X152448467Y-74052398D01*
X152252398Y-74248467D01*
X152252391Y-74248474D01*
X152249261Y-74251605D01*
X152246607Y-74255149D01*
X152246602Y-74255156D01*
X152080434Y-74477131D01*
X152077774Y-74480685D01*
X152075651Y-74484571D01*
X152075647Y-74484579D01*
X151942756Y-74727949D01*
X151942750Y-74727961D01*
X151940633Y-74731839D01*
X151939089Y-74735976D01*
X151939085Y-74735987D01*
X151842176Y-74995810D01*
X151842173Y-74995818D01*
X151840631Y-74999954D01*
X151839690Y-75004276D01*
X151839690Y-75004279D01*
X151780746Y-75275238D01*
X151780744Y-75275248D01*
X151779804Y-75279572D01*
X151779488Y-75283983D01*
X151779487Y-75283994D01*
X151760272Y-75552654D01*
X151759390Y-75565000D01*
X151759706Y-75569418D01*
X151779487Y-75846005D01*
X151779488Y-75846014D01*
X151779804Y-75850428D01*
X151780744Y-75854753D01*
X151780746Y-75854761D01*
X151834111Y-76100075D01*
X151840631Y-76130046D01*
X151940633Y-76398161D01*
X151942753Y-76402043D01*
X151942756Y-76402050D01*
X152075647Y-76645420D01*
X152077774Y-76649315D01*
X152249261Y-76878395D01*
X152252398Y-76881532D01*
X152371181Y-77000315D01*
X152398061Y-77040543D01*
X152407500Y-77087996D01*
X152407500Y-92537853D01*
X152398061Y-92585306D01*
X152371181Y-92625534D01*
X147270181Y-97726533D01*
X147220818Y-97756783D01*
X147163102Y-97761325D01*
X147109615Y-97739170D01*
X147072015Y-97695147D01*
X147058500Y-97638852D01*
X147058500Y-80695936D01*
X147680631Y-80695936D01*
X147681582Y-80702148D01*
X147681583Y-80702154D01*
X147710491Y-80890856D01*
X147710493Y-80890864D01*
X147711444Y-80897071D01*
X147713625Y-80902961D01*
X147713627Y-80902967D01*
X147779928Y-81081986D01*
X147779930Y-81081990D01*
X147782114Y-81087887D01*
X147785440Y-81093223D01*
X147785442Y-81093227D01*
X147854736Y-81204400D01*
X147889748Y-81260571D01*
X148029941Y-81408053D01*
X148196951Y-81524295D01*
X148383942Y-81604540D01*
X148583259Y-81645500D01*
X148732600Y-81645500D01*
X148735742Y-81645500D01*
X148887438Y-81630074D01*
X149081588Y-81569159D01*
X149259502Y-81470409D01*
X149413895Y-81337866D01*
X149538448Y-81176958D01*
X149628060Y-80994271D01*
X149679063Y-80797285D01*
X149689369Y-80594064D01*
X149658556Y-80392929D01*
X149587886Y-80202113D01*
X149480252Y-80029429D01*
X149340059Y-79881947D01*
X149173049Y-79765705D01*
X149167275Y-79763227D01*
X148991836Y-79687939D01*
X148991831Y-79687937D01*
X148986058Y-79685460D01*
X148948590Y-79677760D01*
X148792899Y-79645765D01*
X148792894Y-79645764D01*
X148786741Y-79644500D01*
X148634258Y-79644500D01*
X148631147Y-79644816D01*
X148631134Y-79644817D01*
X148488814Y-79659290D01*
X148488811Y-79659290D01*
X148482562Y-79659926D01*
X148476564Y-79661807D01*
X148476563Y-79661808D01*
X148294415Y-79718957D01*
X148294410Y-79718959D01*
X148288412Y-79720841D01*
X148282916Y-79723891D01*
X148282910Y-79723894D01*
X148115997Y-79816538D01*
X148115991Y-79816542D01*
X148110498Y-79819591D01*
X148105733Y-79823680D01*
X148105728Y-79823685D01*
X147960873Y-79948040D01*
X147960868Y-79948044D01*
X147956105Y-79952134D01*
X147952262Y-79957098D01*
X147952255Y-79957106D01*
X147892143Y-80034765D01*
X147831552Y-80113042D01*
X147828784Y-80118683D01*
X147828780Y-80118691D01*
X147744708Y-80290084D01*
X147744704Y-80290092D01*
X147741940Y-80295729D01*
X147690937Y-80492715D01*
X147690619Y-80498982D01*
X147690618Y-80498990D01*
X147680949Y-80689654D01*
X147680949Y-80689659D01*
X147680631Y-80695936D01*
X147058500Y-80695936D01*
X147058500Y-72880948D01*
X147072249Y-72824197D01*
X147110447Y-72780031D01*
X147164622Y-72758244D01*
X147222762Y-72763666D01*
X147426386Y-72833571D01*
X147671665Y-72874500D01*
X147915201Y-72874500D01*
X147920335Y-72874500D01*
X148165614Y-72833571D01*
X148400810Y-72752828D01*
X148619509Y-72634474D01*
X148815744Y-72481738D01*
X148984164Y-72298785D01*
X149120173Y-72090607D01*
X149131542Y-72064689D01*
X152544392Y-72064689D01*
X152552710Y-72075800D01*
X152677406Y-72169147D01*
X152684849Y-72173931D01*
X152928158Y-72306787D01*
X152936196Y-72310458D01*
X153195952Y-72407342D01*
X153204421Y-72409828D01*
X153475309Y-72468757D01*
X153484065Y-72470016D01*
X153760582Y-72489793D01*
X153769418Y-72489793D01*
X154045934Y-72470016D01*
X154054690Y-72468757D01*
X154325578Y-72409828D01*
X154334047Y-72407342D01*
X154593803Y-72310458D01*
X154601841Y-72306787D01*
X154845150Y-72173931D01*
X154852593Y-72169147D01*
X154977288Y-72075800D01*
X154985606Y-72064689D01*
X154978954Y-72052508D01*
X153776542Y-70850095D01*
X153765000Y-70843431D01*
X153753457Y-70850095D01*
X152551044Y-72052508D01*
X152544392Y-72064689D01*
X149131542Y-72064689D01*
X149220063Y-71862881D01*
X149281108Y-71621821D01*
X149301643Y-71374000D01*
X149289364Y-71225817D01*
X149297423Y-71170503D01*
X149328959Y-71124348D01*
X149377562Y-71096733D01*
X149433355Y-71093271D01*
X149444644Y-71095155D01*
X149454839Y-71096000D01*
X149693161Y-71096000D01*
X149703356Y-71095155D01*
X149938431Y-71055928D01*
X149948343Y-71053417D01*
X150173760Y-70976032D01*
X150183114Y-70971929D01*
X150392723Y-70858495D01*
X150401281Y-70852903D01*
X150430146Y-70830437D01*
X150438250Y-70819250D01*
X150431589Y-70807142D01*
X150113865Y-70489418D01*
X151760207Y-70489418D01*
X151779983Y-70765934D01*
X151781242Y-70774690D01*
X151840171Y-71045578D01*
X151842657Y-71054047D01*
X151939541Y-71313803D01*
X151943212Y-71321841D01*
X152076068Y-71565150D01*
X152080852Y-71572593D01*
X152174198Y-71697288D01*
X152185309Y-71705606D01*
X152197490Y-71698954D01*
X153399903Y-70496542D01*
X153406567Y-70485000D01*
X154123431Y-70485000D01*
X154130095Y-70496542D01*
X155332508Y-71698954D01*
X155344689Y-71705606D01*
X155355800Y-71697288D01*
X155449147Y-71572593D01*
X155453931Y-71565150D01*
X155586787Y-71321841D01*
X155590458Y-71313803D01*
X155687342Y-71054047D01*
X155689828Y-71045578D01*
X155748757Y-70774690D01*
X155750016Y-70765934D01*
X155766466Y-70535936D01*
X157840631Y-70535936D01*
X157841582Y-70542148D01*
X157841583Y-70542154D01*
X157870491Y-70730856D01*
X157870493Y-70730864D01*
X157871444Y-70737071D01*
X157873625Y-70742961D01*
X157873627Y-70742967D01*
X157939928Y-70921986D01*
X157939930Y-70921990D01*
X157942114Y-70927887D01*
X157945440Y-70933223D01*
X157945442Y-70933227D01*
X158045197Y-71093271D01*
X158049748Y-71100571D01*
X158189941Y-71248053D01*
X158356951Y-71364295D01*
X158543942Y-71444540D01*
X158743259Y-71485500D01*
X158892600Y-71485500D01*
X158895742Y-71485500D01*
X159047438Y-71470074D01*
X159241588Y-71409159D01*
X159419502Y-71310409D01*
X159573895Y-71177866D01*
X159698448Y-71016958D01*
X159788060Y-70834271D01*
X159839063Y-70637285D01*
X159849369Y-70434064D01*
X159818556Y-70232929D01*
X159747886Y-70042113D01*
X159668301Y-69914429D01*
X159643578Y-69874765D01*
X159643577Y-69874764D01*
X159640252Y-69869429D01*
X159500059Y-69721947D01*
X159333049Y-69605705D01*
X159322358Y-69601117D01*
X159151836Y-69527939D01*
X159151831Y-69527937D01*
X159146058Y-69525460D01*
X159108590Y-69517760D01*
X158952899Y-69485765D01*
X158952894Y-69485764D01*
X158946741Y-69484500D01*
X158794258Y-69484500D01*
X158791147Y-69484816D01*
X158791134Y-69484817D01*
X158648814Y-69499290D01*
X158648811Y-69499290D01*
X158642562Y-69499926D01*
X158636564Y-69501807D01*
X158636563Y-69501808D01*
X158454415Y-69558957D01*
X158454410Y-69558959D01*
X158448412Y-69560841D01*
X158442916Y-69563891D01*
X158442910Y-69563894D01*
X158275997Y-69656538D01*
X158275991Y-69656542D01*
X158270498Y-69659591D01*
X158265733Y-69663680D01*
X158265728Y-69663685D01*
X158120873Y-69788040D01*
X158120868Y-69788044D01*
X158116105Y-69792134D01*
X158112262Y-69797098D01*
X158112255Y-69797106D01*
X158013706Y-69924421D01*
X157991552Y-69953042D01*
X157988784Y-69958683D01*
X157988780Y-69958691D01*
X157904708Y-70130084D01*
X157904704Y-70130092D01*
X157901940Y-70135729D01*
X157900365Y-70141809D01*
X157900364Y-70141814D01*
X157852511Y-70326634D01*
X157850937Y-70332715D01*
X157850619Y-70338982D01*
X157850618Y-70338990D01*
X157840949Y-70529654D01*
X157840949Y-70529659D01*
X157840631Y-70535936D01*
X155766466Y-70535936D01*
X155769793Y-70489418D01*
X155769793Y-70480582D01*
X155750016Y-70204065D01*
X155748757Y-70195309D01*
X155689828Y-69924421D01*
X155687342Y-69915952D01*
X155590458Y-69656196D01*
X155586787Y-69648158D01*
X155453931Y-69404849D01*
X155449147Y-69397406D01*
X155355800Y-69272710D01*
X155344689Y-69264392D01*
X155332508Y-69271044D01*
X154130095Y-70473457D01*
X154123431Y-70485000D01*
X153406567Y-70485000D01*
X153399903Y-70473457D01*
X152194308Y-69267862D01*
X152185135Y-69261967D01*
X152176894Y-69269108D01*
X152080855Y-69397402D01*
X152076068Y-69404850D01*
X151943212Y-69648158D01*
X151939541Y-69656196D01*
X151842657Y-69915952D01*
X151840171Y-69924421D01*
X151781242Y-70195309D01*
X151779983Y-70204065D01*
X151760207Y-70480582D01*
X151760207Y-70489418D01*
X150113865Y-70489418D01*
X149220446Y-69595999D01*
X149932431Y-69595999D01*
X149939095Y-69607542D01*
X150787653Y-70456100D01*
X150797034Y-70462024D01*
X150805002Y-70454299D01*
X150894924Y-70316664D01*
X150899792Y-70307669D01*
X150995527Y-70089414D01*
X150998846Y-70079747D01*
X151057353Y-69848712D01*
X151059037Y-69838618D01*
X151078717Y-69601117D01*
X151078717Y-69590883D01*
X151059037Y-69353381D01*
X151057353Y-69343287D01*
X150998846Y-69112252D01*
X150995527Y-69102585D01*
X150908918Y-68905135D01*
X152541967Y-68905135D01*
X152547862Y-68914308D01*
X153753457Y-70119903D01*
X153765000Y-70126567D01*
X153776542Y-70119903D01*
X154978954Y-68917490D01*
X154985606Y-68905309D01*
X154977288Y-68894198D01*
X154852593Y-68800852D01*
X154845150Y-68796068D01*
X154601841Y-68663212D01*
X154593803Y-68659541D01*
X154334047Y-68562657D01*
X154325578Y-68560171D01*
X154054690Y-68501242D01*
X154045934Y-68499983D01*
X153769418Y-68480207D01*
X153760582Y-68480207D01*
X153484065Y-68499983D01*
X153475309Y-68501242D01*
X153204421Y-68560171D01*
X153195952Y-68562657D01*
X152936196Y-68659541D01*
X152928158Y-68663212D01*
X152684850Y-68796068D01*
X152677402Y-68800855D01*
X152549108Y-68896894D01*
X152541967Y-68905135D01*
X150908918Y-68905135D01*
X150899792Y-68884330D01*
X150894924Y-68875335D01*
X150805002Y-68737699D01*
X150797034Y-68729974D01*
X150787653Y-68735898D01*
X149939095Y-69584457D01*
X149932431Y-69595999D01*
X149220446Y-69595999D01*
X148360345Y-68735898D01*
X148350964Y-68729974D01*
X148342997Y-68737699D01*
X148253072Y-68875338D01*
X148248207Y-68884328D01*
X148152472Y-69102585D01*
X148149153Y-69112252D01*
X148090646Y-69343287D01*
X148088962Y-69353381D01*
X148069283Y-69590883D01*
X148069283Y-69601106D01*
X148081102Y-69743752D01*
X148073042Y-69799066D01*
X148041508Y-69845220D01*
X147992908Y-69872836D01*
X147937117Y-69876300D01*
X147925400Y-69874345D01*
X147925397Y-69874344D01*
X147920335Y-69873500D01*
X147671665Y-69873500D01*
X147666613Y-69874343D01*
X147666601Y-69874344D01*
X147431443Y-69913585D01*
X147431441Y-69913585D01*
X147426386Y-69914429D01*
X147421541Y-69916092D01*
X147421534Y-69916094D01*
X147222763Y-69984333D01*
X147164622Y-69989756D01*
X147110447Y-69967969D01*
X147072249Y-69923803D01*
X147058500Y-69867052D01*
X147058500Y-69272281D01*
X147067939Y-69224828D01*
X147094819Y-69184600D01*
X147906670Y-68372749D01*
X148709748Y-68372749D01*
X148716408Y-68384855D01*
X149562457Y-69230904D01*
X149574000Y-69237568D01*
X149585542Y-69230904D01*
X150431590Y-68384855D01*
X150438250Y-68372749D01*
X150430143Y-68361559D01*
X150401286Y-68339099D01*
X150392719Y-68333503D01*
X150183114Y-68220070D01*
X150173760Y-68215967D01*
X149948343Y-68138582D01*
X149938431Y-68136071D01*
X149703356Y-68096844D01*
X149693161Y-68096000D01*
X149454839Y-68096000D01*
X149444643Y-68096844D01*
X149209568Y-68136071D01*
X149199656Y-68138582D01*
X148974239Y-68215967D01*
X148964885Y-68220070D01*
X148755276Y-68333504D01*
X148746717Y-68339096D01*
X148717854Y-68361560D01*
X148709748Y-68372749D01*
X147906670Y-68372749D01*
X148840819Y-67438600D01*
X154153534Y-62125883D01*
X154161748Y-62118409D01*
X154168162Y-62114340D01*
X154214385Y-62065116D01*
X154217001Y-62062416D01*
X154236623Y-62042796D01*
X154239086Y-62039619D01*
X154246684Y-62030720D01*
X154276693Y-61998767D01*
X154286392Y-61981122D01*
X154297071Y-61964864D01*
X154309408Y-61948962D01*
X154326817Y-61908728D01*
X154331947Y-61898257D01*
X154353072Y-61859834D01*
X154358081Y-61840322D01*
X154364377Y-61821935D01*
X154372373Y-61803459D01*
X154379229Y-61760164D01*
X154381596Y-61748737D01*
X154392500Y-61706272D01*
X154392500Y-61686135D01*
X154394027Y-61666738D01*
X154394385Y-61664470D01*
X154397174Y-61646867D01*
X154393049Y-61603238D01*
X154392500Y-61591570D01*
X154392500Y-61042170D01*
X154402512Y-60993357D01*
X154430930Y-60952427D01*
X154473166Y-60925988D01*
X154476434Y-60924768D01*
X154598161Y-60879367D01*
X154849315Y-60742226D01*
X155078395Y-60570739D01*
X155280739Y-60368395D01*
X155452226Y-60139315D01*
X155589367Y-59888161D01*
X155689369Y-59620046D01*
X155750196Y-59340428D01*
X155770610Y-59055000D01*
X155750196Y-58769572D01*
X155689369Y-58489954D01*
X155589367Y-58221839D01*
X155452226Y-57970685D01*
X155280739Y-57741605D01*
X155078395Y-57539261D01*
X154849315Y-57367774D01*
X154845420Y-57365647D01*
X154602050Y-57232756D01*
X154602043Y-57232753D01*
X154598161Y-57230633D01*
X154594017Y-57229087D01*
X154594012Y-57229085D01*
X154334189Y-57132176D01*
X154334185Y-57132175D01*
X154330046Y-57130631D01*
X154300075Y-57124111D01*
X154054761Y-57070746D01*
X154054753Y-57070744D01*
X154050428Y-57069804D01*
X154046014Y-57069488D01*
X154046005Y-57069487D01*
X153769418Y-57049706D01*
X153765000Y-57049390D01*
X153760582Y-57049706D01*
X153483994Y-57069487D01*
X153483983Y-57069488D01*
X153479572Y-57069804D01*
X153475248Y-57070744D01*
X153475238Y-57070746D01*
X153204279Y-57129690D01*
X153204276Y-57129690D01*
X153199954Y-57130631D01*
X153195818Y-57132173D01*
X153195810Y-57132176D01*
X152935987Y-57229085D01*
X152935976Y-57229089D01*
X152931839Y-57230633D01*
X152927961Y-57232750D01*
X152927949Y-57232756D01*
X152684579Y-57365647D01*
X152684571Y-57365651D01*
X152680685Y-57367774D01*
X152677135Y-57370431D01*
X152677131Y-57370434D01*
X152455156Y-57536602D01*
X152455149Y-57536607D01*
X152451605Y-57539261D01*
X152448474Y-57542391D01*
X152448467Y-57542398D01*
X152252398Y-57738467D01*
X152252391Y-57738474D01*
X152249261Y-57741605D01*
X152246607Y-57745149D01*
X152246602Y-57745156D01*
X152080434Y-57967131D01*
X152077774Y-57970685D01*
X152075651Y-57974571D01*
X152075647Y-57974579D01*
X151942756Y-58217949D01*
X151942750Y-58217961D01*
X151940633Y-58221839D01*
X151939089Y-58225976D01*
X151939085Y-58225987D01*
X151842176Y-58485810D01*
X151842173Y-58485818D01*
X151840631Y-58489954D01*
X151839690Y-58494276D01*
X151839690Y-58494279D01*
X151780746Y-58765238D01*
X151780744Y-58765248D01*
X151779804Y-58769572D01*
X151779488Y-58773983D01*
X151779487Y-58773994D01*
X151760272Y-59042654D01*
X151759390Y-59055000D01*
X151759706Y-59059418D01*
X151779487Y-59336005D01*
X151779488Y-59336014D01*
X151779804Y-59340428D01*
X151780744Y-59344753D01*
X151780746Y-59344761D01*
X151834111Y-59590075D01*
X151840631Y-59620046D01*
X151940633Y-59888161D01*
X151942753Y-59892043D01*
X151942756Y-59892050D01*
X152075647Y-60135420D01*
X152077774Y-60139315D01*
X152249261Y-60368395D01*
X152451605Y-60570739D01*
X152680685Y-60742226D01*
X152861969Y-60841214D01*
X152916858Y-60871187D01*
X152931839Y-60879367D01*
X153051264Y-60923910D01*
X153056834Y-60925988D01*
X153099070Y-60952427D01*
X153127488Y-60993357D01*
X153137500Y-61042170D01*
X153137500Y-61315719D01*
X153128061Y-61363172D01*
X153101181Y-61403400D01*
X149778013Y-64726567D01*
X149717749Y-64759817D01*
X149649038Y-64755808D01*
X149593050Y-64715777D01*
X149567033Y-64652055D01*
X149579005Y-64584276D01*
X149582139Y-64577887D01*
X149628060Y-64484271D01*
X149679063Y-64287285D01*
X149689369Y-64084064D01*
X149658556Y-63882929D01*
X149587886Y-63692113D01*
X149480252Y-63519429D01*
X149340059Y-63371947D01*
X149173049Y-63255705D01*
X149167275Y-63253227D01*
X148991836Y-63177939D01*
X148991831Y-63177937D01*
X148986058Y-63175460D01*
X148948590Y-63167760D01*
X148792899Y-63135765D01*
X148792894Y-63135764D01*
X148786741Y-63134500D01*
X148634258Y-63134500D01*
X148631147Y-63134816D01*
X148631134Y-63134817D01*
X148488814Y-63149290D01*
X148488811Y-63149290D01*
X148482562Y-63149926D01*
X148476564Y-63151807D01*
X148476563Y-63151808D01*
X148294415Y-63208957D01*
X148294410Y-63208959D01*
X148288412Y-63210841D01*
X148282916Y-63213891D01*
X148282910Y-63213894D01*
X148115997Y-63306538D01*
X148115991Y-63306542D01*
X148110498Y-63309591D01*
X148105733Y-63313680D01*
X148105728Y-63313685D01*
X147960873Y-63438040D01*
X147960868Y-63438044D01*
X147956105Y-63442134D01*
X147952262Y-63447098D01*
X147952255Y-63447106D01*
X147892143Y-63524765D01*
X147831552Y-63603042D01*
X147828784Y-63608683D01*
X147828780Y-63608691D01*
X147744708Y-63780084D01*
X147744704Y-63780092D01*
X147741940Y-63785729D01*
X147690937Y-63982715D01*
X147690619Y-63988982D01*
X147690618Y-63988990D01*
X147680949Y-64179654D01*
X147680949Y-64179659D01*
X147680631Y-64185936D01*
X147681582Y-64192148D01*
X147681583Y-64192154D01*
X147710491Y-64380856D01*
X147710493Y-64380864D01*
X147711444Y-64387071D01*
X147713625Y-64392961D01*
X147713627Y-64392967D01*
X147779928Y-64571986D01*
X147779930Y-64571990D01*
X147782114Y-64577887D01*
X147785440Y-64583223D01*
X147785442Y-64583227D01*
X147868060Y-64715777D01*
X147889748Y-64750571D01*
X148029941Y-64898053D01*
X148196951Y-65014295D01*
X148383942Y-65094540D01*
X148583259Y-65135500D01*
X148732600Y-65135500D01*
X148735742Y-65135500D01*
X148887438Y-65120074D01*
X149081588Y-65059159D01*
X149126258Y-65034365D01*
X149182768Y-65018838D01*
X149240100Y-65030999D01*
X149285443Y-65068130D01*
X149308669Y-65121939D01*
X149304590Y-65180404D01*
X149274115Y-65230465D01*
X146254181Y-68250400D01*
X146204818Y-68280650D01*
X146147102Y-68285192D01*
X146093615Y-68263037D01*
X146056015Y-68219014D01*
X146042500Y-68162719D01*
X146042500Y-67293045D01*
X146043023Y-67281933D01*
X146044680Y-67274523D01*
X146042561Y-67207082D01*
X146042500Y-67203188D01*
X146042500Y-67179415D01*
X146042500Y-67175524D01*
X146041995Y-67171526D01*
X146041077Y-67159868D01*
X146039701Y-67116058D01*
X146034080Y-67096713D01*
X146030139Y-67077680D01*
X146027616Y-67057707D01*
X146011478Y-67016949D01*
X146007698Y-67005906D01*
X145997645Y-66971302D01*
X145997644Y-66971301D01*
X145995468Y-66963809D01*
X145991496Y-66957093D01*
X145991494Y-66957088D01*
X145985221Y-66946481D01*
X145976662Y-66929011D01*
X145969253Y-66910297D01*
X145943489Y-66874837D01*
X145937081Y-66865081D01*
X145914764Y-66827344D01*
X145900525Y-66813105D01*
X145887895Y-66798318D01*
X145876063Y-66782033D01*
X145842293Y-66754096D01*
X145833653Y-66746233D01*
X142525460Y-63438040D01*
X139107467Y-60020048D01*
X139080012Y-59978406D01*
X139071187Y-59929314D01*
X139080592Y-59888618D01*
X139079367Y-59888161D01*
X139079366Y-59888161D01*
X139179369Y-59620046D01*
X139240196Y-59340428D01*
X139260610Y-59055000D01*
X139240196Y-58769572D01*
X139179369Y-58489954D01*
X139079367Y-58221839D01*
X138942226Y-57970685D01*
X138770739Y-57741605D01*
X138568395Y-57539261D01*
X138339315Y-57367774D01*
X138335420Y-57365647D01*
X138092050Y-57232756D01*
X138092043Y-57232753D01*
X138088161Y-57230633D01*
X138084017Y-57229087D01*
X138084012Y-57229085D01*
X137824189Y-57132176D01*
X137824185Y-57132175D01*
X137820046Y-57130631D01*
X137790075Y-57124111D01*
X137544761Y-57070746D01*
X137544753Y-57070744D01*
X137540428Y-57069804D01*
X137536014Y-57069488D01*
X137536005Y-57069487D01*
X137259418Y-57049706D01*
X137255000Y-57049390D01*
X137250582Y-57049706D01*
X136973994Y-57069487D01*
X136973983Y-57069488D01*
X136969572Y-57069804D01*
X136965248Y-57070744D01*
X136965238Y-57070746D01*
X136694279Y-57129690D01*
X136694276Y-57129690D01*
X136689954Y-57130631D01*
X136685818Y-57132173D01*
X136685810Y-57132176D01*
X136425987Y-57229085D01*
X136425976Y-57229089D01*
X136421839Y-57230633D01*
X136417961Y-57232750D01*
X136417949Y-57232756D01*
X136174579Y-57365647D01*
X136174571Y-57365651D01*
X136170685Y-57367774D01*
X136167135Y-57370431D01*
X136167131Y-57370434D01*
X135945156Y-57536602D01*
X135945149Y-57536607D01*
X135941605Y-57539261D01*
X135938474Y-57542391D01*
X135938467Y-57542398D01*
X135742398Y-57738467D01*
X135742391Y-57738474D01*
X135739261Y-57741605D01*
X135736607Y-57745149D01*
X135736602Y-57745156D01*
X135570434Y-57967131D01*
X135567774Y-57970685D01*
X135565651Y-57974571D01*
X135565647Y-57974579D01*
X135432756Y-58217949D01*
X135432750Y-58217961D01*
X135430633Y-58221839D01*
X135429089Y-58225976D01*
X135429085Y-58225987D01*
X135332176Y-58485810D01*
X135332173Y-58485818D01*
X135330631Y-58489954D01*
X135329690Y-58494276D01*
X135329690Y-58494279D01*
X135270746Y-58765238D01*
X135270744Y-58765248D01*
X135269804Y-58769572D01*
X135269488Y-58773983D01*
X135269487Y-58773994D01*
X135250272Y-59042654D01*
X135249390Y-59055000D01*
X135249706Y-59059418D01*
X135269487Y-59336005D01*
X135269488Y-59336014D01*
X135269804Y-59340428D01*
X135270744Y-59344753D01*
X135270746Y-59344761D01*
X135324111Y-59590075D01*
X135330631Y-59620046D01*
X135430633Y-59888161D01*
X135432753Y-59892043D01*
X135432756Y-59892050D01*
X135565647Y-60135420D01*
X135567774Y-60139315D01*
X135739261Y-60368395D01*
X135941605Y-60570739D01*
X136170685Y-60742226D01*
X136351969Y-60841214D01*
X136406858Y-60871187D01*
X136421839Y-60879367D01*
X136689954Y-60979369D01*
X136969572Y-61040196D01*
X137255000Y-61060610D01*
X137540428Y-61040196D01*
X137820046Y-60979369D01*
X138088161Y-60879367D01*
X138088618Y-60880592D01*
X138129314Y-60871187D01*
X138178406Y-60880012D01*
X138220049Y-60907468D01*
X144751181Y-67438600D01*
X144778061Y-67478828D01*
X144787500Y-67526281D01*
X144787500Y-81116719D01*
X144773985Y-81173014D01*
X144736385Y-81217037D01*
X144682898Y-81239192D01*
X144625182Y-81234650D01*
X144575819Y-81204400D01*
X139279014Y-75907595D01*
X139250513Y-75863248D01*
X139243011Y-75811068D01*
X139260294Y-75569418D01*
X139260610Y-75565000D01*
X139240196Y-75279572D01*
X139179369Y-74999954D01*
X139079367Y-74731839D01*
X138942226Y-74480685D01*
X138770739Y-74251605D01*
X138568395Y-74049261D01*
X138339315Y-73877774D01*
X138335420Y-73875647D01*
X138092050Y-73742756D01*
X138092043Y-73742753D01*
X138088161Y-73740633D01*
X138084017Y-73739087D01*
X138084012Y-73739085D01*
X137824189Y-73642176D01*
X137824185Y-73642175D01*
X137820046Y-73640631D01*
X137790075Y-73634111D01*
X137544761Y-73580746D01*
X137544753Y-73580744D01*
X137540428Y-73579804D01*
X137536014Y-73579488D01*
X137536005Y-73579487D01*
X137259418Y-73559706D01*
X137255000Y-73559390D01*
X137250582Y-73559706D01*
X136973994Y-73579487D01*
X136973983Y-73579488D01*
X136969572Y-73579804D01*
X136965248Y-73580744D01*
X136965238Y-73580746D01*
X136694279Y-73639690D01*
X136694276Y-73639690D01*
X136689954Y-73640631D01*
X136685818Y-73642173D01*
X136685810Y-73642176D01*
X136425987Y-73739085D01*
X136425976Y-73739089D01*
X136421839Y-73740633D01*
X136417961Y-73742750D01*
X136417949Y-73742756D01*
X136174579Y-73875647D01*
X136174571Y-73875651D01*
X136170685Y-73877774D01*
X136167135Y-73880431D01*
X136167131Y-73880434D01*
X135945156Y-74046602D01*
X135945149Y-74046607D01*
X135941605Y-74049261D01*
X135938474Y-74052391D01*
X135938467Y-74052398D01*
X135742398Y-74248467D01*
X135742391Y-74248474D01*
X135739261Y-74251605D01*
X135736607Y-74255149D01*
X135736602Y-74255156D01*
X135570434Y-74477131D01*
X135567774Y-74480685D01*
X135565651Y-74484571D01*
X135565647Y-74484579D01*
X135432756Y-74727949D01*
X135432750Y-74727961D01*
X135430633Y-74731839D01*
X135429089Y-74735976D01*
X135429085Y-74735987D01*
X135332176Y-74995810D01*
X135332173Y-74995818D01*
X135330631Y-74999954D01*
X135329690Y-75004276D01*
X135329690Y-75004279D01*
X135270746Y-75275238D01*
X135270744Y-75275248D01*
X135269804Y-75279572D01*
X135269488Y-75283983D01*
X135269487Y-75283994D01*
X135250272Y-75552654D01*
X135249390Y-75565000D01*
X127635500Y-75565000D01*
X127635500Y-71374000D01*
X129780357Y-71374000D01*
X129780781Y-71379117D01*
X129800467Y-71616701D01*
X129800468Y-71616709D01*
X129800892Y-71621821D01*
X129802149Y-71626788D01*
X129802151Y-71626795D01*
X129822109Y-71705606D01*
X129861937Y-71862881D01*
X129863997Y-71867577D01*
X129959766Y-72085910D01*
X129959769Y-72085916D01*
X129961827Y-72090607D01*
X129964627Y-72094893D01*
X129964631Y-72094900D01*
X130016265Y-72173931D01*
X130097836Y-72298785D01*
X130101310Y-72302559D01*
X130101311Y-72302560D01*
X130262784Y-72477967D01*
X130262787Y-72477970D01*
X130266256Y-72481738D01*
X130462491Y-72634474D01*
X130681190Y-72752828D01*
X130916386Y-72833571D01*
X131161665Y-72874500D01*
X131405201Y-72874500D01*
X131410335Y-72874500D01*
X131655614Y-72833571D01*
X131890810Y-72752828D01*
X132109509Y-72634474D01*
X132305744Y-72481738D01*
X132474164Y-72298785D01*
X132610173Y-72090607D01*
X132621542Y-72064689D01*
X136034392Y-72064689D01*
X136042710Y-72075800D01*
X136167406Y-72169147D01*
X136174849Y-72173931D01*
X136418158Y-72306787D01*
X136426196Y-72310458D01*
X136685952Y-72407342D01*
X136694421Y-72409828D01*
X136965309Y-72468757D01*
X136974065Y-72470016D01*
X137250582Y-72489793D01*
X137259418Y-72489793D01*
X137535934Y-72470016D01*
X137544690Y-72468757D01*
X137815578Y-72409828D01*
X137824047Y-72407342D01*
X138083803Y-72310458D01*
X138091841Y-72306787D01*
X138335150Y-72173931D01*
X138342593Y-72169147D01*
X138467288Y-72075800D01*
X138475606Y-72064689D01*
X138468954Y-72052508D01*
X137266542Y-70850095D01*
X137255000Y-70843431D01*
X137243457Y-70850095D01*
X136041044Y-72052508D01*
X136034392Y-72064689D01*
X132621542Y-72064689D01*
X132710063Y-71862881D01*
X132771108Y-71621821D01*
X132791643Y-71374000D01*
X132779364Y-71225817D01*
X132787423Y-71170503D01*
X132818959Y-71124348D01*
X132867562Y-71096733D01*
X132923355Y-71093271D01*
X132934644Y-71095155D01*
X132944839Y-71096000D01*
X133183161Y-71096000D01*
X133193356Y-71095155D01*
X133428431Y-71055928D01*
X133438343Y-71053417D01*
X133663760Y-70976032D01*
X133673114Y-70971929D01*
X133882723Y-70858495D01*
X133891281Y-70852903D01*
X133920146Y-70830437D01*
X133928250Y-70819250D01*
X133921589Y-70807142D01*
X133603865Y-70489418D01*
X135250207Y-70489418D01*
X135269983Y-70765934D01*
X135271242Y-70774690D01*
X135330171Y-71045578D01*
X135332657Y-71054047D01*
X135429541Y-71313803D01*
X135433212Y-71321841D01*
X135566068Y-71565150D01*
X135570852Y-71572593D01*
X135664198Y-71697288D01*
X135675309Y-71705606D01*
X135687490Y-71698954D01*
X136889903Y-70496542D01*
X136896567Y-70485000D01*
X137613431Y-70485000D01*
X137620095Y-70496542D01*
X138822508Y-71698954D01*
X138834689Y-71705606D01*
X138845800Y-71697288D01*
X138939147Y-71572593D01*
X138943931Y-71565150D01*
X139076787Y-71321841D01*
X139080458Y-71313803D01*
X139177342Y-71054047D01*
X139179828Y-71045578D01*
X139238757Y-70774690D01*
X139240016Y-70765934D01*
X139256466Y-70535936D01*
X141330631Y-70535936D01*
X141331582Y-70542148D01*
X141331583Y-70542154D01*
X141360491Y-70730856D01*
X141360493Y-70730864D01*
X141361444Y-70737071D01*
X141363625Y-70742961D01*
X141363627Y-70742967D01*
X141429928Y-70921986D01*
X141429930Y-70921990D01*
X141432114Y-70927887D01*
X141435440Y-70933223D01*
X141435442Y-70933227D01*
X141535197Y-71093271D01*
X141539748Y-71100571D01*
X141679941Y-71248053D01*
X141846951Y-71364295D01*
X142033942Y-71444540D01*
X142233259Y-71485500D01*
X142382600Y-71485500D01*
X142385742Y-71485500D01*
X142537438Y-71470074D01*
X142731588Y-71409159D01*
X142909502Y-71310409D01*
X143063895Y-71177866D01*
X143188448Y-71016958D01*
X143278060Y-70834271D01*
X143329063Y-70637285D01*
X143339369Y-70434064D01*
X143308556Y-70232929D01*
X143237886Y-70042113D01*
X143158301Y-69914429D01*
X143133578Y-69874765D01*
X143133577Y-69874764D01*
X143130252Y-69869429D01*
X142990059Y-69721947D01*
X142823049Y-69605705D01*
X142812358Y-69601117D01*
X142641836Y-69527939D01*
X142641831Y-69527937D01*
X142636058Y-69525460D01*
X142598590Y-69517760D01*
X142442899Y-69485765D01*
X142442894Y-69485764D01*
X142436741Y-69484500D01*
X142284258Y-69484500D01*
X142281147Y-69484816D01*
X142281134Y-69484817D01*
X142138814Y-69499290D01*
X142138811Y-69499290D01*
X142132562Y-69499926D01*
X142126564Y-69501807D01*
X142126563Y-69501808D01*
X141944415Y-69558957D01*
X141944410Y-69558959D01*
X141938412Y-69560841D01*
X141932916Y-69563891D01*
X141932910Y-69563894D01*
X141765997Y-69656538D01*
X141765991Y-69656542D01*
X141760498Y-69659591D01*
X141755733Y-69663680D01*
X141755728Y-69663685D01*
X141610873Y-69788040D01*
X141610868Y-69788044D01*
X141606105Y-69792134D01*
X141602262Y-69797098D01*
X141602255Y-69797106D01*
X141503706Y-69924421D01*
X141481552Y-69953042D01*
X141478784Y-69958683D01*
X141478780Y-69958691D01*
X141394708Y-70130084D01*
X141394704Y-70130092D01*
X141391940Y-70135729D01*
X141390365Y-70141809D01*
X141390364Y-70141814D01*
X141342511Y-70326634D01*
X141340937Y-70332715D01*
X141340619Y-70338982D01*
X141340618Y-70338990D01*
X141330949Y-70529654D01*
X141330949Y-70529659D01*
X141330631Y-70535936D01*
X139256466Y-70535936D01*
X139259793Y-70489418D01*
X139259793Y-70480582D01*
X139240016Y-70204065D01*
X139238757Y-70195309D01*
X139179828Y-69924421D01*
X139177342Y-69915952D01*
X139080458Y-69656196D01*
X139076787Y-69648158D01*
X138943931Y-69404849D01*
X138939147Y-69397406D01*
X138845800Y-69272710D01*
X138834689Y-69264392D01*
X138822508Y-69271044D01*
X137620095Y-70473457D01*
X137613431Y-70485000D01*
X136896567Y-70485000D01*
X136889903Y-70473457D01*
X135684308Y-69267862D01*
X135675135Y-69261967D01*
X135666894Y-69269108D01*
X135570855Y-69397402D01*
X135566068Y-69404850D01*
X135433212Y-69648158D01*
X135429541Y-69656196D01*
X135332657Y-69915952D01*
X135330171Y-69924421D01*
X135271242Y-70195309D01*
X135269983Y-70204065D01*
X135250207Y-70480582D01*
X135250207Y-70489418D01*
X133603865Y-70489418D01*
X132710446Y-69595999D01*
X133422431Y-69595999D01*
X133429095Y-69607542D01*
X134277653Y-70456100D01*
X134287034Y-70462024D01*
X134295002Y-70454299D01*
X134384924Y-70316664D01*
X134389792Y-70307669D01*
X134485527Y-70089414D01*
X134488846Y-70079747D01*
X134547353Y-69848712D01*
X134549037Y-69838618D01*
X134568717Y-69601117D01*
X134568717Y-69590883D01*
X134549037Y-69353381D01*
X134547353Y-69343287D01*
X134488846Y-69112252D01*
X134485527Y-69102585D01*
X134398918Y-68905135D01*
X136031967Y-68905135D01*
X136037862Y-68914308D01*
X137243457Y-70119903D01*
X137255000Y-70126567D01*
X137266542Y-70119903D01*
X138468954Y-68917490D01*
X138475606Y-68905309D01*
X138467288Y-68894198D01*
X138342593Y-68800852D01*
X138335150Y-68796068D01*
X138091841Y-68663212D01*
X138083803Y-68659541D01*
X137824047Y-68562657D01*
X137815578Y-68560171D01*
X137544690Y-68501242D01*
X137535934Y-68499983D01*
X137259418Y-68480207D01*
X137250582Y-68480207D01*
X136974065Y-68499983D01*
X136965309Y-68501242D01*
X136694421Y-68560171D01*
X136685952Y-68562657D01*
X136426196Y-68659541D01*
X136418158Y-68663212D01*
X136174850Y-68796068D01*
X136167402Y-68800855D01*
X136039108Y-68896894D01*
X136031967Y-68905135D01*
X134398918Y-68905135D01*
X134389792Y-68884330D01*
X134384924Y-68875335D01*
X134295002Y-68737699D01*
X134287034Y-68729974D01*
X134277653Y-68735898D01*
X133429095Y-69584457D01*
X133422431Y-69595999D01*
X132710446Y-69595999D01*
X131850345Y-68735898D01*
X131840964Y-68729974D01*
X131832997Y-68737699D01*
X131743072Y-68875338D01*
X131738207Y-68884328D01*
X131642472Y-69102585D01*
X131639153Y-69112252D01*
X131580646Y-69343287D01*
X131578962Y-69353381D01*
X131559283Y-69590883D01*
X131559283Y-69601106D01*
X131571102Y-69743752D01*
X131563042Y-69799066D01*
X131531508Y-69845220D01*
X131482908Y-69872836D01*
X131427117Y-69876300D01*
X131415400Y-69874345D01*
X131415397Y-69874344D01*
X131410335Y-69873500D01*
X131161665Y-69873500D01*
X131156613Y-69874343D01*
X131156601Y-69874344D01*
X130921443Y-69913585D01*
X130921441Y-69913585D01*
X130916386Y-69914429D01*
X130911541Y-69916092D01*
X130911534Y-69916094D01*
X130686037Y-69993507D01*
X130686026Y-69993511D01*
X130681190Y-69995172D01*
X130676693Y-69997605D01*
X130676683Y-69997610D01*
X130467002Y-70111084D01*
X130466995Y-70111088D01*
X130462491Y-70113526D01*
X130458448Y-70116672D01*
X130458440Y-70116678D01*
X130309082Y-70232929D01*
X130266256Y-70266262D01*
X130262793Y-70270023D01*
X130262784Y-70270032D01*
X130101311Y-70445439D01*
X130101305Y-70445446D01*
X130097836Y-70449215D01*
X130095031Y-70453506D01*
X130095028Y-70453512D01*
X129964631Y-70653099D01*
X129964624Y-70653111D01*
X129961827Y-70657393D01*
X129959772Y-70662077D01*
X129959766Y-70662089D01*
X129884241Y-70834271D01*
X129861937Y-70885119D01*
X129860679Y-70890084D01*
X129860678Y-70890089D01*
X129802151Y-71121204D01*
X129802149Y-71121213D01*
X129800892Y-71126179D01*
X129800468Y-71131288D01*
X129800467Y-71131298D01*
X129785626Y-71310409D01*
X129780357Y-71374000D01*
X127635500Y-71374000D01*
X127635500Y-68372749D01*
X132199748Y-68372749D01*
X132206408Y-68384855D01*
X133052457Y-69230904D01*
X133064000Y-69237568D01*
X133075542Y-69230904D01*
X133921590Y-68384855D01*
X133928250Y-68372749D01*
X133920143Y-68361559D01*
X133891286Y-68339099D01*
X133882719Y-68333503D01*
X133673114Y-68220070D01*
X133663760Y-68215967D01*
X133438343Y-68138582D01*
X133428431Y-68136071D01*
X133193356Y-68096844D01*
X133183161Y-68096000D01*
X132944839Y-68096000D01*
X132934643Y-68096844D01*
X132699568Y-68136071D01*
X132689656Y-68138582D01*
X132464239Y-68215967D01*
X132454885Y-68220070D01*
X132245276Y-68333504D01*
X132236717Y-68339096D01*
X132207854Y-68361560D01*
X132199748Y-68372749D01*
X127635500Y-68372749D01*
X127635500Y-64185936D01*
X131170631Y-64185936D01*
X131171582Y-64192148D01*
X131171583Y-64192154D01*
X131200491Y-64380856D01*
X131200493Y-64380864D01*
X131201444Y-64387071D01*
X131203625Y-64392961D01*
X131203627Y-64392967D01*
X131269928Y-64571986D01*
X131269930Y-64571990D01*
X131272114Y-64577887D01*
X131275440Y-64583223D01*
X131275442Y-64583227D01*
X131358060Y-64715777D01*
X131379748Y-64750571D01*
X131519941Y-64898053D01*
X131686951Y-65014295D01*
X131873942Y-65094540D01*
X132073259Y-65135500D01*
X132222600Y-65135500D01*
X132225742Y-65135500D01*
X132377438Y-65120074D01*
X132571588Y-65059159D01*
X132749502Y-64960409D01*
X132903895Y-64827866D01*
X133028448Y-64666958D01*
X133118060Y-64484271D01*
X133169063Y-64287285D01*
X133179369Y-64084064D01*
X133148556Y-63882929D01*
X133077886Y-63692113D01*
X132970252Y-63519429D01*
X132830059Y-63371947D01*
X132663049Y-63255705D01*
X132657275Y-63253227D01*
X132481836Y-63177939D01*
X132481831Y-63177937D01*
X132476058Y-63175460D01*
X132438590Y-63167760D01*
X132282899Y-63135765D01*
X132282894Y-63135764D01*
X132276741Y-63134500D01*
X132124258Y-63134500D01*
X132121147Y-63134816D01*
X132121134Y-63134817D01*
X131978814Y-63149290D01*
X131978811Y-63149290D01*
X131972562Y-63149926D01*
X131966564Y-63151807D01*
X131966563Y-63151808D01*
X131784415Y-63208957D01*
X131784410Y-63208959D01*
X131778412Y-63210841D01*
X131772916Y-63213891D01*
X131772910Y-63213894D01*
X131605997Y-63306538D01*
X131605991Y-63306542D01*
X131600498Y-63309591D01*
X131595733Y-63313680D01*
X131595728Y-63313685D01*
X131450873Y-63438040D01*
X131450868Y-63438044D01*
X131446105Y-63442134D01*
X131442262Y-63447098D01*
X131442255Y-63447106D01*
X131382143Y-63524765D01*
X131321552Y-63603042D01*
X131318784Y-63608683D01*
X131318780Y-63608691D01*
X131234708Y-63780084D01*
X131234704Y-63780092D01*
X131231940Y-63785729D01*
X131180937Y-63982715D01*
X131180619Y-63988982D01*
X131180618Y-63988990D01*
X131170949Y-64179654D01*
X131170949Y-64179659D01*
X131170631Y-64185936D01*
X127635500Y-64185936D01*
X127635500Y-54864000D01*
X129780357Y-54864000D01*
X129780781Y-54869117D01*
X129800467Y-55106701D01*
X129800468Y-55106709D01*
X129800892Y-55111821D01*
X129802149Y-55116788D01*
X129802151Y-55116795D01*
X129822109Y-55195606D01*
X129861937Y-55352881D01*
X129863997Y-55357577D01*
X129959766Y-55575910D01*
X129959769Y-55575916D01*
X129961827Y-55580607D01*
X129964627Y-55584893D01*
X129964631Y-55584900D01*
X130016265Y-55663931D01*
X130097836Y-55788785D01*
X130101310Y-55792559D01*
X130101311Y-55792560D01*
X130262784Y-55967967D01*
X130262787Y-55967970D01*
X130266256Y-55971738D01*
X130462491Y-56124474D01*
X130681190Y-56242828D01*
X130916386Y-56323571D01*
X131161665Y-56364500D01*
X131405201Y-56364500D01*
X131410335Y-56364500D01*
X131655614Y-56323571D01*
X131890810Y-56242828D01*
X132109509Y-56124474D01*
X132305744Y-55971738D01*
X132474164Y-55788785D01*
X132610173Y-55580607D01*
X132621542Y-55554689D01*
X136034392Y-55554689D01*
X136042710Y-55565800D01*
X136167406Y-55659147D01*
X136174849Y-55663931D01*
X136418158Y-55796787D01*
X136426196Y-55800458D01*
X136685952Y-55897342D01*
X136694421Y-55899828D01*
X136965309Y-55958757D01*
X136974065Y-55960016D01*
X137250582Y-55979793D01*
X137259418Y-55979793D01*
X137535934Y-55960016D01*
X137544690Y-55958757D01*
X137815578Y-55899828D01*
X137824047Y-55897342D01*
X138083803Y-55800458D01*
X138091841Y-55796787D01*
X138335150Y-55663931D01*
X138342593Y-55659147D01*
X138467288Y-55565800D01*
X138475606Y-55554689D01*
X138468954Y-55542508D01*
X137266542Y-54340095D01*
X137255000Y-54333431D01*
X137243457Y-54340095D01*
X136041044Y-55542508D01*
X136034392Y-55554689D01*
X132621542Y-55554689D01*
X132710063Y-55352881D01*
X132771108Y-55111821D01*
X132791643Y-54864000D01*
X132779364Y-54715817D01*
X132787423Y-54660503D01*
X132818959Y-54614348D01*
X132867562Y-54586733D01*
X132923355Y-54583271D01*
X132934644Y-54585155D01*
X132944839Y-54586000D01*
X133183161Y-54586000D01*
X133193356Y-54585155D01*
X133428431Y-54545928D01*
X133438343Y-54543417D01*
X133663760Y-54466032D01*
X133673114Y-54461929D01*
X133882723Y-54348495D01*
X133891281Y-54342903D01*
X133920146Y-54320437D01*
X133928250Y-54309250D01*
X133921589Y-54297142D01*
X133603865Y-53979418D01*
X135250207Y-53979418D01*
X135269983Y-54255934D01*
X135271242Y-54264690D01*
X135330171Y-54535578D01*
X135332657Y-54544047D01*
X135429541Y-54803803D01*
X135433212Y-54811841D01*
X135566068Y-55055150D01*
X135570852Y-55062593D01*
X135664198Y-55187288D01*
X135675309Y-55195606D01*
X135687490Y-55188954D01*
X136889903Y-53986542D01*
X136896567Y-53974999D01*
X136896566Y-53974998D01*
X137613431Y-53974998D01*
X137620095Y-53986541D01*
X138822508Y-55188954D01*
X138834689Y-55195606D01*
X138845800Y-55187288D01*
X138939147Y-55062593D01*
X138943931Y-55055150D01*
X139076787Y-54811841D01*
X139080458Y-54803803D01*
X139177342Y-54544047D01*
X139179828Y-54535578D01*
X139238757Y-54264690D01*
X139240016Y-54255934D01*
X139256466Y-54025936D01*
X141330631Y-54025936D01*
X141331582Y-54032148D01*
X141331583Y-54032154D01*
X141360491Y-54220856D01*
X141360493Y-54220864D01*
X141361444Y-54227071D01*
X141363625Y-54232961D01*
X141363627Y-54232967D01*
X141429928Y-54411986D01*
X141429930Y-54411990D01*
X141432114Y-54417887D01*
X141435440Y-54423223D01*
X141435442Y-54423227D01*
X141535197Y-54583271D01*
X141539748Y-54590571D01*
X141679941Y-54738053D01*
X141846951Y-54854295D01*
X142033942Y-54934540D01*
X142233259Y-54975500D01*
X142382600Y-54975500D01*
X142385742Y-54975500D01*
X142537438Y-54960074D01*
X142731588Y-54899159D01*
X142794933Y-54864000D01*
X146290357Y-54864000D01*
X146290781Y-54869117D01*
X146310467Y-55106701D01*
X146310468Y-55106709D01*
X146310892Y-55111821D01*
X146312149Y-55116788D01*
X146312151Y-55116795D01*
X146332109Y-55195606D01*
X146371937Y-55352881D01*
X146373997Y-55357577D01*
X146469766Y-55575910D01*
X146469769Y-55575916D01*
X146471827Y-55580607D01*
X146474627Y-55584893D01*
X146474631Y-55584900D01*
X146526265Y-55663931D01*
X146607836Y-55788785D01*
X146611310Y-55792559D01*
X146611311Y-55792560D01*
X146772784Y-55967967D01*
X146772787Y-55967970D01*
X146776256Y-55971738D01*
X146972491Y-56124474D01*
X147191190Y-56242828D01*
X147426386Y-56323571D01*
X147671665Y-56364500D01*
X147915201Y-56364500D01*
X147920335Y-56364500D01*
X148165614Y-56323571D01*
X148400810Y-56242828D01*
X148619509Y-56124474D01*
X148815744Y-55971738D01*
X148984164Y-55788785D01*
X149120173Y-55580607D01*
X149131542Y-55554689D01*
X152544392Y-55554689D01*
X152552710Y-55565800D01*
X152677406Y-55659147D01*
X152684849Y-55663931D01*
X152928158Y-55796787D01*
X152936196Y-55800458D01*
X153195952Y-55897342D01*
X153204421Y-55899828D01*
X153475309Y-55958757D01*
X153484065Y-55960016D01*
X153760582Y-55979793D01*
X153769418Y-55979793D01*
X154045934Y-55960016D01*
X154054690Y-55958757D01*
X154325578Y-55899828D01*
X154334047Y-55897342D01*
X154593803Y-55800458D01*
X154601841Y-55796787D01*
X154845150Y-55663931D01*
X154852593Y-55659147D01*
X154977288Y-55565800D01*
X154985606Y-55554689D01*
X154978954Y-55542508D01*
X153776542Y-54340095D01*
X153765000Y-54333431D01*
X153753457Y-54340095D01*
X152551044Y-55542508D01*
X152544392Y-55554689D01*
X149131542Y-55554689D01*
X149220063Y-55352881D01*
X149281108Y-55111821D01*
X149301643Y-54864000D01*
X149289364Y-54715817D01*
X149297423Y-54660503D01*
X149328959Y-54614348D01*
X149377562Y-54586733D01*
X149433355Y-54583271D01*
X149444644Y-54585155D01*
X149454839Y-54586000D01*
X149693161Y-54586000D01*
X149703356Y-54585155D01*
X149938431Y-54545928D01*
X149948343Y-54543417D01*
X150173760Y-54466032D01*
X150183114Y-54461929D01*
X150392723Y-54348495D01*
X150401281Y-54342903D01*
X150430146Y-54320437D01*
X150438250Y-54309250D01*
X150431589Y-54297142D01*
X150113865Y-53979418D01*
X151760207Y-53979418D01*
X151779983Y-54255934D01*
X151781242Y-54264690D01*
X151840171Y-54535578D01*
X151842657Y-54544047D01*
X151939541Y-54803803D01*
X151943212Y-54811841D01*
X152076068Y-55055150D01*
X152080852Y-55062593D01*
X152174198Y-55187288D01*
X152185309Y-55195606D01*
X152197490Y-55188954D01*
X153399903Y-53986542D01*
X153406567Y-53974999D01*
X153406566Y-53974998D01*
X154123431Y-53974998D01*
X154130095Y-53986541D01*
X155332508Y-55188954D01*
X155344689Y-55195606D01*
X155355800Y-55187288D01*
X155449147Y-55062593D01*
X155453931Y-55055150D01*
X155586787Y-54811841D01*
X155590458Y-54803803D01*
X155687342Y-54544047D01*
X155689828Y-54535578D01*
X155748757Y-54264690D01*
X155750016Y-54255934D01*
X155766466Y-54025936D01*
X157840631Y-54025936D01*
X157841582Y-54032148D01*
X157841583Y-54032154D01*
X157870491Y-54220856D01*
X157870493Y-54220864D01*
X157871444Y-54227071D01*
X157873625Y-54232961D01*
X157873627Y-54232967D01*
X157939928Y-54411986D01*
X157939930Y-54411990D01*
X157942114Y-54417887D01*
X157945440Y-54423223D01*
X157945442Y-54423227D01*
X158045197Y-54583271D01*
X158049748Y-54590571D01*
X158189941Y-54738053D01*
X158356951Y-54854295D01*
X158543942Y-54934540D01*
X158743259Y-54975500D01*
X158892600Y-54975500D01*
X158895742Y-54975500D01*
X159047438Y-54960074D01*
X159241588Y-54899159D01*
X159419502Y-54800409D01*
X159573895Y-54667866D01*
X159698448Y-54506958D01*
X159788060Y-54324271D01*
X159839063Y-54127285D01*
X159849369Y-53924064D01*
X159818556Y-53722929D01*
X159747886Y-53532113D01*
X159668301Y-53404429D01*
X159643578Y-53364765D01*
X159643577Y-53364764D01*
X159640252Y-53359429D01*
X159500059Y-53211947D01*
X159333049Y-53095705D01*
X159322358Y-53091117D01*
X159151836Y-53017939D01*
X159151831Y-53017937D01*
X159146058Y-53015460D01*
X159108590Y-53007760D01*
X158952899Y-52975765D01*
X158952894Y-52975764D01*
X158946741Y-52974500D01*
X158794258Y-52974500D01*
X158791147Y-52974816D01*
X158791134Y-52974817D01*
X158648814Y-52989290D01*
X158648811Y-52989290D01*
X158642562Y-52989926D01*
X158636564Y-52991807D01*
X158636563Y-52991808D01*
X158454415Y-53048957D01*
X158454410Y-53048959D01*
X158448412Y-53050841D01*
X158442916Y-53053891D01*
X158442910Y-53053894D01*
X158275997Y-53146538D01*
X158275991Y-53146542D01*
X158270498Y-53149591D01*
X158265733Y-53153680D01*
X158265728Y-53153685D01*
X158120873Y-53278040D01*
X158120868Y-53278044D01*
X158116105Y-53282134D01*
X158112262Y-53287098D01*
X158112255Y-53287106D01*
X158020152Y-53406094D01*
X157991552Y-53443042D01*
X157988784Y-53448683D01*
X157988780Y-53448691D01*
X157904708Y-53620084D01*
X157904704Y-53620092D01*
X157901940Y-53625729D01*
X157900365Y-53631809D01*
X157900364Y-53631814D01*
X157852511Y-53816634D01*
X157850937Y-53822715D01*
X157850619Y-53828982D01*
X157850618Y-53828990D01*
X157840949Y-54019654D01*
X157840949Y-54019659D01*
X157840631Y-54025936D01*
X155766466Y-54025936D01*
X155769793Y-53979418D01*
X155769793Y-53970582D01*
X155750016Y-53694065D01*
X155748757Y-53685309D01*
X155689828Y-53414421D01*
X155687342Y-53405952D01*
X155590458Y-53146196D01*
X155586787Y-53138158D01*
X155453931Y-52894849D01*
X155449147Y-52887406D01*
X155355800Y-52762710D01*
X155344689Y-52754392D01*
X155332508Y-52761044D01*
X154130095Y-53963456D01*
X154123431Y-53974998D01*
X153406566Y-53974998D01*
X153399903Y-53963457D01*
X152194308Y-52757862D01*
X152185135Y-52751967D01*
X152176894Y-52759108D01*
X152080855Y-52887402D01*
X152076068Y-52894850D01*
X151943212Y-53138158D01*
X151939541Y-53146196D01*
X151842657Y-53405952D01*
X151840171Y-53414421D01*
X151781242Y-53685309D01*
X151779983Y-53694065D01*
X151760207Y-53970582D01*
X151760207Y-53979418D01*
X150113865Y-53979418D01*
X149220447Y-53086000D01*
X149932431Y-53086000D01*
X149939095Y-53097542D01*
X150787653Y-53946100D01*
X150797034Y-53952024D01*
X150805002Y-53944299D01*
X150894924Y-53806664D01*
X150899792Y-53797669D01*
X150995527Y-53579414D01*
X150998846Y-53569747D01*
X151057353Y-53338712D01*
X151059037Y-53328618D01*
X151078717Y-53091117D01*
X151078717Y-53080883D01*
X151059037Y-52843381D01*
X151057353Y-52833287D01*
X150998846Y-52602252D01*
X150995527Y-52592585D01*
X150908918Y-52395135D01*
X152541967Y-52395135D01*
X152547862Y-52404308D01*
X153753457Y-53609903D01*
X153765000Y-53616567D01*
X153776542Y-53609903D01*
X154978954Y-52407490D01*
X154985606Y-52395309D01*
X154977288Y-52384198D01*
X154852593Y-52290852D01*
X154845150Y-52286068D01*
X154601841Y-52153212D01*
X154593803Y-52149541D01*
X154334047Y-52052657D01*
X154325578Y-52050171D01*
X154054690Y-51991242D01*
X154045934Y-51989983D01*
X153769418Y-51970207D01*
X153760582Y-51970207D01*
X153484065Y-51989983D01*
X153475309Y-51991242D01*
X153204421Y-52050171D01*
X153195952Y-52052657D01*
X152936196Y-52149541D01*
X152928158Y-52153212D01*
X152684850Y-52286068D01*
X152677402Y-52290855D01*
X152549108Y-52386894D01*
X152541967Y-52395135D01*
X150908918Y-52395135D01*
X150899792Y-52374330D01*
X150894924Y-52365335D01*
X150805002Y-52227699D01*
X150797034Y-52219974D01*
X150787653Y-52225898D01*
X149939095Y-53074457D01*
X149932431Y-53086000D01*
X149220447Y-53086000D01*
X148360345Y-52225898D01*
X148350964Y-52219974D01*
X148342997Y-52227699D01*
X148253072Y-52365338D01*
X148248207Y-52374328D01*
X148152472Y-52592585D01*
X148149153Y-52602252D01*
X148090646Y-52833287D01*
X148088962Y-52843381D01*
X148069283Y-53080883D01*
X148069283Y-53091106D01*
X148081102Y-53233752D01*
X148073042Y-53289066D01*
X148041508Y-53335220D01*
X147992908Y-53362836D01*
X147937117Y-53366300D01*
X147925400Y-53364345D01*
X147925397Y-53364344D01*
X147920335Y-53363500D01*
X147671665Y-53363500D01*
X147666613Y-53364343D01*
X147666601Y-53364344D01*
X147431443Y-53403585D01*
X147431441Y-53403585D01*
X147426386Y-53404429D01*
X147421541Y-53406092D01*
X147421534Y-53406094D01*
X147196037Y-53483507D01*
X147196026Y-53483511D01*
X147191190Y-53485172D01*
X147186693Y-53487605D01*
X147186683Y-53487610D01*
X146977002Y-53601084D01*
X146976995Y-53601088D01*
X146972491Y-53603526D01*
X146968448Y-53606672D01*
X146968440Y-53606678D01*
X146819082Y-53722929D01*
X146776256Y-53756262D01*
X146772793Y-53760023D01*
X146772784Y-53760032D01*
X146611311Y-53935439D01*
X146611305Y-53935446D01*
X146607836Y-53939215D01*
X146605031Y-53943506D01*
X146605028Y-53943512D01*
X146474631Y-54143099D01*
X146474624Y-54143111D01*
X146471827Y-54147393D01*
X146469772Y-54152077D01*
X146469766Y-54152089D01*
X146394241Y-54324271D01*
X146371937Y-54375119D01*
X146370679Y-54380084D01*
X146370678Y-54380089D01*
X146312151Y-54611204D01*
X146312149Y-54611213D01*
X146310892Y-54616179D01*
X146310468Y-54621288D01*
X146310467Y-54621298D01*
X146295626Y-54800409D01*
X146290357Y-54864000D01*
X142794933Y-54864000D01*
X142909502Y-54800409D01*
X143063895Y-54667866D01*
X143188448Y-54506958D01*
X143278060Y-54324271D01*
X143329063Y-54127285D01*
X143339369Y-53924064D01*
X143308556Y-53722929D01*
X143237886Y-53532113D01*
X143158301Y-53404429D01*
X143133578Y-53364765D01*
X143133577Y-53364764D01*
X143130252Y-53359429D01*
X142990059Y-53211947D01*
X142823049Y-53095705D01*
X142812358Y-53091117D01*
X142641836Y-53017939D01*
X142641831Y-53017937D01*
X142636058Y-53015460D01*
X142598590Y-53007760D01*
X142442899Y-52975765D01*
X142442894Y-52975764D01*
X142436741Y-52974500D01*
X142284258Y-52974500D01*
X142281147Y-52974816D01*
X142281134Y-52974817D01*
X142138814Y-52989290D01*
X142138811Y-52989290D01*
X142132562Y-52989926D01*
X142126564Y-52991807D01*
X142126563Y-52991808D01*
X141944415Y-53048957D01*
X141944410Y-53048959D01*
X141938412Y-53050841D01*
X141932916Y-53053891D01*
X141932910Y-53053894D01*
X141765997Y-53146538D01*
X141765991Y-53146542D01*
X141760498Y-53149591D01*
X141755733Y-53153680D01*
X141755728Y-53153685D01*
X141610873Y-53278040D01*
X141610868Y-53278044D01*
X141606105Y-53282134D01*
X141602262Y-53287098D01*
X141602255Y-53287106D01*
X141510152Y-53406094D01*
X141481552Y-53443042D01*
X141478784Y-53448683D01*
X141478780Y-53448691D01*
X141394708Y-53620084D01*
X141394704Y-53620092D01*
X141391940Y-53625729D01*
X141390365Y-53631809D01*
X141390364Y-53631814D01*
X141342511Y-53816634D01*
X141340937Y-53822715D01*
X141340619Y-53828982D01*
X141340618Y-53828990D01*
X141330949Y-54019654D01*
X141330949Y-54019659D01*
X141330631Y-54025936D01*
X139256466Y-54025936D01*
X139259793Y-53979418D01*
X139259793Y-53970582D01*
X139240016Y-53694065D01*
X139238757Y-53685309D01*
X139179828Y-53414421D01*
X139177342Y-53405952D01*
X139080458Y-53146196D01*
X139076787Y-53138158D01*
X138943931Y-52894849D01*
X138939147Y-52887406D01*
X138845800Y-52762710D01*
X138834689Y-52754392D01*
X138822508Y-52761044D01*
X137620095Y-53963456D01*
X137613431Y-53974998D01*
X136896566Y-53974998D01*
X136889903Y-53963457D01*
X135684308Y-52757862D01*
X135675135Y-52751967D01*
X135666894Y-52759108D01*
X135570855Y-52887402D01*
X135566068Y-52894850D01*
X135433212Y-53138158D01*
X135429541Y-53146196D01*
X135332657Y-53405952D01*
X135330171Y-53414421D01*
X135271242Y-53685309D01*
X135269983Y-53694065D01*
X135250207Y-53970582D01*
X135250207Y-53979418D01*
X133603865Y-53979418D01*
X132710447Y-53086000D01*
X133422431Y-53086000D01*
X133429095Y-53097542D01*
X134277653Y-53946100D01*
X134287034Y-53952024D01*
X134295002Y-53944299D01*
X134384924Y-53806664D01*
X134389792Y-53797669D01*
X134485527Y-53579414D01*
X134488846Y-53569747D01*
X134547353Y-53338712D01*
X134549037Y-53328618D01*
X134568717Y-53091117D01*
X134568717Y-53080883D01*
X134549037Y-52843381D01*
X134547353Y-52833287D01*
X134488846Y-52602252D01*
X134485527Y-52592585D01*
X134398918Y-52395135D01*
X136031967Y-52395135D01*
X136037862Y-52404308D01*
X137243457Y-53609903D01*
X137255000Y-53616567D01*
X137266542Y-53609903D01*
X138468954Y-52407490D01*
X138475606Y-52395309D01*
X138467288Y-52384198D01*
X138342593Y-52290852D01*
X138335150Y-52286068D01*
X138091841Y-52153212D01*
X138083803Y-52149541D01*
X137824047Y-52052657D01*
X137815578Y-52050171D01*
X137544690Y-51991242D01*
X137535934Y-51989983D01*
X137259418Y-51970207D01*
X137250582Y-51970207D01*
X136974065Y-51989983D01*
X136965309Y-51991242D01*
X136694421Y-52050171D01*
X136685952Y-52052657D01*
X136426196Y-52149541D01*
X136418158Y-52153212D01*
X136174850Y-52286068D01*
X136167402Y-52290855D01*
X136039108Y-52386894D01*
X136031967Y-52395135D01*
X134398918Y-52395135D01*
X134389792Y-52374330D01*
X134384924Y-52365335D01*
X134295002Y-52227699D01*
X134287034Y-52219974D01*
X134277653Y-52225898D01*
X133429095Y-53074457D01*
X133422431Y-53086000D01*
X132710447Y-53086000D01*
X131850345Y-52225898D01*
X131840964Y-52219974D01*
X131832997Y-52227699D01*
X131743072Y-52365338D01*
X131738207Y-52374328D01*
X131642472Y-52592585D01*
X131639153Y-52602252D01*
X131580646Y-52833287D01*
X131578962Y-52843381D01*
X131559283Y-53080883D01*
X131559283Y-53091106D01*
X131571102Y-53233752D01*
X131563042Y-53289066D01*
X131531508Y-53335220D01*
X131482908Y-53362836D01*
X131427117Y-53366300D01*
X131415400Y-53364345D01*
X131415397Y-53364344D01*
X131410335Y-53363500D01*
X131161665Y-53363500D01*
X131156613Y-53364343D01*
X131156601Y-53364344D01*
X130921443Y-53403585D01*
X130921441Y-53403585D01*
X130916386Y-53404429D01*
X130911541Y-53406092D01*
X130911534Y-53406094D01*
X130686037Y-53483507D01*
X130686026Y-53483511D01*
X130681190Y-53485172D01*
X130676693Y-53487605D01*
X130676683Y-53487610D01*
X130467002Y-53601084D01*
X130466995Y-53601088D01*
X130462491Y-53603526D01*
X130458448Y-53606672D01*
X130458440Y-53606678D01*
X130309082Y-53722929D01*
X130266256Y-53756262D01*
X130262793Y-53760023D01*
X130262784Y-53760032D01*
X130101311Y-53935439D01*
X130101305Y-53935446D01*
X130097836Y-53939215D01*
X130095031Y-53943506D01*
X130095028Y-53943512D01*
X129964631Y-54143099D01*
X129964624Y-54143111D01*
X129961827Y-54147393D01*
X129959772Y-54152077D01*
X129959766Y-54152089D01*
X129884241Y-54324271D01*
X129861937Y-54375119D01*
X129860679Y-54380084D01*
X129860678Y-54380089D01*
X129802151Y-54611204D01*
X129802149Y-54611213D01*
X129800892Y-54616179D01*
X129800468Y-54621288D01*
X129800467Y-54621298D01*
X129785626Y-54800409D01*
X129780357Y-54864000D01*
X127635500Y-54864000D01*
X127635500Y-51862749D01*
X132199748Y-51862749D01*
X132206408Y-51874855D01*
X133052457Y-52720904D01*
X133064000Y-52727568D01*
X133075542Y-52720904D01*
X133921590Y-51874855D01*
X133928250Y-51862749D01*
X148709748Y-51862749D01*
X148716408Y-51874855D01*
X149562457Y-52720904D01*
X149574000Y-52727568D01*
X149585542Y-52720904D01*
X150431590Y-51874855D01*
X150438250Y-51862749D01*
X150430143Y-51851559D01*
X150401286Y-51829099D01*
X150392719Y-51823503D01*
X150183114Y-51710070D01*
X150173760Y-51705967D01*
X149948343Y-51628582D01*
X149938431Y-51626071D01*
X149703356Y-51586844D01*
X149693161Y-51586000D01*
X149454839Y-51586000D01*
X149444643Y-51586844D01*
X149209568Y-51626071D01*
X149199656Y-51628582D01*
X148974239Y-51705967D01*
X148964885Y-51710070D01*
X148755276Y-51823504D01*
X148746717Y-51829096D01*
X148717854Y-51851560D01*
X148709748Y-51862749D01*
X133928250Y-51862749D01*
X133920143Y-51851559D01*
X133891286Y-51829099D01*
X133882719Y-51823503D01*
X133673114Y-51710070D01*
X133663760Y-51705967D01*
X133438343Y-51628582D01*
X133428431Y-51626071D01*
X133193356Y-51586844D01*
X133183161Y-51586000D01*
X132944839Y-51586000D01*
X132934643Y-51586844D01*
X132699568Y-51626071D01*
X132689656Y-51628582D01*
X132464239Y-51705967D01*
X132454885Y-51710070D01*
X132245276Y-51823504D01*
X132236717Y-51829096D01*
X132207854Y-51851560D01*
X132199748Y-51862749D01*
X127635500Y-51862749D01*
X127635500Y-50804874D01*
X127635882Y-50795148D01*
X127636335Y-50789382D01*
X127639959Y-50743342D01*
X127640005Y-50742790D01*
X127652286Y-50602416D01*
X127655235Y-50584305D01*
X127674162Y-50505469D01*
X127674901Y-50502559D01*
X127703133Y-50397196D01*
X127708343Y-50381848D01*
X127741637Y-50301469D01*
X127743754Y-50296656D01*
X127787336Y-50203196D01*
X127793954Y-50190878D01*
X127840572Y-50114806D01*
X127844673Y-50108552D01*
X127902608Y-50025812D01*
X127909843Y-50016468D01*
X127968323Y-49947996D01*
X127974883Y-49940900D01*
X128045900Y-49869883D01*
X128052996Y-49863323D01*
X128121468Y-49804843D01*
X128130812Y-49797608D01*
X128213552Y-49739673D01*
X128219806Y-49735572D01*
X128295878Y-49688954D01*
X128308196Y-49682336D01*
X128401656Y-49638754D01*
X128406469Y-49636637D01*
X128486853Y-49603341D01*
X128502196Y-49598133D01*
X128607559Y-49569901D01*
X128610469Y-49569162D01*
X128689305Y-49550235D01*
X128707416Y-49547286D01*
X128847790Y-49535005D01*
X128848342Y-49534959D01*
X128894382Y-49531335D01*
X128900148Y-49530882D01*
X128909874Y-49530500D01*
X161920126Y-49530500D01*
X161929853Y-49530882D01*
G37*
%TD.AperFunction*%
%TD*%
M02*
